<?xml version="1.0" encoding="UTF-8"?>
<!DOCTYPE svg PUBLIC "-//W3C//DTD SVG 1.1//EN" "http://www.w3.org/Graphics/SVG/1.1/DTD/svg11.dtd">
<svg version="1.1" xmlns="http://www.w3.org/2000/svg" xmlns:xlink="http://www.w3.org/1999/xlink" x="0" y="0" width="480" height="780" viewBox="0, 0, 480, 780">
  <g id="Layer_1">
    <g>
      <g>
        <path d="M94.839,241.823 L160.803,193.078 L227.457,243.573 L161.493,292.318 L94.839,241.823 z" fill="#EEEEEE"/>
        <path d="M94.839,241.823 L160.803,193.078 L227.457,243.573 L161.493,292.318 L94.839,241.823 z" fill-opacity="0" stroke="#B2B2B2" stroke-width="2"/>
      </g>
      <text transform="matrix(1, 0, 0, 1, 161.148, 242.698)">
        <tspan x="-5.713" y="-15.24" font-family="GillSans" font-size="18" fill="#625F5E">Is</tspan>
        <tspan x="-39.463" y="5.76" font-family="GillSans" font-size="18" fill="#625F5E">Valid Login</tspan>
        <tspan x="-2.997" y="26.76" font-family="GillSans" font-size="18" fill="#625F5E">?</tspan>
      </text>
    </g>
    <g>
      <g>
        <path d="M90.648,340.167 L231.648,340.167 L231.648,390.417 L90.648,390.417 L90.648,340.167 z" fill="#EEEEEE"/>
        <path d="M90.648,340.167 L231.648,340.167 L231.648,390.417 L90.648,390.417 L90.648,340.167 z" fill-opacity="0" stroke="#625F5E" stroke-width="2"/>
      </g>
      <g>
        <text transform="matrix(1, 0, 0, 1, 161.148, 355.292)">
          <tspan x="-27.5" y="6" font-family="GillSans" font-size="18" fill="#625F5E">Issue a</tspan>
          <tspan x="21.156" y="6" font-family="Inconsolata" font-size="18" fill="#625F5E"> </tspan>
        </text>
        <text transform="matrix(1, 0, 0, 1, 161.148, 375.292)">
          <tspan x="-23" y="6" font-family="GillSans" font-size="18" fill="#625F5E">query</tspan>
        </text>
      </g>
    </g>
    <g>
      <g>
        <path d="M161.148,55.5 C122.488,55.5 91.148,45.762 91.148,33.75 C91.148,21.738 122.488,12 161.148,12 C199.808,12 231.148,21.738 231.148,33.75 C231.148,45.762 199.808,55.5 161.148,55.5 z" fill="#EEEEEE"/>
        <path d="M161.148,55.5 C122.488,55.5 91.148,45.762 91.148,33.75 C91.148,21.738 122.488,12 161.148,12 C199.808,12 231.148,21.738 231.148,33.75 C231.148,45.762 199.808,55.5 161.148,55.5 z" fill-opacity="0" stroke="#B2B2B2" stroke-width="2"/>
      </g>
      <text transform="matrix(1, 0, 0, 1, 161.148, 34.75)">
        <tspan x="-26.563" y="5.5" font-family="GillSans" font-size="18" fill="#625F5E">START</tspan>
      </text>
      <g>
        <path d="M90.648,100.417 L231.648,100.417 L231.648,150.667 L90.648,150.667 L90.648,100.417 z" fill="#EEEEEE"/>
        <path d="M90.648,100.417 L231.648,100.417 L231.648,150.667 L90.648,150.667 L90.648,100.417 z" fill-opacity="0" stroke="#625F5E" stroke-width="2"/>
      </g>
      <text transform="matrix(1, 0, 0, 1, 161.148, 116.667)">
        <tspan x="-45.5" y="6" font-family="GillSans" font-size="18" fill="#625F5E">Connect to</tspan>
      </text>
      <text transform="matrix(1, 0, 0, 1, 161.148, 136.667)">
        <tspan x="-25" y="6" font-family="GillSans" font-size="18" fill="#625F5E">Server</tspan>
      </text>
      <g>
        <path d="M161.148,59.893 L161.148,83.843" fill-opacity="0" stroke="#6CB33F" stroke-width="2"/>
        <g>
          <path d="M157.548,83.843 L161.148,93.443 L164.748,83.843 z" fill="#6CB33F"/>
          <path d="M157.548,83.843 L161.148,93.443 L164.748,83.843 z" fill-opacity="0" stroke="#6CB33F" stroke-width="2"/>
        </g>
      </g>
      <g>
        <path d="M161.148,155 L161.148,178.95" fill-opacity="0" stroke="#6CB33F" stroke-width="2"/>
        <g>
          <path d="M157.548,178.95 L161.148,188.55 L164.748,178.95 z" fill="#6CB33F"/>
          <path d="M157.548,178.95 L161.148,188.55 L164.748,178.95 z" fill-opacity="0" stroke="#6CB33F" stroke-width="2"/>
        </g>
      </g>
    </g>
    <g>
      <path d="M161.148,299.417 L161.148,323.367" fill-opacity="0" stroke="#6CB33F" stroke-width="2"/>
      <g>
        <path d="M157.548,323.367 L161.148,332.967 L164.748,323.367 z" fill="#6CB33F"/>
        <path d="M157.548,323.367 L161.148,332.967 L164.748,323.367 z" fill-opacity="0" stroke="#6CB33F" stroke-width="2"/>
      </g>
    </g>
    <g>
      <path d="M161.148,394.917 L161.148,418.867" fill-opacity="0" stroke="#6CB33F" stroke-width="2"/>
      <g>
        <path d="M157.548,418.867 L161.148,428.467 L164.748,418.867 z" fill="#6CB33F"/>
        <path d="M157.548,418.867 L161.148,428.467 L164.748,418.867 z" fill-opacity="0" stroke="#6CB33F" stroke-width="2"/>
      </g>
    </g>
    <g>
      <path d="M230.046,244.904 L294.674,245.036" fill-opacity="0" stroke="#C54601" stroke-width="2"/>
      <g>
        <path d="M294.667,248.636 L304.274,245.055 L294.681,241.436 z" fill="#C54601"/>
        <path d="M294.667,248.636 L304.274,245.055 L294.681,241.436 z" fill-opacity="0" stroke="#C54601" stroke-width="2"/>
      </g>
    </g>
    <path d="M230.046,486.071 L388.712,486.071" fill-opacity="0" stroke="#C54601" stroke-width="2"/>
    <g>
      <path d="M387.379,721.071 L388.028,284.537" fill-opacity="0" stroke="#C54601" stroke-width="2"/>
      <g>
        <path d="M391.628,284.543 L388.043,274.937 L384.428,284.532 z" fill="#C54601"/>
        <path d="M391.628,284.543 L388.043,274.937 L384.428,284.532 z" fill-opacity="0" stroke="#C54601" stroke-width="2"/>
      </g>
    </g>
    <g>
      <g>
        <path d="M90.648,578.334 L231.648,578.334 L231.648,628.584 L90.648,628.584 L90.648,578.334 z" fill="#EEEEEE"/>
        <path d="M90.648,578.334 L231.648,578.334 L231.648,628.584 L90.648,628.584 L90.648,578.334 z" fill-opacity="0" stroke="#625F5E" stroke-width="2"/>
      </g>
      <text transform="matrix(1, 0, 0, 1, 161.148, 603.459)">
        <tspan x="-39.823" y="6" font-family="GillSans" font-size="18" fill="#625F5E">Run query</tspan>
      </text>
    </g>
    <g>
      <path d="M161.148,538.417 L161.148,562.367" fill-opacity="0" stroke="#6CB33F" stroke-width="2"/>
      <g>
        <path d="M157.548,562.367 L161.148,571.967 L164.748,562.367 z" fill="#6CB33F"/>
        <path d="M157.548,562.367 L161.148,571.967 L164.748,562.367 z" fill-opacity="0" stroke="#6CB33F" stroke-width="2"/>
      </g>
    </g>
    <g>
      <g>
        <path d="M386.917,266.786 C348.257,266.786 316.917,257.048 316.917,245.036 C316.917,233.024 348.257,223.286 386.917,223.286 C425.577,223.286 456.917,233.024 456.917,245.036 C456.917,257.048 425.577,266.786 386.917,266.786 z" fill="#C54601"/>
        <path d="M386.917,266.786 C348.257,266.786 316.917,257.048 316.917,245.036 C316.917,233.024 348.257,223.286 386.917,223.286 C425.577,223.286 456.917,233.024 456.917,245.036 C456.917,257.048 425.577,266.786 386.917,266.786 z" fill-opacity="0" stroke="#E79802" stroke-width="2"/>
      </g>
      <g>
        <text transform="matrix(1, 0, 0, 1, 386.917, 245.036)">
          <tspan x="-21.5" y="6" font-family="GillSans" font-size="18" fill="#EEEEEE">STOP</tspan>
        </text>
      </g>
    </g>
    <g>
      <g>
        <path d="M94.839,483.672 L160.803,434.927 L227.457,485.422 L161.493,534.167 L94.839,483.672 z" fill="#EEEEEE"/>
        <path d="M94.839,483.672 L160.803,434.927 L227.457,485.422 L161.493,534.167 L94.839,483.672 z" fill-opacity="0" stroke="#B2B2B2" stroke-width="2"/>
      </g>
      <text transform="matrix(1, 0, 0, 1, 161.148, 484.547)">
        <tspan x="-13.865" y="-16.5" font-family="GillSans" font-size="18" fill="#625F5E">Has</tspan>
        <tspan x="-39.516" y="4.5" font-family="GillSans" font-size="18" fill="#625F5E">Permission</tspan>
        <tspan x="-2.997" y="25.5" font-family="GillSans" font-size="18" fill="#625F5E">? </tspan>
      </text>
    </g>
    <g>
      <path d="M94.839,719.042 L160.803,670.297 L227.457,720.792 L161.493,769.537 L94.839,719.042 z" fill="#EEEEEE"/>
      <path d="M94.839,719.042 L160.803,670.297 L227.457,720.792 L161.493,769.537 L94.839,719.042 z" fill-opacity="0" stroke="#B2B2B2" stroke-width="2"/>
    </g>
    <text transform="matrix(1, 0, 0, 1, 161.148, 723.917)">
      <tspan x="-48.81" y="-4.5" font-family="GillSans" font-size="18" fill="#625F5E">More queries</tspan>
      <tspan x="-2.997" y="16.5" font-family="GillSans" font-size="18" fill="#625F5E">?</tspan>
    </text>
    <g>
      <path d="M161.148,632.417 L161.148,656.367" fill-opacity="0" stroke="#6CB33F" stroke-width="2"/>
      <g>
        <path d="M157.548,656.367 L161.148,665.967 L164.748,656.367 z" fill="#6CB33F"/>
        <path d="M157.548,656.367 L161.148,665.967 L164.748,656.367 z" fill-opacity="0" stroke="#6CB33F" stroke-width="2"/>
      </g>
    </g>
    <text transform="matrix(1, 0, 0, 1, 189.063, 552.187)">
      <tspan x="-16.667" y="5.167" font-family="GillSans" font-size="18" fill="#18397B">YES</tspan>
    </text>
    <g>
      <path d="M26.604,363.271 L73.054,363.271" fill-opacity="0" stroke="#6CB33F" stroke-width="2"/>
      <g>
        <path d="M73.054,366.871 L82.654,363.271 L73.054,359.671 z" fill="#6CB33F"/>
        <path d="M73.054,366.871 L82.654,363.271 L73.054,359.671 z" fill-opacity="0" stroke="#6CB33F" stroke-width="2"/>
      </g>
    </g>
    <path d="M28,364 L27.771,721.771" fill-opacity="0" stroke="#6CB33F" stroke-width="2"/>
    <path d="M28.833,721.25 L95.771,721.271" fill-opacity="0" stroke="#6CB33F" stroke-width="2"/>
    <path d="M232.046,721.071 L387.379,721.071" fill-opacity="0" stroke="#C54601" stroke-width="2"/>
    <text transform="matrix(1, 0, 0, 1, 256.046, 706.833)">
      <tspan x="-15.167" y="6.333" font-family="GillSans" font-size="18" fill="#C54601">NO</tspan>
    </text>
    <text transform="matrix(1, 0, 0, 1, 250.379, 228.936)">
      <tspan x="-15.167" y="4.5" font-family="GillSans" font-size="18" fill="#C54601">NO</tspan>
    </text>
    <text transform="matrix(1, 0, 0, 1, 189.063, 312.833)">
      <tspan x="-16.667" y="6.167" font-family="GillSans" font-size="18" fill="#18397B">YES</tspan>
    </text>
    <text transform="matrix(1, 0, 0, 1, 65.987, 708)">
      <tspan x="-16.667" y="5.167" font-family="GillSans" font-size="18" fill="#18397B">YES</tspan>
    </text>
    <text transform="matrix(1, 0, 0, 1, 256.046, 470.833)">
      <tspan x="-15.167" y="4.5" font-family="GillSans" font-size="18" fill="#C54601">NO</tspan>
    </text>
  </g>
</svg>
