<svg xmlns="http://www.w3.org/2000/svg" xmlns:xlink="http://www.w3.org/1999/xlink" width="880" height="300"><g transform="translate(-120 0)"><path d="M330 170c16.57 0 30 13.43 30 30v40c0 16.57-13.43 30-30 30H170c-16.57 0-30-13.43-30-30v-40c0-16.57 13.43-30 30-30z" stroke="#0c7cba" stroke-width="2" fill="none"/><path d="M384.8 213.6c-1.77-2.14-1.47-5.3.66-7.04l90.38-74.53c2.13-1.76 5.3-1.45 7.04.68l31.8 38.58c1.77 2.14 1.47 5.3-.66 7.04l-90.4 74.53c-2.12 1.75-5.27 1.45-7.02-.68z" fill="none"/><use xlink:href="#a" transform="matrix(0.7715413732251271,-0.6361791488267162,0.6361791488267162,0.7715413732251271,388.6444087022541,210.4129012968713) translate(14.074999999999996 28.6)"/><path d="M263.25 122.4c-1.73-2.15-1.4-5.3.77-7.03l100.32-80.45c2.15-1.73 5.3-1.4 7.03.77l31.28 39c1.73 2.15 1.38 5.3-.77 7.02l-100.32 80.46c-2.16 1.73-5.3 1.38-7.03-.77z" fill="none"/><use xlink:href="#b" transform="matrix(0.7801177999286434,-0.6256326543863364,0.6256326543863364,0.7801177999286434,267.1463007816962,119.27159572182515) translate(30.025 28.6)"/><path d="M303.3 162.55c-1.57-2.28-1-5.4 1.3-6.95L413 81.4c2.27-1.56 5.38-.97 6.94 1.3l28.24 41.26c1.56 2.28.98 5.4-1.3 6.95l-108.4 74.2c-2.28 1.57-5.4 1-6.95-1.3z" fill="none"/><use xlink:href="#c" transform="matrix(0.825214549192975,-0.5648193939661024,0.5648193939661024,0.825214549192975,307.4158388845631,159.72149617923807) translate(34.05 28.6)"/><path d="M710 20c16.57 0 30 13.43 30 30v40c0 16.57-13.43 30-30 30H450c-16.57 0-30-13.43-30-30V50c0-16.57 13.43-30 30-30z" stroke="#666" stroke-width="2" fill="#a3d977"/><path d="M460 30c0-2.76 2.24-5 5-5h230c2.76 0 5 2.24 5 5v80c0 2.76-2.24 5-5 5H465c-2.76 0-5-2.24-5-5z" fill="#a3d977"/><use xlink:href="#d" transform="matrix(1,0,0,1,465,30) translate(65.70987654320987 17.77777777777778)"/><use xlink:href="#e" transform="matrix(1,0,0,1,465,30) translate(54.012345679012334 44.44444444444444)"/><use xlink:href="#f" transform="matrix(1,0,0,1,465,30) translate(59.629629629629626 71.11111111111111)"/><path d="M980 268c0 6.63-31.34 12-70 12s-70-5.37-70-12v-96c0-6.63 31.34-12 70-12s70 5.37 70 12z" stroke="#7ab648" stroke-width="2" fill="#fff"/><path d="M980 172c0 6.63-31.34 12-70 12s-70-5.37-70-12" stroke="#7ab648" stroke-width="2" fill="none"/><use xlink:href="#g" transform="matrix(1,0,0,1,845,189) translate(12.746913580246911 17.77777777777778)"/><path d="M167.5 180c0-2.76 2.24-5 5-5h155c2.76 0 5 2.24 5 5v80c0 2.76-2.24 5-5 5h-155c-2.76 0-5-2.24-5-5z" fill="none"/><use xlink:href="#h" transform="matrix(1,0,0,1,172.5,180) translate(28.209876543209873 17.77777777777778)"/><use xlink:href="#i" transform="matrix(1,0,0,1,172.5,180) translate(16.512345679012334 44.44444444444444)"/><use xlink:href="#j" transform="matrix(1,0,0,1,172.5,180) translate(54.96913580246914 71.11111111111111)"/><path d="M736.7 105.65L839 182.4" stroke="#0c7cba" stroke-width="5" fill="none"/><path d="M736.7 105.65l14.18 4.86-5.56 7.42z" stroke="#0c7cba" stroke-width="5" fill="#0c7cba"/><path d="M840 186.07l-.1.13-2.4-1.8 2.5-3.33z" fill="#0c7cba"/><path d="M740 70l128.84 91.4" stroke="#7ab648" stroke-width="5" fill="none"/><path d="M741.45 67.96L740 70v-3.07zM868.84 161.4l-14.32-4.48 5.36-7.56z" fill="#7ab648"/><path d="M872.42 162.03l-7.25.75-.18.04-14.5-4.54 9.33-13.17zm-13.87-6.47l3.7 1.16-2.32-3.1z" fill="#7ab648"/><path d="M351.15 177.48l84.1-60.2M351.15 177.48l-2.44 1.75" stroke="#7ab648" stroke-width="5" fill="none"/><path d="M435.26 117.27l-8.9 12.08-5.4-7.54z" stroke="#7ab648" stroke-width="5" fill="#7ab648"/><path d="M285.33 169L420 70" stroke="#0c7cba" stroke-width="5" fill="none"/><path d="M285.33 169l8.75-12.18 5.5 7.46z" stroke="#0c7cba" stroke-width="5" fill="#0c7cba"/><path d="M420 70l-1.48-2 1.48-1.1z" fill="#0c7cba"/><path d="M772.36 24.04c1.62-2.23 4.75-2.72 6.98-1.1l104 75.65c2.22 1.62 2.72 4.74 1.1 6.98L855 146c-1.63 2.24-4.75 2.74-7 1.1L744.05 71.47c-2.23-1.62-2.72-4.75-1.1-6.98z" fill="none"/><use xlink:href="#c" transform="matrix(0.8086554077746864,0.5882826119109384,-0.5882826119109384,0.8086554077746864,776.3988206939749,26.984690098428132) translate(32.55 28.6)"/><path d="M727.82 100.68c1.74-2.14 4.9-2.47 7.03-.73l99.8 81.1c2.14 1.75 2.47 4.9.73 7.04l-31.54 38.8c-1.74 2.13-4.9 2.46-7.03.72l-99.8-81.1c-2.13-1.74-2.46-4.9-.72-7.04z" fill="none"/><use xlink:href="#a" transform="matrix(0.7760536701849347,0.6306668700609638,-0.6306668700609638,0.7760536701849347,731.6976742827054,103.83374571472802) translate(19.574999999999996 28.6)"/><path d="M360 220l126.67-99" stroke="#0c7cba" stroke-width="5" fill="none"/><path d="M374.1 214.87L360 220l8.4-12.44z" fill="#0c7cba"/><path d="M378.18 216.04L360 222.66v-7.13l8.24-12.22zm-11.8-1.02l3.63-1.32-1.47-1.9z" fill="#0c7cba"/><path d="M486.67 121l2.36-1.85" stroke="#0c7cba" stroke-width="5" fill="none"/><defs><path fill="#0c7cba" d="M135-150c-39-12-60 13-60 57V0H25l-1-190h47c2 13-1 29 3 40 6-28 27-53 61-41v41" id="k"/><path fill="#0c7cba" d="M185-48c-13 30-37 53-82 52C43 2 14-33 14-96s30-98 90-98c62 0 83 45 84 108H66c0 31 8 55 39 56 18 0 30-7 34-22zm-45-69c5-46-57-63-70-21-2 6-4 13-4 21h74" id="l"/><path fill="#0c7cba" d="M137-138c1-29-70-34-71-4 15 46 118 7 119 86 1 83-164 76-172 9l43-7c4 19 20 25 44 25 33 8 57-30 24-41C81-84 22-81 20-136c-2-80 154-74 161-7" id="m"/><path fill="#0c7cba" d="M135-194c53 0 70 44 70 98 0 56-19 98-73 100-31 1-45-17-59-34 3 33 2 69 2 105H25l-1-265h48c2 10 0 23 3 31 11-24 29-35 60-35zM114-30c33 0 39-31 40-66 0-38-9-64-40-64-56 0-55 130 0 130" id="n"/><path fill="#0c7cba" d="M110-194c64 0 96 36 96 99 0 64-35 99-97 99-61 0-95-36-95-99 0-62 34-99 96-99zm-1 164c35 0 45-28 45-65 0-40-10-65-43-65-34 0-45 26-45 65 0 36 10 65 43 65" id="o"/><path fill="#0c7cba" d="M135-194c87-1 58 113 63 194h-50c-7-57 23-157-34-157-59 0-34 97-39 157H25l-1-190h47c2 12-1 28 3 38 12-26 28-41 61-42" id="p"/><g id="a"><use transform="matrix(0.05,0,0,0.05,0,0)" xlink:href="#k"/><use transform="matrix(0.05,0,0,0.05,7,0)" xlink:href="#l"/><use transform="matrix(0.05,0,0,0.05,17,0)" xlink:href="#m"/><use transform="matrix(0.05,0,0,0.05,27,0)" xlink:href="#n"/><use transform="matrix(0.05,0,0,0.05,37.95,0)" xlink:href="#o"/><use transform="matrix(0.05,0,0,0.05,48.900000000000006,0)" xlink:href="#p"/><use transform="matrix(0.05,0,0,0.05,59.85,0)" xlink:href="#m"/><use transform="matrix(0.05,0,0,0.05,69.85000000000001,0)" xlink:href="#l"/><use transform="matrix(0.05,0,0,0.05,79.85000000000001,0)" xlink:href="#m"/></g><path fill="#0c7cba" d="M169-182c-1-43-94-46-97-3 18 66 151 10 154 114 3 95-165 93-204 36-6-8-10-19-12-30l50-8c3 46 112 56 116 5-17-69-150-10-154-114-4-87 153-88 188-35 5 8 8 18 10 28" id="q"/><path fill="#0c7cba" d="M190-63c-7 42-38 67-86 67-59 0-84-38-90-98-12-110 154-137 174-36l-49 2c-2-19-15-32-35-32-30 0-35 28-38 64-6 74 65 87 74 30" id="r"/><path fill="#0c7cba" d="M114-157C55-157 80-60 75 0H25v-261h50l-1 109c12-26 28-41 61-42 86-1 58 113 63 194h-50c-7-57 23-157-34-157" id="s"/><path fill="#0c7cba" d="M220-157c-53 9-28 100-34 157h-49v-107c1-27-5-49-29-50C55-147 81-57 75 0H25l-1-190h47c2 12-1 28 3 38 10-53 101-56 108 0 13-22 24-43 59-42 82 1 51 116 57 194h-49v-107c-1-25-5-48-29-50" id="t"/><path fill="#0c7cba" d="M133-34C117-15 103 5 69 4 32 3 11-16 11-54c-1-60 55-63 116-61 1-26-3-47-28-47-18 1-26 9-28 27l-52-2c7-38 36-58 82-57s74 22 75 68l1 82c-1 14 12 18 25 15v27c-30 8-71 5-69-32zm-48 3c29 0 43-24 42-57-32 0-66-3-65 30 0 17 8 27 23 27" id="u"/><g id="b"><use transform="matrix(0.05,0,0,0.05,0,0)" xlink:href="#q"/><use transform="matrix(0.05,0,0,0.05,12,0)" xlink:href="#r"/><use transform="matrix(0.05,0,0,0.05,22,0)" xlink:href="#s"/><use transform="matrix(0.05,0,0,0.05,32.95,0)" xlink:href="#l"/><use transform="matrix(0.05,0,0,0.05,42.95,0)" xlink:href="#t"/><use transform="matrix(0.05,0,0,0.05,58.95,0)" xlink:href="#u"/></g><path fill="#7ab648" d="M84 4C32 4 15-41 15-95c0-55 18-99 73-99 29 0 47 12 58 34l2-30h48l-1 265h-49V-32C136-9 114 4 84 4zm21-34c32 0 41-29 41-66 0-36-9-64-40-64-33 0-39 30-40 65 0 43 13 65 39 65" id="v"/><path fill="#7ab648" d="M85 4C-2 5 27-109 22-190h50c7 57-23 150 33 157 60-5 35-97 40-157h50l1 190h-47c-2-12 1-28-3-38-12 25-28 42-61 42" id="w"/><path fill="#7ab648" d="M185-48c-13 30-37 53-82 52C43 2 14-33 14-96s30-98 90-98c62 0 83 45 84 108H66c0 31 8 55 39 56 18 0 30-7 34-22zm-45-69c5-46-57-63-70-21-2 6-4 13-4 21h74" id="x"/><path fill="#7ab648" d="M135-150c-39-12-60 13-60 57V0H25l-1-190h47c2 13-1 29 3 40 6-28 27-53 61-41v41" id="y"/><path fill="#7ab648" d="M25-224v-37h50v37H25zM25 0v-190h50V0H25" id="z"/><path fill="#7ab648" d="M137-138c1-29-70-34-71-4 15 46 118 7 119 86 1 83-164 76-172 9l43-7c4 19 20 25 44 25 33 8 57-30 24-41C81-84 22-81 20-136c-2-80 154-74 161-7" id="A"/><g id="c"><use transform="matrix(0.05,0,0,0.05,0,0)" xlink:href="#v"/><use transform="matrix(0.05,0,0,0.05,10.950000000000001,0)" xlink:href="#w"/><use transform="matrix(0.05,0,0,0.05,21.900000000000002,0)" xlink:href="#x"/><use transform="matrix(0.05,0,0,0.05,31.900000000000002,0)" xlink:href="#y"/><use transform="matrix(0.05,0,0,0.05,38.900000000000006,0)" xlink:href="#z"/><use transform="matrix(0.05,0,0,0.05,43.900000000000006,0)" xlink:href="#x"/><use transform="matrix(0.05,0,0,0.05,53.900000000000006,0)" xlink:href="#A"/></g><path fill="#fff" d="M182-130c37 4 62 22 62 59C244 23 116-4 24 0v-248c84 5 203-23 205 63 0 31-19 50-47 55zM76-148c40-3 101 13 101-30 0-44-60-28-101-31v61zm0 110c48-3 116 14 116-37 0-48-69-32-116-35v72" id="B"/><path fill="#fff" d="M85 4C-2 5 27-109 22-190h50c7 57-23 150 33 157 60-5 35-97 40-157h50l1 190h-47c-2-12 1-28-3-38-12 25-28 42-61 42" id="C"/><path fill="#fff" d="M137-138c1-29-70-34-71-4 15 46 118 7 119 86 1 83-164 76-172 9l43-7c4 19 20 25 44 25 33 8 57-30 24-41C81-84 22-81 20-136c-2-80 154-74 161-7" id="D"/><path fill="#fff" d="M25-224v-37h50v37H25zM25 0v-190h50V0H25" id="E"/><path fill="#fff" d="M135-194c87-1 58 113 63 194h-50c-7-57 23-157-34-157-59 0-34 97-39 157H25l-1-190h47c2 12-1 28 3 38 12-26 28-41 61-42" id="F"/><path fill="#fff" d="M185-48c-13 30-37 53-82 52C43 2 14-33 14-96s30-98 90-98c62 0 83 45 84 108H66c0 31 8 55 39 56 18 0 30-7 34-22zm-45-69c5-46-57-63-70-21-2 6-4 13-4 21h74" id="G"/><g id="d"><use transform="matrix(0.06172839506172839,0,0,0.06172839506172839,0,0)" xlink:href="#B"/><use transform="matrix(0.06172839506172839,0,0,0.06172839506172839,15.987654320987653,0)" xlink:href="#C"/><use transform="matrix(0.06172839506172839,0,0,0.06172839506172839,29.50617283950617,0)" xlink:href="#D"/><use transform="matrix(0.06172839506172839,0,0,0.06172839506172839,41.85185185185185,0)" xlink:href="#E"/><use transform="matrix(0.06172839506172839,0,0,0.06172839506172839,48.02469135802469,0)" xlink:href="#F"/><use transform="matrix(0.06172839506172839,0,0,0.06172839506172839,61.54320987654321,0)" xlink:href="#G"/><use transform="matrix(0.06172839506172839,0,0,0.06172839506172839,73.88888888888889,0)" xlink:href="#D"/><use transform="matrix(0.06172839506172839,0,0,0.06172839506172839,86.23456790123457,0)" xlink:href="#D"/></g><path fill="#fff" d="M24 0v-248h52V0H24" id="H"/><path fill="#fff" d="M115-3C79 11 28 4 28-45v-112H4v-33h27l15-45h31v45h36v33H77v99c-1 23 16 31 38 25v30" id="I"/><path fill="#fff" d="M25 0v-261h50V0H25" id="J"/><path fill="#fff" d="M195-6C206 82 75 100 31 46c-4-6-6-13-8-21l49-6c3 16 16 24 34 25 40 0 42-37 40-79-11 22-30 35-61 35-53 0-70-43-70-97 0-56 18-96 73-97 30 0 46 14 59 34l2-30h47zm-90-29c32 0 41-27 41-63 0-35-9-62-40-62-32 0-39 29-40 63 0 36 9 62 39 62" id="K"/><path fill="#fff" d="M190-63c-7 42-38 67-86 67-59 0-84-38-90-98-12-110 154-137 174-36l-49 2c-2-19-15-32-35-32-30 0-35 28-38 64-6 74 65 87 74 30" id="L"/><g id="e"><use transform="matrix(0.06172839506172839,0,0,0.06172839506172839,0,0)" xlink:href="#H"/><use transform="matrix(0.06172839506172839,0,0,0.06172839506172839,6.172839506172839,0)" xlink:href="#F"/><use transform="matrix(0.06172839506172839,0,0,0.06172839506172839,19.691358024691358,0)" xlink:href="#I"/><use transform="matrix(0.06172839506172839,0,0,0.06172839506172839,27.037037037037038,0)" xlink:href="#G"/><use transform="matrix(0.06172839506172839,0,0,0.06172839506172839,39.382716049382715,0)" xlink:href="#J"/><use transform="matrix(0.06172839506172839,0,0,0.06172839506172839,45.55555555555556,0)" xlink:href="#J"/><use transform="matrix(0.06172839506172839,0,0,0.06172839506172839,51.7283950617284,0)" xlink:href="#E"/><use transform="matrix(0.06172839506172839,0,0,0.06172839506172839,57.90123456790124,0)" xlink:href="#K"/><use transform="matrix(0.06172839506172839,0,0,0.06172839506172839,71.41975308641976,0)" xlink:href="#G"/><use transform="matrix(0.06172839506172839,0,0,0.06172839506172839,83.76543209876544,0)" xlink:href="#F"/><use transform="matrix(0.06172839506172839,0,0,0.06172839506172839,97.28395061728396,0)" xlink:href="#L"/><use transform="matrix(0.06172839506172839,0,0,0.06172839506172839,109.62962962962965,0)" xlink:href="#G"/></g><path fill="#fff" d="M67-125c0 53 21 87 73 88 37 1 54-22 65-47l45 17C233-25 199 4 140 4 58 4 20-42 15-125 8-235 124-281 211-232c18 10 29 29 36 50l-46 12c-8-25-30-41-62-41-52 0-71 34-72 86" id="M"/><path fill="#fff" d="M110-194c64 0 96 36 96 99 0 64-35 99-97 99-61 0-95-36-95-99 0-62 34-99 96-99zm-1 164c35 0 45-28 45-65 0-40-10-65-43-65-34 0-45 26-45 65 0 36 10 65 43 65" id="N"/><path fill="#fff" d="M135-150c-39-12-60 13-60 57V0H25l-1-190h47c2 13-1 29 3 40 6-28 27-53 61-41v41" id="O"/><g id="f"><use transform="matrix(0.06172839506172839,0,0,0.06172839506172839,0,0)" xlink:href="#M"/><use transform="matrix(0.06172839506172839,0,0,0.06172839506172839,15.987654320987653,0)" xlink:href="#N"/><use transform="matrix(0.06172839506172839,0,0,0.06172839506172839,29.50617283950617,0)" xlink:href="#F"/><use transform="matrix(0.06172839506172839,0,0,0.06172839506172839,43.02469135802469,0)" xlink:href="#F"/><use transform="matrix(0.06172839506172839,0,0,0.06172839506172839,56.54320987654321,0)" xlink:href="#G"/><use transform="matrix(0.06172839506172839,0,0,0.06172839506172839,68.88888888888889,0)" xlink:href="#L"/><use transform="matrix(0.06172839506172839,0,0,0.06172839506172839,81.23456790123457,0)" xlink:href="#I"/><use transform="matrix(0.06172839506172839,0,0,0.06172839506172839,88.58024691358025,0)" xlink:href="#N"/><use transform="matrix(0.06172839506172839,0,0,0.06172839506172839,102.09876543209877,0)" xlink:href="#O"/></g><path fill="#7ab648" d="M230 0l2-204L168 0h-37L68-204 70 0H24v-248h70l56 185 57-185h69V0h-46" id="P"/><path fill="#7ab648" d="M110-194c64 0 96 36 96 99 0 64-35 99-97 99-61 0-95-36-95-99 0-62 34-99 96-99zm-1 164c35 0 45-28 45-65 0-40-10-65-43-65-34 0-45 26-45 65 0 36 10 65 43 65" id="Q"/><path fill="#7ab648" d="M135-194c87-1 58 113 63 194h-50c-7-57 23-157-34-157-59 0-34 97-39 157H25l-1-190h47c2 12-1 28 3 38 12-26 28-41 61-42" id="R"/><path fill="#7ab648" d="M195-6C206 82 75 100 31 46c-4-6-6-13-8-21l49-6c3 16 16 24 34 25 40 0 42-37 40-79-11 22-30 35-61 35-53 0-70-43-70-97 0-56 18-96 73-97 30 0 46 14 59 34l2-30h47zm-90-29c32 0 41-27 41-63 0-35-9-62-40-62-32 0-39 29-40 63 0 36 9 62 39 62" id="S"/><path fill="#7ab648" d="M24-248c120-7 223 5 221 122C244-46 201 0 124 0H24v-248zM76-40c74 7 117-18 117-86 0-67-45-88-117-82v168" id="T"/><path fill="#7ab648" d="M182-130c37 4 62 22 62 59C244 23 116-4 24 0v-248c84 5 203-23 205 63 0 31-19 50-47 55zM76-148c40-3 101 13 101-30 0-44-60-28-101-31v61zm0 110c48-3 116 14 116-37 0-48-69-32-116-35v72" id="U"/><g id="g"><use transform="matrix(0.06172839506172839,0,0,0.06172839506172839,0,0)" xlink:href="#P"/><use transform="matrix(0.06172839506172839,0,0,0.06172839506172839,18.456790123456788,0)" xlink:href="#Q"/><use transform="matrix(0.06172839506172839,0,0,0.06172839506172839,31.9753086419753,0)" xlink:href="#R"/><use transform="matrix(0.06172839506172839,0,0,0.06172839506172839,45.49382716049382,0)" xlink:href="#S"/><use transform="matrix(0.06172839506172839,0,0,0.06172839506172839,59.01234567901234,0)" xlink:href="#Q"/><use transform="matrix(0.06172839506172839,0,0,0.06172839506172839,72.53086419753086,0)" xlink:href="#T"/><use transform="matrix(0.06172839506172839,0,0,0.06172839506172839,88.51851851851852,0)" xlink:href="#U"/></g><path fill="#0c7cba" d="M182-130c37 4 62 22 62 59C244 23 116-4 24 0v-248c84 5 203-23 205 63 0 31-19 50-47 55zM76-148c40-3 101 13 101-30 0-44-60-28-101-31v61zm0 110c48-3 116 14 116-37 0-48-69-32-116-35v72" id="V"/><path fill="#0c7cba" d="M85 4C-2 5 27-109 22-190h50c7 57-23 150 33 157 60-5 35-97 40-157h50l1 190h-47c-2-12 1-28-3-38-12 25-28 42-61 42" id="W"/><path fill="#0c7cba" d="M25-224v-37h50v37H25zM25 0v-190h50V0H25" id="X"/><g id="h"><use transform="matrix(0.06172839506172839,0,0,0.06172839506172839,0,0)" xlink:href="#V"/><use transform="matrix(0.06172839506172839,0,0,0.06172839506172839,15.987654320987653,0)" xlink:href="#W"/><use transform="matrix(0.06172839506172839,0,0,0.06172839506172839,29.50617283950617,0)" xlink:href="#m"/><use transform="matrix(0.06172839506172839,0,0,0.06172839506172839,41.85185185185185,0)" xlink:href="#X"/><use transform="matrix(0.06172839506172839,0,0,0.06172839506172839,48.02469135802469,0)" xlink:href="#p"/><use transform="matrix(0.06172839506172839,0,0,0.06172839506172839,61.54320987654321,0)" xlink:href="#l"/><use transform="matrix(0.06172839506172839,0,0,0.06172839506172839,73.88888888888889,0)" xlink:href="#m"/><use transform="matrix(0.06172839506172839,0,0,0.06172839506172839,86.23456790123457,0)" xlink:href="#m"/></g><path fill="#0c7cba" d="M24 0v-248h52V0H24" id="Y"/><path fill="#0c7cba" d="M115-3C79 11 28 4 28-45v-112H4v-33h27l15-45h31v45h36v33H77v99c-1 23 16 31 38 25v30" id="Z"/><path fill="#0c7cba" d="M25 0v-261h50V0H25" id="aa"/><path fill="#0c7cba" d="M195-6C206 82 75 100 31 46c-4-6-6-13-8-21l49-6c3 16 16 24 34 25 40 0 42-37 40-79-11 22-30 35-61 35-53 0-70-43-70-97 0-56 18-96 73-97 30 0 46 14 59 34l2-30h47zm-90-29c32 0 41-27 41-63 0-35-9-62-40-62-32 0-39 29-40 63 0 36 9 62 39 62" id="ab"/><g id="i"><use transform="matrix(0.06172839506172839,0,0,0.06172839506172839,0,0)" xlink:href="#Y"/><use transform="matrix(0.06172839506172839,0,0,0.06172839506172839,6.172839506172839,0)" xlink:href="#p"/><use transform="matrix(0.06172839506172839,0,0,0.06172839506172839,19.691358024691358,0)" xlink:href="#Z"/><use transform="matrix(0.06172839506172839,0,0,0.06172839506172839,27.037037037037038,0)" xlink:href="#l"/><use transform="matrix(0.06172839506172839,0,0,0.06172839506172839,39.382716049382715,0)" xlink:href="#aa"/><use transform="matrix(0.06172839506172839,0,0,0.06172839506172839,45.55555555555556,0)" xlink:href="#aa"/><use transform="matrix(0.06172839506172839,0,0,0.06172839506172839,51.7283950617284,0)" xlink:href="#X"/><use transform="matrix(0.06172839506172839,0,0,0.06172839506172839,57.90123456790124,0)" xlink:href="#ab"/><use transform="matrix(0.06172839506172839,0,0,0.06172839506172839,71.41975308641976,0)" xlink:href="#l"/><use transform="matrix(0.06172839506172839,0,0,0.06172839506172839,83.76543209876544,0)" xlink:href="#p"/><use transform="matrix(0.06172839506172839,0,0,0.06172839506172839,97.28395061728396,0)" xlink:href="#r"/><use transform="matrix(0.06172839506172839,0,0,0.06172839506172839,109.62962962962965,0)" xlink:href="#l"/></g><path fill="#0c7cba" d="M136-208V0H84v-208H4v-40h212v40h-80" id="ac"/><g id="j"><use transform="matrix(0.06172839506172839,0,0,0.06172839506172839,0,0)" xlink:href="#ac"/><use transform="matrix(0.06172839506172839,0,0,0.06172839506172839,11.851851851851851,0)" xlink:href="#o"/><use transform="matrix(0.06172839506172839,0,0,0.06172839506172839,25.370370370370367,0)" xlink:href="#o"/><use transform="matrix(0.06172839506172839,0,0,0.06172839506172839,38.888888888888886,0)" xlink:href="#aa"/></g></defs></g></svg>