<svg xmlns="http://www.w3.org/2000/svg" xmlns:xlink="http://www.w3.org/1999/xlink" width="1040" height="434"><g transform="translate(-220 -100)"><path d="M440 380c0 11.05-44.77 20-100 20s-100-8.95-100-20V220c0-11.05 44.77-20 100-20s100 8.95 100 20z" stroke="#e5e5e5" stroke-width="2" fill="#c92d39" fill-opacity=".48"/><path d="M440 220c0 11.05-44.77 20-100 20s-100-8.95-100-20" stroke="#e5e5e5" stroke-width="2" fill="none"/><use xlink:href="#a" transform="matrix(1,0,0,1,245,245) translate(46.96296296296296 80.33333333333334)"/><path d="M620 220h198v136c-33-22.67-53.63-22.67-66-22.67-19.8 0-46.2 22.67-66 22.67-12.38 0-33 0-66-22.67z" stroke="#000" stroke-width="2" fill="#e5e5e5"/><path d="M631 232h198v136c-33-22.67-53.63-22.67-66-22.67-19.8 0-46.2 22.67-66 22.67-12.38 0-33 0-66-22.67z" stroke="#000" stroke-width="2" fill="#e5e5e5"/><path d="M642 244h198v136c-33-22.67-53.63-22.67-66-22.67-19.8 0-46.2 22.67-66 22.67-12.38 0-33 0-66-22.67z" stroke="#000" stroke-width="2" fill="#e5e5e5"/><use xlink:href="#b" transform="matrix(1,0,0,1,647,249) translate(16.33333333333333 41.333333333333336)"/><use xlink:href="#c" transform="matrix(1,0,0,1,647,249) translate(65.96296296296296 73.33333333333334)"/><path d="M440 300h180" stroke="#a3d977" stroke-width="2" fill="none"/><path d="M440 301v-2zM620 300l-14.27 4.64v-9.28z" fill="#a3d977"/><path d="M620 298.95v2.1L604.73 306v-12zm-13.27 4.3l10.03-3.25-10.03-3.26z" fill="#a3d977"/><path d="M1240 380c0 11.05-44.77 20-100 20s-100-8.95-100-20V220c0-11.05 44.77-20 100-20s100 8.95 100 20z" stroke="#fff" stroke-width="4" fill="#7ab648"/><path d="M1240 220c0 11.05-44.77 20-100 20s-100-8.95-100-20" stroke="#fff" stroke-width="4" fill="none"/><use xlink:href="#d" transform="matrix(1,0,0,1,1045,245) translate(35.81481481481481 80.33333333333334)"/><path d="M840 300h198" stroke="#0c7cba" stroke-width="2" fill="none"/><path d="M1038 300l-14.27 4.64v-9.28z" fill="#0c7cba"/><path d="M1040 299.6v.8l-17.27 5.6v-12zm-15.27 3.66l10.03-3.26-10.03-3.26z" fill="#0c7cba"/><path d="M460 213h140v74H460z" stroke="#a3d977" stroke-width="4" fill="none"/><use xlink:href="#e" transform="matrix(1,0,0,1,465,218) translate(5.8148148148148096 37.333333333333336)"/><path d="M620 120h240v60H620z" fill="none"/><use xlink:href="#f" transform="matrix(1,0,0,1,625,125) translate(77.33333333333334 33)"/><path d="M620 440h240v74H620z" fill="none"/><use xlink:href="#g" transform="matrix(1,0,0,1,625,445) translate(26.037037037037038 37.333333333333336)"/><path d="M880 213h140v74H880z" stroke="#0c7cba" stroke-width="4" fill="none"/><use xlink:href="#h" transform="matrix(1,0,0,1,885,218) translate(17.629629629629633 37.333333333333336)"/><path d="M619 332.67h-40V420h302v-86h-40" stroke="#000" stroke-width="2" fill="none"/><path d="M620 333.33l.52.34H619v-2h1zM855.27 338.64L841 334l14.27-4.64z"/><path d="M856.27 340L840 334.74v-1.46l16.27-5.28zm-12.03-6l10.03 3.26v-6.52z"/><defs><path d="M233-177c-1 41-23 64-60 70L243 0h-38l-65-103H63V0H30v-248c88 3 205-21 203 71zM63-129c60-2 137 13 137-47 0-61-80-42-137-45v92" id="i"/><path d="M30-248c118-7 216 8 213 122C240-48 200 0 122 0H30v-248zM63-27c89 8 146-16 146-99s-60-101-146-95v194" id="j"/><path d="M160-131c35 5 61 23 61 61C221 17 115-2 30 0v-248c76 3 177-17 177 60 0 33-19 50-47 57zm-97-11c50-1 110 9 110-42 0-47-63-36-110-37v79zm0 115c55-2 124 14 124-45 0-56-70-42-124-44v89" id="k"/><path d="M240 0l2-218c-23 76-54 145-80 218h-23L58-218 59 0H30v-248h44l77 211c21-75 51-140 76-211h43V0h-30" id="l"/><path d="M185-189c-5-48-123-54-124 2 14 75 158 14 163 119 3 78-121 87-175 55-17-10-28-26-33-46l33-7c5 56 141 63 141-1 0-78-155-14-162-118-5-82 145-84 179-34 5 7 8 16 11 25" id="m"/><g id="a"><use transform="matrix(0.07407407407407408,0,0,0.07407407407407408,0,0)" xlink:href="#i"/><use transform="matrix(0.07407407407407408,0,0,0.07407407407407408,19.185185185185187,0)" xlink:href="#j"/><use transform="matrix(0.07407407407407408,0,0,0.07407407407407408,38.370370370370374,0)" xlink:href="#k"/><use transform="matrix(0.07407407407407408,0,0,0.07407407407407408,56.14814814814815,0)" xlink:href="#l"/><use transform="matrix(0.07407407407407408,0,0,0.07407407407407408,78.2962962962963,0)" xlink:href="#m"/></g><path d="M30 0v-248h187v28H63v79h144v27H63v87h162V0H30" id="n"/><path d="M141 0L90-78 38 0H4l68-98-65-92h35l48 74 47-74h35l-64 92 68 98h-35" id="o"/><path d="M115-194c55 1 70 41 70 98S169 2 115 4C84 4 66-9 55-30l1 105H24l-1-265h31l2 30c10-21 28-34 59-34zm-8 174c40 0 45-34 45-75s-6-73-45-74c-42 0-51 32-51 76 0 43 10 73 51 73" id="p"/><path d="M100-194c62-1 85 37 85 99 1 63-27 99-86 99S16-35 15-95c0-66 28-99 85-99zM99-20c44 1 53-31 53-75 0-43-8-75-51-75s-53 32-53 75 10 74 51 75" id="q"/><path d="M114-163C36-179 61-72 57 0H25l-1-190h30c1 12-1 29 2 39 6-27 23-49 58-41v29" id="r"/><path d="M59-47c-2 24 18 29 38 22v24C64 9 27 4 27-40v-127H5v-23h24l9-43h21v43h35v23H59v120" id="s"/><path d="M0 4l72-265h28L28 4H0" id="t"/><path d="M84 4C-5 8 30-112 23-190h32v120c0 31 7 50 39 49 72-2 45-101 50-169h31l1 190h-30c-1-10 1-25-2-33-11 22-28 36-60 37" id="u"/><path d="M210-169c-67 3-38 105-44 169h-31v-121c0-29-5-50-35-48C34-165 62-65 56 0H25l-1-190h30c1 10-1 24 2 32 10-44 99-50 107 0 11-21 27-35 58-36 85-2 47 119 55 194h-31v-121c0-29-5-49-35-48" id="v"/><g id="b"><use transform="matrix(0.07407407407407408,0,0,0.07407407407407408,0,0)" xlink:href="#n"/><use transform="matrix(0.07407407407407408,0,0,0.07407407407407408,17.77777777777778,0)" xlink:href="#o"/><use transform="matrix(0.07407407407407408,0,0,0.07407407407407408,31.111111111111114,0)" xlink:href="#p"/><use transform="matrix(0.07407407407407408,0,0,0.07407407407407408,45.92592592592593,0)" xlink:href="#q"/><use transform="matrix(0.07407407407407408,0,0,0.07407407407407408,60.74074074074075,0)" xlink:href="#r"/><use transform="matrix(0.07407407407407408,0,0,0.07407407407407408,69.55555555555557,0)" xlink:href="#s"/><use transform="matrix(0.07407407407407408,0,0,0.07407407407407408,76.96296296296298,0)" xlink:href="#t"/><use transform="matrix(0.07407407407407408,0,0,0.07407407407407408,84.37037037037038,0)" xlink:href="#j"/><use transform="matrix(0.07407407407407408,0,0,0.07407407407407408,103.55555555555557,0)" xlink:href="#u"/><use transform="matrix(0.07407407407407408,0,0,0.07407407407407408,118.37037037037038,0)" xlink:href="#v"/><use transform="matrix(0.07407407407407408,0,0,0.07407407407407408,140.51851851851853,0)" xlink:href="#p"/></g><path d="M63-220v92h138v28H63V0H30v-248h175v28H63" id="w"/><path d="M24-231v-30h32v30H24zM24 0v-190h32V0H24" id="x"/><path d="M24 0v-261h32V0H24" id="y"/><path d="M100-194c63 0 86 42 84 106H49c0 40 14 67 53 68 26 1 43-12 49-29l28 8c-11 28-37 45-77 45C44 4 14-33 15-96c1-61 26-98 85-98zm52 81c6-60-76-77-97-28-3 7-6 17-6 28h103" id="z"/><path d="M135-143c-3-34-86-38-87 0 15 53 115 12 119 90S17 21 10-45l28-5c4 36 97 45 98 0-10-56-113-15-118-90-4-57 82-63 122-42 12 7 21 19 24 35" id="A"/><g id="c"><use transform="matrix(0.07407407407407408,0,0,0.07407407407407408,0,0)" xlink:href="#w"/><use transform="matrix(0.07407407407407408,0,0,0.07407407407407408,16.222222222222225,0)" xlink:href="#x"/><use transform="matrix(0.07407407407407408,0,0,0.07407407407407408,22.074074074074076,0)" xlink:href="#y"/><use transform="matrix(0.07407407407407408,0,0,0.07407407407407408,27.92592592592593,0)" xlink:href="#z"/><use transform="matrix(0.07407407407407408,0,0,0.07407407407407408,42.74074074074075,0)" xlink:href="#A"/></g><path d="M117-194c89-4 53 116 60 194h-32v-121c0-31-8-49-39-48C34-167 62-67 57 0H25l-1-190h30c1 10-1 24 2 32 11-22 29-35 61-36" id="B"/><path d="M177-190C167-65 218 103 67 71c-23-6-38-20-44-43l32-5c15 47 100 32 89-28v-30C133-14 115 1 83 1 29 1 15-40 15-95c0-56 16-97 71-98 29-1 48 16 59 35 1-10 0-23 2-32h30zM94-22c36 0 50-32 50-73 0-42-14-75-50-75-39 0-46 34-46 75s6 73 46 73" id="C"/><g id="d"><use transform="matrix(0.07407407407407408,0,0,0.07407407407407408,0,0)" xlink:href="#l"/><use transform="matrix(0.07407407407407408,0,0,0.07407407407407408,22.148148148148152,0)" xlink:href="#q"/><use transform="matrix(0.07407407407407408,0,0,0.07407407407407408,36.96296296296297,0)" xlink:href="#B"/><use transform="matrix(0.07407407407407408,0,0,0.07407407407407408,51.777777777777786,0)" xlink:href="#C"/><use transform="matrix(0.07407407407407408,0,0,0.07407407407407408,66.59259259259261,0)" xlink:href="#q"/><use transform="matrix(0.07407407407407408,0,0,0.07407407407407408,81.40740740740742,0)" xlink:href="#j"/><use transform="matrix(0.07407407407407408,0,0,0.07407407407407408,100.59259259259261,0)" xlink:href="#k"/></g><path d="M141-36C126-15 110 5 73 4 37 3 15-17 15-53c-1-64 63-63 125-63 3-35-9-54-41-54-24 1-41 7-42 31l-33-3c5-37 33-52 76-52 45 0 72 20 72 64v82c-1 20 7 32 28 27v20c-31 9-61-2-59-35zM48-53c0 20 12 33 32 33 41-3 63-29 60-74-43 2-92-5-92 41" id="D"/><path d="M96-169c-40 0-48 33-48 73s9 75 48 75c24 0 41-14 43-38l32 2c-6 37-31 61-74 61-59 0-76-41-82-99-10-93 101-131 147-64 4 7 5 14 7 22l-32 3c-4-21-16-35-41-35" id="E"/><g id="e"><use transform="matrix(0.07407407407407408,0,0,0.07407407407407408,0,0)" xlink:href="#n"/><use transform="matrix(0.07407407407407408,0,0,0.07407407407407408,17.77777777777778,0)" xlink:href="#o"/><use transform="matrix(0.07407407407407408,0,0,0.07407407407407408,31.111111111111114,0)" xlink:href="#s"/><use transform="matrix(0.07407407407407408,0,0,0.07407407407407408,38.51851851851851,0)" xlink:href="#r"/><use transform="matrix(0.07407407407407408,0,0,0.07407407407407408,47.33333333333334,0)" xlink:href="#D"/><use transform="matrix(0.07407407407407408,0,0,0.07407407407407408,62.14814814814816,0)" xlink:href="#E"/><use transform="matrix(0.07407407407407408,0,0,0.07407407407407408,75.4814814814815,0)" xlink:href="#s"/><use transform="matrix(0.07407407407407408,0,0,0.07407407407407408,82.8888888888889,0)" xlink:href="#x"/><use transform="matrix(0.07407407407407408,0,0,0.07407407407407408,88.74074074074075,0)" xlink:href="#q"/><use transform="matrix(0.07407407407407408,0,0,0.07407407407407408,103.55555555555557,0)" xlink:href="#B"/></g><path d="M24 0v-248h195v40H76v63h132v40H76v65h150V0H24" id="F"/><path d="M136-208V0H84v-208H4v-40h212v40h-80" id="G"/><path d="M24 0v-248h52v208h133V0H24" id="H"/><g id="f"><use transform="matrix(0.1111111111111111,0,0,0.1111111111111111,0,0)" xlink:href="#F"/><use transform="matrix(0.1111111111111111,0,0,0.1111111111111111,26.666666666666664,0)" xlink:href="#G"/><use transform="matrix(0.1111111111111111,0,0,0.1111111111111111,51,0)" xlink:href="#H"/></g><path d="M127-220V0H93v-220H8v-28h204v28h-85" id="I"/><path d="M101-234c-31-9-42 10-38 44h38v23H63V0H32v-167H5v-23h27c-7-52 17-82 69-68v24" id="J"/><g id="g"><use transform="matrix(0.07407407407407408,0,0,0.07407407407407408,0,0)" xlink:href="#I"/><use transform="matrix(0.07407407407407408,0,0,0.07407407407407408,15.259259259259261,0)" xlink:href="#r"/><use transform="matrix(0.07407407407407408,0,0,0.07407407407407408,24.074074074074076,0)" xlink:href="#D"/><use transform="matrix(0.07407407407407408,0,0,0.07407407407407408,38.88888888888889,0)" xlink:href="#B"/><use transform="matrix(0.07407407407407408,0,0,0.07407407407407408,53.70370370370371,0)" xlink:href="#A"/><use transform="matrix(0.07407407407407408,0,0,0.07407407407407408,67.03703703703704,0)" xlink:href="#J"/><use transform="matrix(0.07407407407407408,0,0,0.07407407407407408,74.44444444444444,0)" xlink:href="#q"/><use transform="matrix(0.07407407407407408,0,0,0.07407407407407408,89.25925925925927,0)" xlink:href="#r"/><use transform="matrix(0.07407407407407408,0,0,0.07407407407407408,98.07407407407408,0)" xlink:href="#v"/><use transform="matrix(0.07407407407407408,0,0,0.07407407407407408,120.22222222222221,0)" xlink:href="#D"/><use transform="matrix(0.07407407407407408,0,0,0.07407407407407408,135.03703703703704,0)" xlink:href="#s"/><use transform="matrix(0.07407407407407408,0,0,0.07407407407407408,142.44444444444446,0)" xlink:href="#x"/><use transform="matrix(0.07407407407407408,0,0,0.07407407407407408,148.2962962962963,0)" xlink:href="#q"/><use transform="matrix(0.07407407407407408,0,0,0.07407407407407408,163.1111111111111,0)" xlink:href="#B"/></g><path d="M30 0v-248h33v221h125V0H30" id="K"/><path d="M85-194c31 0 48 13 60 33l-1-100h32l1 261h-30c-2-10 0-23-3-31C134-8 116 4 85 4 32 4 16-35 15-94c0-66 23-100 70-100zm9 24c-40 0-46 34-46 75 0 40 6 74 45 74 42 0 51-32 51-76 0-42-9-74-50-73" id="L"/><g id="h"><use transform="matrix(0.07407407407407408,0,0,0.07407407407407408,0,0)" xlink:href="#K"/><use transform="matrix(0.07407407407407408,0,0,0.07407407407407408,14.814814814814817,0)" xlink:href="#q"/><use transform="matrix(0.07407407407407408,0,0,0.07407407407407408,29.629629629629633,0)" xlink:href="#D"/><use transform="matrix(0.07407407407407408,0,0,0.07407407407407408,44.44444444444445,0)" xlink:href="#L"/><use transform="matrix(0.07407407407407408,0,0,0.07407407407407408,59.25925925925927,0)" xlink:href="#x"/><use transform="matrix(0.07407407407407408,0,0,0.07407407407407408,65.11111111111111,0)" xlink:href="#B"/><use transform="matrix(0.07407407407407408,0,0,0.07407407407407408,79.92592592592592,0)" xlink:href="#C"/></g></defs></g></svg>