<svg xmlns="http://www.w3.org/2000/svg" xmlns:xlink="http://www.w3.org/1999/xlink" width="1040" height="360"><g transform="translate(-220 -180)"><path d="M440 380c0 11.05-44.77 20-100 20s-100-8.95-100-20V220c0-11.05 44.77-20 100-20s100 8.95 100 20z" stroke="#e5e5e5" stroke-width="2" fill="#c92d39" fill-opacity=".48"/><path d="M440 220c0 11.05-44.77 20-100 20s-100-8.95-100-20" stroke="#e5e5e5" stroke-width="2" fill="none"/><use xlink:href="#a" transform="matrix(1,0,0,1,245,245) translate(46.96296296296296 80.33333333333334)"/><path d="M1240 380c0 11.05-44.77 20-100 20s-100-8.95-100-20V220c0-11.05 44.77-20 100-20s100 8.95 100 20z" stroke="#fff" stroke-width="4" fill="#7ab648"/><path d="M1240 220c0 11.05-44.77 20-100 20s-100-8.95-100-20" stroke="#fff" stroke-width="4" fill="none"/><use xlink:href="#b" transform="matrix(1,0,0,1,1045,245) translate(35.81481481481481 80.33333333333334)"/><path d="M710 360v-60H440" stroke="#c92d39" stroke-width="3" fill="none"/><path d="M454.27 304.64L440 300l14.27-4.64z" fill="#c92d39"/><path d="M455.77 306.7L440 301.58v-3.16l15.77-5.12zm-10.92-6.7l7.92 2.57v-5.14z" fill="#c92d39"/><path d="M710 360v-60h330" stroke="#7ab648" stroke-width="4" fill="none"/><path d="M1040 300l-14.27 4.64v-9.28z" fill="#7ab648"/><path d="M1040 297.9v4.2l-16.27 5.3v-14.8zm-12.27 3.98l5.8-1.88-5.8-1.88z" fill="#7ab648"/><path d="M340 400l6.83.14 6.8.43 6.85.72 6.93 1 7.1 1.37 7.33 1.72 7.7 2.14 8.23 2.68 9.02 3.36 10.3 4.33 12.66 6 19.7 10.35 54.36 29.78 12.6 5.94 10.2 4.3 2.74 1.06 9.6 3.44 10.64 3.3 11.88 3.16 13.37 2.96 15.2 2.7 17.5 2.34 20.6 1.9 25.67 1.27 51.53.27 70.46-.74 32.14-2L835 491.1l23.37-3.44 20.4-3.88 18-4.22 15.23-4.23 157.8-47.8 37.33-13.75 30.78-12.85 2.1-.93" stroke="#000" stroke-width="6" fill="none"/><path d="M340 400l-.14 3-3-.15.14-2.92zM1128.66 409.8l-3.6-8.53L1140 400z"/><path d="M1140 400l4.64-.05-17.15 14.83-6.43-15.24zm-10.58 3.9l.4.94 1.23-1.07z"/><path d="M600 360h220v160H600z" stroke="#000" stroke-width="2" fill="#99d2f2"/><use xlink:href="#c" transform="matrix(1,0,0,1,605,365) translate(29.08024691358024 81.22222222222223)"/><path d="M380 380h240v60H380z" fill="none"/><use xlink:href="#d" transform="matrix(1,0,0,1,385,385) translate(64.17592592592592 29.88888888888889)"/><use xlink:href="#e" transform="matrix(1,0,0,1,385,385) translate(122.50308641975309 29.88888888888889)"/><defs><path d="M233-177c-1 41-23 64-60 70L243 0h-38l-65-103H63V0H30v-248c88 3 205-21 203 71zM63-129c60-2 137 13 137-47 0-61-80-42-137-45v92" id="f"/><path d="M30-248c118-7 216 8 213 122C240-48 200 0 122 0H30v-248zM63-27c89 8 146-16 146-99s-60-101-146-95v194" id="g"/><path d="M160-131c35 5 61 23 61 61C221 17 115-2 30 0v-248c76 3 177-17 177 60 0 33-19 50-47 57zm-97-11c50-1 110 9 110-42 0-47-63-36-110-37v79zm0 115c55-2 124 14 124-45 0-56-70-42-124-44v89" id="h"/><path d="M240 0l2-218c-23 76-54 145-80 218h-23L58-218 59 0H30v-248h44l77 211c21-75 51-140 76-211h43V0h-30" id="i"/><path d="M185-189c-5-48-123-54-124 2 14 75 158 14 163 119 3 78-121 87-175 55-17-10-28-26-33-46l33-7c5 56 141 63 141-1 0-78-155-14-162-118-5-82 145-84 179-34 5 7 8 16 11 25" id="j"/><g id="a"><use transform="matrix(0.07407407407407408,0,0,0.07407407407407408,0,0)" xlink:href="#f"/><use transform="matrix(0.07407407407407408,0,0,0.07407407407407408,19.185185185185187,0)" xlink:href="#g"/><use transform="matrix(0.07407407407407408,0,0,0.07407407407407408,38.370370370370374,0)" xlink:href="#h"/><use transform="matrix(0.07407407407407408,0,0,0.07407407407407408,56.14814814814815,0)" xlink:href="#i"/><use transform="matrix(0.07407407407407408,0,0,0.07407407407407408,78.2962962962963,0)" xlink:href="#j"/></g><path d="M100-194c62-1 85 37 85 99 1 63-27 99-86 99S16-35 15-95c0-66 28-99 85-99zM99-20c44 1 53-31 53-75 0-43-8-75-51-75s-53 32-53 75 10 74 51 75" id="k"/><path d="M117-194c89-4 53 116 60 194h-32v-121c0-31-8-49-39-48C34-167 62-67 57 0H25l-1-190h30c1 10-1 24 2 32 11-22 29-35 61-36" id="l"/><path d="M177-190C167-65 218 103 67 71c-23-6-38-20-44-43l32-5c15 47 100 32 89-28v-30C133-14 115 1 83 1 29 1 15-40 15-95c0-56 16-97 71-98 29-1 48 16 59 35 1-10 0-23 2-32h30zM94-22c36 0 50-32 50-73 0-42-14-75-50-75-39 0-46 34-46 75s6 73 46 73" id="m"/><g id="b"><use transform="matrix(0.07407407407407408,0,0,0.07407407407407408,0,0)" xlink:href="#i"/><use transform="matrix(0.07407407407407408,0,0,0.07407407407407408,22.148148148148152,0)" xlink:href="#k"/><use transform="matrix(0.07407407407407408,0,0,0.07407407407407408,36.96296296296297,0)" xlink:href="#l"/><use transform="matrix(0.07407407407407408,0,0,0.07407407407407408,51.777777777777786,0)" xlink:href="#m"/><use transform="matrix(0.07407407407407408,0,0,0.07407407407407408,66.59259259259261,0)" xlink:href="#k"/><use transform="matrix(0.07407407407407408,0,0,0.07407407407407408,81.40740740740742,0)" xlink:href="#g"/><use transform="matrix(0.07407407407407408,0,0,0.07407407407407408,100.59259259259261,0)" xlink:href="#h"/></g><path d="M205 0l-28-72H64L36 0H1l101-248h38L239 0h-34zm-38-99l-47-123c-12 45-31 82-46 123h93" id="n"/><path d="M115-194c55 1 70 41 70 98S169 2 115 4C84 4 66-9 55-30l1 105H24l-1-265h31l2 30c10-21 28-34 59-34zm-8 174c40 0 45-34 45-75s-6-73-45-74c-42 0-51 32-51 76 0 43 10 73 51 73" id="o"/><path d="M24 0v-261h32V0H24" id="p"/><path d="M24-231v-30h32v30H24zM24 0v-190h32V0H24" id="q"/><path d="M96-169c-40 0-48 33-48 73s9 75 48 75c24 0 41-14 43-38l32 2c-6 37-31 61-74 61-59 0-76-41-82-99-10-93 101-131 147-64 4 7 5 14 7 22l-32 3c-4-21-16-35-41-35" id="r"/><path d="M141-36C126-15 110 5 73 4 37 3 15-17 15-53c-1-64 63-63 125-63 3-35-9-54-41-54-24 1-41 7-42 31l-33-3c5-37 33-52 76-52 45 0 72 20 72 64v82c-1 20 7 32 28 27v20c-31 9-61-2-59-35zM48-53c0 20 12 33 32 33 41-3 63-29 60-74-43 2-92-5-92 41" id="s"/><path d="M59-47c-2 24 18 29 38 22v24C64 9 27 4 27-40v-127H5v-23h24l9-43h21v43h35v23H59v120" id="t"/><g id="c"><use transform="matrix(0.08641975308641976,0,0,0.08641975308641976,0,0)" xlink:href="#n"/><use transform="matrix(0.08641975308641976,0,0,0.08641975308641976,20.740740740740744,0)" xlink:href="#o"/><use transform="matrix(0.08641975308641976,0,0,0.08641975308641976,38.0246913580247,0)" xlink:href="#o"/><use transform="matrix(0.08641975308641976,0,0,0.08641975308641976,55.308641975308646,0)" xlink:href="#p"/><use transform="matrix(0.08641975308641976,0,0,0.08641975308641976,62.13580246913581,0)" xlink:href="#q"/><use transform="matrix(0.08641975308641976,0,0,0.08641975308641976,68.96296296296298,0)" xlink:href="#r"/><use transform="matrix(0.08641975308641976,0,0,0.08641975308641976,84.51851851851853,0)" xlink:href="#s"/><use transform="matrix(0.08641975308641976,0,0,0.08641975308641976,101.80246913580248,0)" xlink:href="#t"/><use transform="matrix(0.08641975308641976,0,0,0.08641975308641976,110.44444444444446,0)" xlink:href="#q"/><use transform="matrix(0.08641975308641976,0,0,0.08641975308641976,117.27160493827162,0)" xlink:href="#k"/><use transform="matrix(0.08641975308641976,0,0,0.08641975308641976,134.55555555555557,0)" xlink:href="#l"/></g><g id="d"><use transform="matrix(0.06790123456790124,0,0,0.06790123456790124,0,0)" xlink:href="#g"/><use transform="matrix(0.06790123456790124,0,0,0.06790123456790124,17.58641975308642,0)" xlink:href="#s"/><use transform="matrix(0.06790123456790124,0,0,0.06790123456790124,31.16666666666667,0)" xlink:href="#t"/><use transform="matrix(0.06790123456790124,0,0,0.06790123456790124,37.9567901234568,0)" xlink:href="#s"/></g><path d="M101-234c-31-9-42 10-38 44h38v23H63V0H32v-167H5v-23h27c-7-52 17-82 69-68v24" id="u"/><path d="M206 0h-36l-40-164L89 0H53L-1-190h32L70-26l43-164h34l41 164 42-164h31" id="v"/><g id="e"><use transform="matrix(0.06790123456790124,0,0,0.06790123456790124,0,0)" xlink:href="#u"/><use transform="matrix(0.06790123456790124,0,0,0.06790123456790124,6.790123456790124,0)" xlink:href="#p"/><use transform="matrix(0.06790123456790124,0,0,0.06790123456790124,12.154320987654323,0)" xlink:href="#k"/><use transform="matrix(0.06790123456790124,0,0,0.06790123456790124,25.734567901234573,0)" xlink:href="#v"/></g></defs></g></svg>