<?xml version="1.0" encoding="UTF-8"?>
<!DOCTYPE svg PUBLIC "-//W3C//DTD SVG 1.1//EN" "http://www.w3.org/Graphics/SVG/1.1/DTD/svg11.dtd">
<svg version="1.1" xmlns="http://www.w3.org/2000/svg" xmlns:xlink="http://www.w3.org/1999/xlink" x="0" y="0" width="898" height="363" viewBox="0, 0, 898, 363">
  <g id="Background">
    <rect x="0" y="0" width="898" height="363" fill="#000000" fill-opacity="0"/>
  </g>
  <g id="Layer_1">
    <g>
      <g id="a">
        <path d="M57.637,163.964 C57.605,161.913 57.615,159.808 57.615,157.725 L60.665,157.725 L60.665,171.267 C60.654,172.167 60.708,173.089 60.751,173.827 L57.8,173.827 C57.702,173.285 57.648,172.558 57.637,171.918 L57.594,171.918 C56.91,173.296 55.999,174.044 54.165,174.044 C51.007,174.044 49.987,171.245 49.987,167.979 C49.987,165.342 50.704,163.291 52.385,162.347 C52.928,162.043 53.557,161.892 54.284,161.892 C56.042,161.913 57.03,162.738 57.637,163.964 z M56.878,171.104 C57.865,169.878 57.887,166.091 56.899,164.767 C56.4,164.105 55.326,163.682 54.469,164.192 C53.427,164.8 53.178,166.254 53.167,167.979 C53.167,169.313 53.351,170.301 53.731,170.963 C54.23,171.852 55.142,172.211 56.14,171.766 C56.411,171.635 56.639,171.408 56.878,171.104" fill="#0C7CBA" id="v"/>
        <path d="M66.925,157.725 C66.936,159.787 66.914,161.935 66.925,163.931 C67.511,162.673 68.607,161.859 70.365,161.859 C73.62,161.859 74.553,164.648 74.553,167.968 C74.553,170.583 73.761,172.623 72.101,173.589 C71.569,173.892 70.951,174.044 70.267,174.044 C68.51,174.044 67.544,173.165 66.947,171.918 L66.904,171.918 C66.893,172.558 66.849,173.296 66.741,173.827 L63.789,173.827 C63.833,173.1 63.887,172.167 63.876,171.267 L63.876,157.725 L66.925,157.725 z M67.641,164.756 C66.632,165.993 66.643,169.813 67.652,171.104 C68.032,171.592 68.488,171.961 69.193,171.961 C69.888,171.961 70.408,171.625 70.799,170.963 C71.548,169.715 71.537,166.188 70.777,164.876 C70.354,164.138 69.356,163.671 68.379,164.116 C68.108,164.235 67.88,164.463 67.641,164.756" fill="#0C7CBA" id="w"/>
        <path d="M80.706,173.827 L80.706,170.518 L83.842,170.518 L83.842,173.827 L80.706,173.827" fill="#0C7CBA" id="x"/>
        <path d="M94.052,174.044 C91.372,174.044 90.406,172.211 90.406,169.541 L90.406,162.087 L93.455,162.087 L93.455,168.673 C93.499,170.279 93.792,171.766 95.322,171.766 C96.971,171.766 97.568,170.138 97.568,168.38 L97.568,162.087 L100.617,162.087 C100.66,165.982 100.519,170.073 100.704,173.827 L97.796,173.827 C97.72,173.144 97.676,172.243 97.665,171.494 L97.611,171.494 C96.928,173.003 95.929,174.044 94.052,174.044" fill="#0C7CBA" id="y"/>
        <path d="M109.026,163.888 C107.811,163.91 106.856,164.04 106.856,165.093 C106.856,166.069 107.822,166.188 108.679,166.405 C111.218,167.035 114.256,167.241 114.256,170.399 C114.256,173.784 110.426,174.413 106.986,173.882 C105.174,173.599 104.024,172.612 103.59,170.898 L106.27,170.496 C106.53,171.701 107.496,172.07 109.004,172.026 C110.241,171.994 111.457,171.896 111.457,170.681 C111.457,169.585 110.339,169.455 109.373,169.227 C106.932,168.641 104.056,168.402 104.056,165.418 C104.056,162.738 106.237,161.859 109.026,161.859 C111.684,161.859 113.507,162.814 113.985,165.027 L111.283,165.31 C111.109,164.246 110.285,163.866 109.026,163.888" fill="#0C7CBA" id="z"/>
        <path d="M127.689,170.854 C126.875,172.786 125.204,174.044 122.405,174.044 C118.586,174.044 116.698,171.777 116.698,167.903 C116.698,164.018 118.705,161.87 122.448,161.87 C126.333,161.87 127.83,164.593 127.863,168.543 L119.898,168.543 C119.953,170.496 120.636,172.004 122.557,172.004 C123.664,172.004 124.575,171.516 124.814,170.605 z M124.911,166.633 C124.846,164.713 123.523,163.302 121.494,163.953 C120.474,164.279 119.964,165.266 119.92,166.633 L124.911,166.633" fill="#0C7CBA" id="A"/>
        <path d="M138.442,161.87 C139.202,161.87 140.048,161.946 140.677,162.054 L140.677,164.626 C139.484,164.441 137.78,164.224 136.782,164.789 C135.447,165.537 134.699,167.035 134.699,169.075 L134.699,173.827 L131.661,173.827 C131.552,169.845 132.008,165.266 131.096,162.087 L134.037,162.087 C134.243,162.836 134.427,163.704 134.536,164.561 L134.579,164.561 C135.144,162.922 136.218,161.848 138.442,161.87" fill="#0C7CBA" id="B"/>
        <path d="M149.033,163.888 C147.817,163.91 146.862,164.04 146.862,165.093 C146.862,166.069 147.828,166.188 148.685,166.405 C151.224,167.035 154.263,167.241 154.263,170.399 C154.263,173.784 150.432,174.413 146.993,173.882 C145.181,173.599 144.03,172.612 143.596,170.898 L146.276,170.496 C146.537,171.701 147.503,172.07 149.011,172.026 C150.248,171.994 151.463,171.896 151.463,170.681 C151.463,169.585 150.345,169.455 149.38,169.227 C146.938,168.641 144.063,168.402 144.063,165.418 C144.063,162.738 146.244,161.859 149.033,161.859 C151.691,161.859 153.514,162.814 153.991,165.027 L151.29,165.31 C151.116,164.246 150.291,163.866 149.033,163.888" fill="#0C7CBA" id="z"/>
        <path d="M160.719,173.827 L160.719,170.518 L163.855,170.518 L163.855,173.827 L160.719,173.827" fill="#0C7CBA" id="x"/>
        <path d="M178.112,159.494 C176.702,159.494 175.997,160.069 176.04,161.468 L176.04,162.087 L180.847,162.087 L180.847,164.149 L176.04,164.149 L176.04,173.827 L173.002,173.827 L173.002,164.149 L170.224,164.149 L170.224,162.087 L173.002,162.087 L173.002,161.186 C173.056,158.506 174.76,157.41 177.581,157.399 C178.883,157.389 180.098,157.54 181.129,157.703 L181.129,159.7 C180.217,159.591 179.143,159.494 178.112,159.494" fill="#0C7CBA" id="C"/>
        <path d="M190.905,171.766 L194.736,171.766 L194.736,173.827 L183.57,173.827 L183.57,171.766 L187.856,171.766 L187.856,164.149 L184.71,164.149 L184.71,162.087 L190.905,162.087 L190.905,171.766 z M187.856,159.971 L187.856,157.725 L190.905,157.725 L190.905,159.971 L187.856,159.971" fill="#0C7CBA" id="D"/>
        <path d="M203.959,161.859 C206.639,161.859 207.605,163.671 207.605,166.373 L207.605,173.827 L204.566,173.827 L204.566,167.111 C204.534,165.331 204.306,164.149 202.711,164.149 C200.931,164.149 200.226,165.689 200.226,167.534 L200.226,173.827 L197.177,173.827 C197.134,169.932 197.275,165.841 197.09,162.087 L199.998,162.087 C200.074,162.77 200.128,163.671 200.139,164.42 L200.183,164.42 C200.91,162.846 201.919,161.859 203.959,161.859" fill="#0C7CBA" id="E"/>
        <path d="M217.663,163.964 C217.631,161.913 217.642,159.808 217.642,157.725 L220.691,157.725 L220.691,171.267 C220.68,172.167 220.734,173.089 220.777,173.827 L217.826,173.827 C217.728,173.285 217.674,172.558 217.663,171.918 L217.62,171.918 C216.936,173.296 216.025,174.044 214.191,174.044 C211.033,174.044 210.013,171.245 210.013,167.979 C210.013,165.342 210.73,163.291 212.411,162.347 C212.954,162.043 213.583,161.892 214.31,161.892 C216.068,161.913 217.056,162.738 217.663,163.964 z M216.904,171.104 C217.891,169.878 217.913,166.091 216.925,164.767 C216.426,164.105 215.352,163.682 214.495,164.192 C213.453,164.8 213.204,166.254 213.193,167.979 C213.193,169.313 213.377,170.301 213.757,170.963 C214.256,171.852 215.168,172.211 216.166,171.766 C216.437,171.635 216.665,171.408 216.904,171.104" fill="#0C7CBA" id="v"/>
        <path d="M229.035,168.076 C229.035,172.645 230.413,175.672 232.301,178.439 L229.252,178.439 C227.353,175.704 226.029,172.634 226.029,168.066 C226.029,163.497 227.353,160.448 229.252,157.725 L232.301,157.725 C230.413,160.481 229.035,163.519 229.035,168.076" fill="#0C7CBA" id="F"/>
      </g>
      <path d="M256.4,174.099 C256.411,175.553 256.867,176.366 258.266,176.366 L260.306,176.366 L260.306,178.439 L256.758,178.439 C254.707,178.385 253.557,177.267 253.557,175.195 L253.557,171.635 C253.568,169.954 252.711,169.162 251.072,169.151 L251.072,167.035 C252.7,166.991 253.557,166.221 253.557,164.528 L253.557,160.969 C253.536,158.908 254.74,157.725 256.758,157.725 L260.306,157.725 L260.306,159.787 L258.266,159.787 C256.867,159.797 256.411,160.611 256.4,162.054 L256.4,165.32 C256.346,166.883 255.445,167.729 254.154,168.055 L254.154,168.098 C255.434,168.435 256.4,169.259 256.4,170.833 L256.4,174.099" fill="#0C7CBA" id="G"/>
      <g id="c">
        <path d="M282.388,163.888 C281.172,163.91 280.217,164.04 280.217,165.093 C280.217,166.069 281.183,166.188 282.04,166.405 C284.579,167.035 287.618,167.241 287.618,170.399 C287.618,173.784 283.787,174.413 280.348,173.882 C278.536,173.599 277.385,172.612 276.951,170.898 L279.632,170.496 C279.892,171.701 280.858,172.07 282.366,172.026 C283.603,171.994 284.818,171.896 284.818,170.681 C284.818,169.585 283.701,169.454 282.735,169.227 C280.293,168.641 277.418,168.402 277.418,165.418 C277.418,162.738 279.599,161.859 282.388,161.859 C285.046,161.859 286.869,162.814 287.346,165.027 L284.645,165.31 C284.471,164.246 283.646,163.866 282.388,163.888" fill="#0C7CBA" id="z"/>
        <path d="M301.007,169.921 C300.541,172.504 298.761,174.044 295.745,174.044 C291.98,174.044 290.168,171.777 290.168,168.022 C290.168,164.192 291.99,161.87 295.788,161.87 C298.718,161.87 300.4,163.346 300.921,165.787 L297.85,165.939 C297.676,164.789 297.036,163.953 295.723,163.964 C294.909,163.964 294.312,164.3 293.933,164.973 C293.553,165.646 293.368,166.622 293.368,167.903 C293.368,170.605 294.171,171.961 295.767,171.961 C297.069,171.961 297.806,171.071 297.947,169.78" fill="#0C7CBA" id="H"/>
        <path d="M308.993,161.87 C312.911,161.87 314.647,164.062 314.647,167.946 C314.647,171.787 312.791,174.044 308.928,174.044 C305.12,174.044 303.308,171.744 303.308,167.946 C303.308,164.138 305.142,161.87 308.993,161.87 z M308.896,171.961 C311.066,171.939 311.457,170.171 311.457,167.946 C311.457,165.787 311.164,163.964 309.037,163.964 C306.921,163.964 306.509,165.548 306.509,167.946 C306.509,169.346 306.704,170.366 307.105,171.006 C307.507,171.646 308.104,171.961 308.896,171.961" fill="#0C7CBA" id="I"/>
        <path d="M325.139,161.87 C325.899,161.87 326.745,161.946 327.375,162.054 L327.375,164.626 C326.181,164.441 324.477,164.224 323.479,164.789 C322.145,165.537 321.396,167.035 321.396,169.075 L321.396,173.827 L318.358,173.827 C318.249,169.845 318.705,165.266 317.793,162.087 L320.734,162.087 C320.94,162.836 321.125,163.704 321.233,164.561 L321.276,164.561 C321.841,162.922 322.915,161.848 325.139,161.87" fill="#0C7CBA" id="B"/>
        <path d="M341.057,170.854 C340.243,172.786 338.572,174.044 335.773,174.044 C331.954,174.044 330.066,171.777 330.066,167.903 C330.066,164.018 332.073,161.87 335.816,161.87 C339.701,161.87 341.198,164.593 341.231,168.543 L333.266,168.543 C333.321,170.496 334.004,172.004 335.925,172.004 C337.032,172.004 337.943,171.516 338.182,170.605 z M338.279,166.633 C338.214,164.713 336.891,163.302 334.862,163.953 C333.842,164.279 333.332,165.266 333.288,166.633 L338.279,166.633" fill="#0C7CBA" id="A"/>
        <path d="M347.416,173.827 L347.416,170.518 L350.552,170.518 L350.552,173.827 L347.416,173.827 z M347.416,165.364 L347.416,162.054 L350.552,162.054 L350.552,165.364 L347.416,165.364" fill="#0C7CBA" id="J"/>
      </g>
      <g id="d">
        <path d="M376.42,174.099 C376.431,175.553 376.886,176.366 378.286,176.366 L380.326,176.366 L380.326,178.439 L376.778,178.439 C374.727,178.385 373.577,177.267 373.577,175.195 L373.577,171.635 C373.588,169.954 372.73,169.162 371.092,169.151 L371.092,167.035 C372.72,166.991 373.577,166.221 373.577,164.528 L373.577,160.969 C373.555,158.908 374.76,157.725 376.778,157.725 L380.326,157.725 L380.326,159.787 L378.286,159.787 C376.886,159.797 376.431,160.611 376.42,162.054 L376.42,165.32 C376.365,166.883 375.465,167.729 374.174,168.055 L374.174,168.098 C375.454,168.435 376.42,169.259 376.42,170.833 L376.42,174.099" fill="#0C7CBA" id="G"/>
        <path d="M389.603,164.941 C392.283,165.527 394.822,166.297 394.822,169.563 C394.822,172.601 392.631,173.632 389.603,173.784 L389.603,175.683 L388.421,175.683 L388.421,173.816 C385.285,173.73 383.581,172.308 383.071,169.606 L385.849,169.096 C386.066,170.572 386.836,171.451 388.421,171.57 L388.421,167.328 C385.892,166.774 383.592,165.939 383.592,162.857 C383.592,160.047 385.686,159.146 388.421,158.994 L388.421,157.54 L389.603,157.54 L389.603,158.994 C392.511,159.049 393.965,160.383 394.497,162.792 L391.632,163.215 C391.415,161.968 390.743,161.273 389.603,161.121 L389.603,164.941 z M388.421,161.078 C387.249,161.175 386.457,161.62 386.435,162.814 C386.413,164.127 387.433,164.344 388.421,164.68 L388.421,161.078 z M389.603,171.57 C390.992,171.462 391.98,171.006 392.001,169.606 C392.023,168.109 390.753,167.935 389.603,167.588 L389.603,171.57" fill="#0C7CBA" id="K"/>
        <path d="M404.273,171.766 L408.104,171.766 L408.104,173.827 L396.938,173.827 L396.938,171.766 L401.224,171.766 L401.224,159.787 L398.078,159.787 L398.078,157.725 L404.273,157.725 L404.273,171.766" fill="#0C7CBA" id="L"/>
        <path d="M416.708,173.968 C413.996,173.968 412.52,172.894 412.531,170.182 L412.552,164.149 L410.74,164.149 L410.74,162.087 L412.704,162.087 L413.659,159.027 L415.569,159.027 L415.569,162.087 L419.746,162.087 L419.746,164.149 L415.569,164.149 L415.569,169.899 C415.46,171.31 416.057,171.918 417.457,171.896 C418.444,171.874 419.367,171.777 420.224,171.603 L420.224,173.621 C419.117,173.816 418.032,173.968 416.708,173.968" fill="#0C7CBA" id="M"/>
      </g>
      <path d="M440.764,173.827 L440.764,170.518 L443.9,170.518 L443.9,173.827 L440.764,173.827 z M440.764,165.364 L440.764,162.054 L443.9,162.054 L443.9,165.364 L440.764,165.364" fill="#0C7CBA" id="J"/>
      <g id="f">
        <path d="M470.886,166.329 C472.958,166.612 474.543,167.545 474.543,169.747 C474.543,172.851 472.221,174.077 469.009,174.077 C465.688,174.077 463.768,172.688 463.345,169.834 L466.448,169.563 C466.643,170.908 467.435,171.625 468.998,171.603 C470.43,171.581 471.418,170.974 471.418,169.563 C471.418,167.653 469.345,167.588 467.316,167.621 L467.316,165.158 C469.226,165.212 471.06,165.06 471.06,163.248 C471.06,162 470.17,161.392 468.889,161.392 C467.609,161.392 466.741,161.989 466.654,163.226 L463.605,163.009 C463.974,160.275 465.916,158.962 468.944,158.962 C471.374,158.962 473.078,159.765 473.837,161.392 C474.054,161.859 474.152,162.358 474.152,162.868 C474.152,164.984 472.741,165.895 470.886,166.286 L470.886,166.329" fill="#0C7CBA" id="N"/>
        <path d="M477.049,166.503 C477.049,162.109 478.145,158.962 482.388,158.962 C486.533,158.962 487.618,162.185 487.618,166.503 C487.618,170.019 486.76,172.59 484.417,173.643 C483.777,173.936 483.071,174.044 482.301,174.044 C478.199,174.044 477.049,170.789 477.049,166.503 z M483.342,171.397 C484.894,170.355 484.655,166.503 484.438,164.018 C484.308,162.521 483.939,161.349 482.366,161.349 C480.749,161.349 480.369,162.51 480.207,164.04 C480,165.993 479.979,169.129 480.597,170.529 C480.912,171.256 481.379,171.625 482.323,171.646 C482.724,171.646 483.071,171.581 483.342,171.397" fill="#0C7CBA" id="O"/>
      </g>
      <path d="M511.088,175.195 C511.044,177.267 509.948,178.439 507.887,178.439 L504.339,178.439 L504.339,176.366 L506.378,176.366 C507.778,176.356 508.234,175.553 508.245,174.099 L508.245,170.833 C508.299,169.259 509.211,168.435 510.491,168.098 L510.491,168.055 C509.2,167.729 508.245,166.883 508.245,165.32 L508.245,162.054 C508.234,160.611 507.778,159.787 506.378,159.787 L504.339,159.787 L504.339,157.725 L507.887,157.725 C509.905,157.725 511.088,158.908 511.088,160.969 L511.088,164.528 C511.077,166.221 511.945,166.991 513.573,167.035 L513.573,169.151 C511.934,169.162 511.088,169.954 511.088,171.635 L511.088,175.195" fill="#0C7CBA" id="P"/>
      <g id="h">
        <path d="M537.759,175.195 C537.715,177.267 536.619,178.439 534.558,178.439 L531.01,178.439 L531.01,176.366 L533.049,176.366 C534.449,176.356 534.905,175.553 534.916,174.099 L534.916,170.833 C534.97,169.259 535.881,168.435 537.162,168.098 L537.162,168.055 C535.871,167.729 534.916,166.883 534.916,165.32 L534.916,162.054 C534.905,160.611 534.449,159.787 533.049,159.787 L531.01,159.787 L531.01,157.725 L534.558,157.725 C536.576,157.725 537.759,158.908 537.759,160.969 L537.759,164.528 C537.748,166.221 538.616,166.991 540.243,167.035 L540.243,169.151 C538.605,169.162 537.759,169.954 537.759,171.635 L537.759,175.195" fill="#0C7CBA" id="P"/>
        <path d="M545.148,177.766 L546.982,170.583 L550.4,170.583 L547.025,177.766 L545.148,177.766" fill="#0C7CBA" id="Q"/>
      </g>
      <g id="i">
        <path d="M576.452,174.099 C576.463,175.553 576.919,176.366 578.319,176.366 L580.359,176.366 L580.359,178.439 L576.81,178.439 C574.76,178.385 573.609,177.267 573.609,175.195 L573.609,171.635 C573.62,169.954 572.763,169.162 571.125,169.151 L571.125,167.035 C572.752,166.991 573.609,166.221 573.609,164.528 L573.609,160.969 C573.588,158.908 574.792,157.725 576.81,157.725 L580.359,157.725 L580.359,159.787 L578.319,159.787 C576.919,159.797 576.463,160.611 576.452,162.054 L576.452,165.32 C576.398,166.883 575.497,167.729 574.206,168.055 L574.206,168.098 C575.487,168.435 576.452,169.259 576.452,170.833 L576.452,174.099" fill="#0C7CBA" id="G"/>
        <path d="M589.104,163.888 C587.889,163.91 586.934,164.04 586.934,165.092 C586.934,166.069 587.9,166.188 588.757,166.405 C591.296,167.035 594.334,167.241 594.334,170.398 C594.334,173.784 590.504,174.413 587.064,173.882 C585.252,173.599 584.102,172.612 583.668,170.898 L586.348,170.496 C586.609,171.701 587.574,172.07 589.083,172.026 C590.32,171.994 591.535,171.896 591.535,170.681 C591.535,169.585 590.417,169.454 589.451,169.227 C587.01,168.641 584.135,168.402 584.135,165.418 C584.135,162.738 586.316,161.859 589.104,161.859 C591.763,161.859 593.586,162.814 594.063,165.027 L591.361,165.31 C591.188,164.246 590.363,163.866 589.104,163.888" fill="#0C7CBA" id="z"/>
        <path d="M607.724,169.921 C607.257,172.504 605.478,174.044 602.461,174.044 C598.696,174.044 596.884,171.777 596.884,168.022 C596.884,164.192 598.707,161.87 602.505,161.87 C605.435,161.87 607.116,163.346 607.637,165.787 L604.566,165.939 C604.393,164.789 603.753,163.953 602.44,163.964 C601.626,163.964 601.029,164.3 600.649,164.973 C600.27,165.646 600.085,166.622 600.085,167.903 C600.085,170.605 600.888,171.961 602.483,171.961 C603.785,171.961 604.523,171.071 604.664,169.78" fill="#0C7CBA" id="H"/>
        <path d="M615.71,161.87 C619.627,161.87 621.363,164.062 621.363,167.946 C621.363,171.787 619.508,174.044 615.645,174.044 C611.836,174.044 610.024,171.744 610.024,167.946 C610.024,164.138 611.858,161.87 615.71,161.87 z M615.612,171.961 C617.783,171.939 618.173,170.171 618.173,167.946 C618.173,165.787 617.88,163.964 615.753,163.964 C613.638,163.964 613.225,165.548 613.225,167.946 C613.225,169.346 613.421,170.366 613.822,171.006 C614.224,171.646 614.82,171.961 615.612,171.961" fill="#0C7CBA" id="I"/>
        <path d="M631.856,161.87 C632.615,161.87 633.462,161.946 634.091,162.054 L634.091,164.626 C632.898,164.441 631.194,164.224 630.196,164.789 C628.861,165.537 628.112,167.035 628.112,169.075 L628.112,173.827 L625.074,173.827 C624.966,169.845 625.421,165.266 624.51,162.087 L627.451,162.087 C627.657,162.836 627.841,163.704 627.95,164.561 L627.993,164.561 C628.557,162.922 629.632,161.848 631.856,161.87" fill="#0C7CBA" id="B"/>
        <path d="M647.774,170.854 C646.96,172.786 645.289,174.044 642.49,174.044 C638.67,174.044 636.782,171.777 636.782,167.903 C636.782,164.018 638.79,161.87 642.533,161.87 C646.418,161.87 647.915,164.593 647.948,168.543 L639.983,168.543 C640.037,170.496 640.721,172.004 642.642,172.004 C643.748,172.004 644.66,171.516 644.898,170.605 z M644.996,166.633 C644.931,164.713 643.607,163.302 641.578,163.953 C640.558,164.279 640.048,165.266 640.005,166.633 L644.996,166.633" fill="#0C7CBA" id="A"/>
        <path d="M654.132,173.827 L654.132,170.518 L657.268,170.518 L657.268,173.827 L654.132,173.827 z M654.132,165.364 L654.132,162.054 L657.268,162.054 L657.268,165.364 L654.132,165.364" fill="#0C7CBA" id="J"/>
      </g>
      <g id="j">
        <path d="M677.201,161.675 C679.447,161.631 680.879,160.665 681.704,159.19 L684.59,159.19 L684.59,171.56 L688.095,171.56 L688.095,173.827 L677.32,173.827 L677.32,171.56 L681.541,171.56 L681.541,161.892 C680.782,163.205 679.198,163.921 677.201,163.997 L677.201,161.675" fill="#0C7CBA" id="R"/>
        <path d="M691.839,177.766 L693.672,170.583 L697.09,170.583 L693.716,177.766 L691.839,177.766" fill="#0C7CBA" id="Q"/>
      </g>
      <g id="k">
        <path d="M715.656,176.214 L715.656,175.173 L729.089,175.173 L729.089,176.214 L715.656,176.214" fill="#0C7CBA" id="S"/>
        <path d="M737.661,171.766 L741.491,171.766 L741.491,173.827 L730.326,173.827 L730.326,171.766 L734.612,171.766 L734.612,164.149 L731.465,164.149 L731.465,162.087 L737.661,162.087 L737.661,171.766 z M734.612,159.971 L734.612,157.725 L737.661,157.725 L737.661,159.971 L734.612,159.971" fill="#0C7CBA" id="D"/>
        <path d="M751.083,163.964 C751.051,161.913 751.062,159.808 751.062,157.725 L754.111,157.725 L754.111,171.267 C754.1,172.167 754.154,173.09 754.197,173.827 L751.246,173.827 C751.148,173.285 751.094,172.558 751.083,171.918 L751.04,171.918 C750.356,173.296 749.445,174.044 747.611,174.044 C744.453,174.044 743.434,171.245 743.434,167.979 C743.434,165.342 744.15,163.291 745.832,162.347 C746.374,162.044 747.003,161.892 747.73,161.892 C749.488,161.913 750.476,162.738 751.083,163.964 z M750.324,171.104 C751.311,169.878 751.333,166.091 750.345,164.767 C749.846,164.105 748.772,163.682 747.915,164.192 C746.873,164.8 746.624,166.254 746.613,167.979 C746.613,169.313 746.797,170.301 747.177,170.963 C747.676,171.853 748.588,172.211 749.586,171.766 C749.857,171.636 750.085,171.408 750.324,171.104" fill="#0C7CBA" id="v"/>
        <path d="M760.816,173.827 L760.816,170.518 L763.952,170.518 L763.952,173.827 L760.816,173.827 z M760.816,165.364 L760.816,162.054 L763.952,162.054 L763.952,165.364 L760.816,165.364" fill="#0C7CBA" id="J"/>
      </g>
      <path d="M783.766,166.503 C783.766,162.109 784.862,158.962 789.104,158.962 C793.249,158.962 794.334,162.185 794.334,166.503 C794.334,170.019 793.477,172.59 791.133,173.643 C790.493,173.936 789.788,174.044 789.017,174.044 C784.916,174.044 783.766,170.789 783.766,166.503 z M790.059,171.397 C791.611,170.355 791.372,166.503 791.155,164.018 C791.025,162.521 790.656,161.349 789.082,161.349 C787.466,161.349 787.086,162.51 786.923,164.04 C786.717,165.993 786.695,169.129 787.314,170.529 C787.628,171.256 788.095,171.625 789.039,171.646 C789.44,171.646 789.788,171.581 790.059,171.397" fill="#0C7CBA" id="O"/>
      <path d="M817.804,175.195 C817.761,177.267 816.665,178.439 814.603,178.439 L811.055,178.439 L811.055,176.366 L813.095,176.366 C814.495,176.356 814.951,175.553 814.961,174.099 L814.961,170.833 C815.016,169.259 815.927,168.435 817.207,168.098 L817.207,168.055 C815.916,167.729 814.961,166.883 814.961,165.32 L814.961,162.054 C814.951,160.611 814.495,159.787 813.095,159.787 L811.055,159.787 L811.055,157.725 L814.603,157.725 C816.622,157.725 817.804,158.908 817.804,160.969 L817.804,164.528 C817.793,166.221 818.661,166.991 820.289,167.035 L820.289,169.151 C818.651,169.162 817.804,169.954 817.804,171.635 L817.804,175.195" fill="#0C7CBA" id="P"/>
      <path d="M845.332,168.066 C845.332,172.634 844.009,175.704 842.11,178.439 L839.061,178.439 C840.949,175.672 842.327,172.645 842.327,168.076 C842.327,163.519 840.949,160.481 839.061,157.725 L842.11,157.725 C844.009,160.448 845.332,163.497 845.332,168.066" fill="#0C7CBA" id="T"/>
      <path d="M49,9.165 L189,9.165 L189,69.165 L49,69.165 z" fill-opacity="0" stroke="#0C7CBA" stroke-width="2"/>
      <g id="n">
        <path d="M69.586,35.893 C69.586,39.165 70.883,41.264 74.093,41.326 C76.377,41.387 77.426,39.968 78.105,38.424 L80.883,39.474 C79.833,42.066 77.735,43.856 74.093,43.856 C69.031,43.856 66.685,41.017 66.377,35.893 C65.944,29.103 73.105,26.264 78.475,29.288 C79.586,29.906 80.265,31.079 80.698,32.375 L77.858,33.116 C77.364,31.572 76.006,30.585 74.031,30.585 C70.821,30.585 69.648,32.684 69.586,35.893" fill="#0C7CBA" id="U"/>
        <path d="M88.228,31.634 C92.179,31.634 94.154,33.856 94.154,37.745 C94.154,41.696 91.994,43.856 88.167,43.856 C84.401,43.856 82.302,41.634 82.302,37.745 C82.302,33.918 84.401,31.634 88.228,31.634 z M88.167,41.758 C90.327,41.758 90.944,40.029 90.944,37.745 C90.944,35.276 90.327,33.733 88.29,33.733 C86.191,33.733 85.512,35.338 85.512,37.745 C85.512,39.967 86.13,41.758 88.167,41.758" fill="#0C7CBA" id="V"/>
        <path d="M96.5,43.61 L96.5,27.498 L99.586,27.498 L99.586,43.61 L96.5,43.61" fill="#0C7CBA" id="W"/>
        <path d="M102.673,43.61 L102.673,27.498 L105.759,27.498 L105.759,43.61 L102.673,43.61" fill="#0C7CBA" id="W"/>
        <path d="M118.722,40.646 C117.92,42.498 116.438,43.918 113.66,43.856 C109.957,43.733 108.167,41.572 108.167,37.684 C108.167,33.795 110.018,31.634 113.722,31.634 C117.549,31.634 118.846,34.412 118.907,38.301 L111.377,38.301 C111.377,40.214 111.87,41.696 113.784,41.758 C114.895,41.758 115.636,41.326 115.883,40.4 z M115.944,36.387 C116.253,33.548 112.426,32.498 111.623,35.091 C111.5,35.461 111.377,35.893 111.377,36.387 L115.944,36.387" fill="#0C7CBA" id="X"/>
        <path d="M131.377,39.721 C130.944,42.313 129.031,43.856 126.068,43.856 C122.426,43.856 120.883,41.511 120.512,37.807 C119.772,31.017 130.018,29.35 131.253,35.585 L128.228,35.708 C128.105,34.535 127.302,33.733 126.068,33.733 C124.216,33.733 123.907,35.461 123.722,37.684 C123.352,42.251 127.735,43.054 128.29,39.535" fill="#0C7CBA" id="Y"/>
        <path d="M139.093,43.424 C136.87,44.289 133.722,43.856 133.722,40.832 L133.722,33.918 L132.241,33.918 L132.241,31.881 L133.907,31.881 L134.833,29.103 L136.747,29.103 L136.747,31.881 L138.969,31.881 L138.969,33.918 L136.747,33.918 L136.747,40.029 C136.685,41.449 137.735,41.943 139.093,41.572 L139.093,43.424" fill="#0C7CBA" id="Z"/>
        <path d="M140.883,29.782 L140.883,27.498 L143.969,27.498 L143.969,29.782 L140.883,29.782 z M140.883,43.61 L140.883,31.881 L143.969,31.881 L143.969,43.61 L140.883,43.61" fill="#0C7CBA" id="aa"/>
        <path d="M152.302,31.634 C156.253,31.634 158.228,33.856 158.228,37.745 C158.228,41.696 156.068,43.856 152.241,43.856 C148.475,43.856 146.377,41.634 146.377,37.745 C146.377,33.918 148.475,31.634 152.302,31.634 z M152.241,41.758 C154.401,41.758 155.019,40.029 155.019,37.745 C155.019,35.276 154.401,33.733 152.364,33.733 C150.265,33.733 149.586,35.338 149.586,37.745 C149.586,39.967 150.204,41.758 152.241,41.758" fill="#0C7CBA" id="V"/>
        <path d="M167.364,31.634 C172.735,31.572 170.944,38.609 171.253,43.609 L168.167,43.609 C167.735,40.091 169.586,33.918 166.068,33.918 C162.426,33.918 163.969,39.906 163.66,43.609 L160.574,43.609 L160.512,31.881 L163.414,31.881 C163.537,32.622 163.352,33.609 163.599,34.227 C164.34,32.622 165.327,31.696 167.364,31.634" fill="#0C7CBA" id="ab"/>
      </g>
      <path d="M119,69.165 L119,137.165" fill-opacity="0" stroke="#0C7CBA" stroke-width="2"/>
      <path d="M119,137.165 L114.36,122.895 L123.64,122.895 z" fill="#0C7CBA"/>
      <path d="M120.05,137.165 L117.95,137.165 L113,121.895 L125,121.895 z M115.75,123.895 L119,133.925 L122.26,123.895 z" fill="#0C7CBA"/>
      <path d="M289,7.495 L449,7.495 L449,70.835 L289,70.835 z" fill-opacity="0" stroke="#00624F" stroke-width="2"/>
      <g id="o">
        <path d="M303.661,28.449 C308.599,28.449 311.377,31.227 311.377,36.227 C311.377,40.548 309.34,43.079 305.698,43.881 C306.068,45.609 307.796,46.227 309.895,45.795 L309.833,48.017 C305.944,49.066 302.982,47.338 302.426,44.066 C298.167,43.572 295.944,40.856 295.944,36.227 C295.944,31.227 298.661,28.449 303.661,28.449 z M303.599,41.659 C306.809,41.659 308.105,39.498 308.105,36.227 C308.105,33.14 306.809,30.918 303.661,30.918 C300.451,30.918 299.154,33.079 299.154,36.227 C299.154,39.375 300.512,41.659 303.599,41.659" fill="#498A44" id="ac"/>
        <path d="M317.549,44.19 C312.179,44.251 313.969,37.214 313.661,32.214 L316.747,32.214 C317.179,35.733 315.327,41.474 318.784,41.906 C322.488,41.597 320.944,35.918 321.253,32.214 L324.34,32.214 L324.401,43.943 L321.5,43.943 C321.377,43.202 321.562,42.214 321.315,41.597 C320.574,43.14 319.586,44.19 317.549,44.19" fill="#498A44" id="ad"/>
        <path d="M337.241,40.98 C336.438,42.832 334.957,44.251 332.179,44.19 C328.475,44.066 326.685,41.906 326.685,38.017 C326.685,34.128 328.537,31.967 332.241,31.967 C336.068,31.967 337.364,34.745 337.426,38.634 L329.895,38.634 C329.895,40.548 330.389,42.029 332.302,42.091 C333.414,42.091 334.154,41.659 334.401,40.733 z M334.463,36.721 C334.772,33.881 330.944,32.832 330.142,35.424 C330.019,35.795 329.895,36.227 329.895,36.721 L334.463,36.721" fill="#498A44" id="ae"/>
        <path d="M346.5,34.683 C344.093,33.943 342.796,35.486 342.796,38.202 L342.796,43.943 L339.71,43.943 L339.648,32.214 L342.549,32.214 C342.673,33.017 342.488,34.004 342.735,34.683 C343.105,32.955 344.401,31.412 346.5,32.153 L346.5,34.683" fill="#498A44" id="af"/>
        <path d="M354.401,44.56 C353.475,47.214 351.747,49.251 347.981,48.387 L347.981,46.227 C350.142,46.721 351.253,45.548 351.623,43.819 L346.994,32.214 L350.204,32.214 L353.167,41.35 C353.907,38.14 354.895,35.177 355.883,32.214 L359.031,32.214" fill="#498A44" id="ag"/>
      </g>
      <g id="p">
        <path d="M369.463,36.227 C369.463,39.498 370.759,41.597 373.969,41.659 C376.253,41.721 377.302,40.301 377.981,38.758 L380.759,39.807 C379.71,42.4 377.611,44.19 373.969,44.19 C368.907,44.19 366.562,41.35 366.253,36.227 C365.821,29.437 372.981,26.597 378.352,29.622 C379.463,30.239 380.142,31.412 380.574,32.708 L377.735,33.449 C377.241,31.906 375.883,30.918 373.907,30.918 C370.698,30.918 369.525,33.017 369.463,36.227" fill="#498A44" id="ah"/>
        <path d="M389.648,34.683 C387.241,33.943 385.944,35.486 385.944,38.202 L385.944,43.943 L382.858,43.943 L382.796,32.214 L385.698,32.214 C385.821,33.017 385.636,34.004 385.883,34.683 C386.253,32.955 387.549,31.412 389.648,32.153 L389.648,34.683" fill="#498A44" id="af"/>
        <path d="M391.5,30.116 L391.5,27.832 L394.586,27.832 L394.586,30.116 L391.5,30.116 z M391.5,43.943 L391.5,32.214 L394.586,32.214 L394.586,43.943 L391.5,43.943" fill="#498A44" id="ai"/>
        <path d="M403.228,43.758 C401.006,44.622 397.858,44.19 397.858,41.165 L397.858,34.251 L396.377,34.251 L396.377,32.214 L398.043,32.214 L398.969,29.437 L400.883,29.437 L400.883,32.214 L403.105,32.214 L403.105,34.251 L400.883,34.251 L400.883,40.363 C400.821,41.782 401.87,42.276 403.228,41.906 L403.228,43.758" fill="#498A44" id="aj"/>
        <path d="M414.895,40.98 C414.093,42.832 412.611,44.251 409.833,44.19 C406.13,44.066 404.34,41.906 404.34,38.017 C404.34,34.128 406.191,31.967 409.895,31.967 C413.722,31.967 415.019,34.745 415.08,38.634 L407.549,38.634 C407.549,40.548 408.043,42.029 409.957,42.091 C411.068,42.091 411.809,41.659 412.056,40.733 z M412.117,36.721 C412.426,33.881 408.599,32.832 407.796,35.424 C407.673,35.795 407.549,36.227 407.549,36.721 L412.117,36.721" fill="#498A44" id="ae"/>
        <path d="M424.154,34.683 C421.747,33.943 420.451,35.486 420.451,38.202 L420.451,43.943 L417.364,43.943 L417.302,32.214 L420.204,32.214 C420.327,33.017 420.142,34.004 420.389,34.683 C420.759,32.955 422.056,31.412 424.154,32.153 L424.154,34.683" fill="#498A44" id="af"/>
        <path d="M426.006,30.116 L426.006,27.832 L429.093,27.832 L429.093,30.116 L426.006,30.116 z M426.006,43.943 L426.006,32.214 L429.093,32.214 L429.093,43.943 L426.006,43.943" fill="#498A44" id="ai"/>
        <path d="M438.846,41.844 C437.858,43.017 436.994,44.251 434.895,44.19 C432.611,44.128 431.315,42.955 431.315,40.609 C431.253,36.906 434.71,36.721 438.475,36.844 C438.537,35.239 438.29,33.943 436.747,33.943 C435.636,34.005 435.142,34.498 435.019,35.609 L431.809,35.486 C432.241,33.14 434.031,31.906 436.87,31.967 C439.71,32.029 441.438,33.325 441.5,36.165 L441.562,41.227 C441.5,42.091 442.302,42.338 443.105,42.153 L443.105,43.819 C441.253,44.313 438.722,44.128 438.846,41.844 z M435.883,42.029 C437.673,42.029 438.537,40.548 438.475,38.511 C436.5,38.511 434.401,38.325 434.463,40.363 C434.463,41.412 434.957,42.029 435.883,42.029" fill="#498A44" id="ak"/>
      </g>
      <path d="M249,127.165 L549,127.165 L549,207.165 L249,207.165 z" fill="#A3D977" fill-opacity="0.2"/>
      <path d="M369,70.835 L369,127.165" fill-opacity="0" stroke="#498A44" stroke-width="2"/>
      <path d="M369,127.165 L364.36,112.895 L373.64,112.895 z" fill="#498A44"/>
      <path d="M370.05,127.165 L367.95,127.165 L363,111.895 L375,111.895 z M365.75,113.895 L369,123.925 L372.26,113.895 z" fill="#498A44"/>
      <path d="M609,5.835 L769,5.835 L769,69.165 L609,69.165 z" fill-opacity="0" stroke="#EF8D22" stroke-width="2"/>
      <g id="q">
        <path d="M636.284,26.967 C642.025,27.029 649,25.98 648.877,31.844 C648.815,36.474 644.617,37.276 639.494,36.906 L639.494,42.276 L636.284,42.276 L636.284,26.967 z M639.494,34.437 C642.395,34.437 645.667,34.869 645.667,31.906 C645.667,29.005 642.333,29.498 639.494,29.498 L639.494,34.437" fill="#EF8D22" id="al"/>
        <path d="M657.951,33.017 C655.543,32.276 654.247,33.819 654.247,36.535 L654.247,42.276 L651.16,42.276 L651.099,30.548 L654,30.548 C654.123,31.35 653.938,32.338 654.185,33.017 C654.555,31.288 655.852,29.745 657.951,30.486 L657.951,33.017" fill="#EF8D22" id="am"/>
        <path d="M665.049,30.301 C669,30.301 670.975,32.523 670.975,36.412 C670.975,40.363 668.815,42.523 664.988,42.523 C661.222,42.523 659.123,40.301 659.123,36.412 C659.123,32.585 661.222,30.301 665.049,30.301 z M664.988,40.424 C667.148,40.424 667.765,38.696 667.765,36.412 C667.765,33.943 667.148,32.4 665.111,32.4 C663.012,32.4 662.333,34.005 662.333,36.412 C662.333,38.634 662.951,40.424 664.988,40.424" fill="#EF8D22" id="an"/>
        <path d="M673.321,28.449 L673.321,26.165 L676.407,26.165 L676.407,28.449 L673.321,28.449 z M676.407,43.634 C676.531,46.412 674.309,47.276 671.407,46.782 L671.407,44.622 C672.766,44.93 673.321,44.313 673.321,42.955 L673.321,30.548 L676.407,30.548 L676.407,43.634" fill="#EF8D22" id="ao"/>
        <path d="M689.37,39.313 C688.568,41.165 687.086,42.585 684.309,42.523 C680.605,42.4 678.815,40.239 678.815,36.35 C678.815,32.461 680.667,30.301 684.37,30.301 C688.198,30.301 689.494,33.079 689.556,36.967 L682.025,36.967 C682.025,38.881 682.519,40.362 684.432,40.424 C685.543,40.424 686.284,39.992 686.531,39.066 z M686.593,35.054 C686.901,32.214 683.074,31.165 682.272,33.758 C682.148,34.128 682.025,34.56 682.025,35.054 L686.593,35.054" fill="#EF8D22" id="ap"/>
        <path d="M702.025,38.387 C701.593,40.98 699.679,42.523 696.716,42.523 C693.074,42.523 691.531,40.177 691.16,36.474 C690.42,29.684 700.667,28.017 701.901,34.251 L698.877,34.375 C698.753,33.202 697.951,32.4 696.716,32.4 C694.864,32.4 694.556,34.128 694.37,36.35 C694,40.918 698.383,41.721 698.938,38.202" fill="#EF8D22" id="aq"/>
        <path d="M709.741,42.091 C707.519,42.955 704.37,42.523 704.37,39.498 L704.37,32.585 L702.889,32.585 L702.889,30.548 L704.556,30.548 L705.482,27.77 L707.395,27.77 L707.395,30.548 L709.617,30.548 L709.617,32.585 L707.395,32.585 L707.395,38.696 C707.333,40.116 708.383,40.609 709.741,40.239 L709.741,42.091" fill="#EF8D22" id="ar"/>
        <path d="M711.531,28.449 L711.531,26.165 L714.617,26.165 L714.617,28.449 L711.531,28.449 z M711.531,42.276 L711.531,30.548 L714.617,30.548 L714.617,42.276 L711.531,42.276" fill="#EF8D22" id="as"/>
        <path d="M722.951,30.301 C726.901,30.301 728.877,32.523 728.877,36.412 C728.877,40.363 726.716,42.523 722.889,42.523 C719.123,42.523 717.025,40.301 717.025,36.412 C717.025,32.585 719.123,30.301 722.951,30.301 z M722.889,40.424 C725.049,40.424 725.667,38.696 725.667,36.412 C725.667,33.943 725.049,32.4 723.012,32.4 C720.914,32.4 720.235,34.005 720.235,36.412 C720.235,38.634 720.852,40.424 722.889,40.424" fill="#EF8D22" id="an"/>
        <path d="M738.012,30.301 C743.383,30.239 741.593,37.276 741.901,42.276 L738.815,42.276 C738.383,38.758 740.235,32.585 736.716,32.585 C733.074,32.585 734.617,38.572 734.309,42.276 L731.222,42.276 L731.16,30.548 L734.062,30.548 C734.185,31.288 734,32.276 734.247,32.893 C734.988,31.288 735.975,30.363 738.012,30.301" fill="#EF8D22" id="at"/>
      </g>
      <path d="M569,127.165 L829,127.165 L829,207.165 L569,207.165 z" fill="#EF8D22" fill-opacity="0.2"/>
      <path d="M689,69.165 L689,127.165" fill-opacity="0" stroke="#EF8D22" stroke-width="2"/>
      <path d="M689,127.165 L684.36,112.895 L693.64,112.895 z" fill="#EF8D22"/>
      <path d="M690.05,127.165 L687.95,127.165 L683,111.895 L695,111.895 z M685.75,113.895 L689,123.925 L692.26,113.895 z" fill="#EF8D22"/>
      <g>
        <path d="M209,297.165 L69,297.165 L69,337.165 L209,337.165" fill="#0C7CBA"/>
        <path d="M209,297.165 L69,297.165 L69,337.165 L209,337.165" fill-opacity="0" stroke="#000000" stroke-width="2"/>
      </g>
      <g id="r">
        <path d="M107.5,312.315 C104.15,312.465 105.6,317.565 105.3,320.765 L103.75,320.765 L103.75,314.715 C103.75,313.265 103.5,312.215 102,312.315 C98.7,312.515 100.1,317.515 99.8,320.765 L98.25,320.765 L98.2,311.265 L99.7,311.265 C99.75,311.765 99.65,312.465 99.8,312.865 C100.3,310.665 104.75,310.365 105.15,312.865 C105.7,311.815 106.5,311.115 108.05,311.065 C112.3,310.965 110.4,317.015 110.8,320.765 L109.25,320.765 L109.25,314.715 C109.25,313.265 109,312.265 107.5,312.315" fill="#FFFFFF" id="au"/>
        <path d="M113.15,309.215 L113.15,307.715 L114.75,307.715 L114.75,309.215 L113.15,309.215 z M113.15,320.765 L113.15,311.265 L114.75,311.265 L114.75,320.765 L113.15,320.765" fill="#FFFFFF" id="av"/>
        <path d="M121.75,311.065 C126.2,310.865 124.4,316.865 124.75,320.765 L123.15,320.765 L123.15,314.715 C123.15,313.165 122.75,312.265 121.2,312.315 C117.6,312.415 119,317.415 118.75,320.765 L117.15,320.765 L117.1,311.265 L118.6,311.265 C118.65,311.765 118.55,312.465 118.7,312.865 C119.25,311.765 120.15,311.115 121.75,311.065" fill="#FFFFFF" id="aw"/>
      </g>
      <g>
        <path d="M349,297.165 L209,297.165 L209,337.165 L349,337.165" fill="#0C7CBA"/>
        <path d="M349,297.165 L209,297.165 L209,337.165 L349,337.165" fill-opacity="0" stroke="#000000" stroke-width="2"/>
      </g>
      <g id="s">
        <path d="M275.3,314.415 C276.95,314.715 278.2,315.415 278.2,317.365 C278.2,321.765 271.25,321.965 270,318.815 C269.85,318.415 269.75,318.015 269.7,317.565 L271.3,317.415 C271.6,318.765 272.35,319.615 274,319.615 C275.6,319.615 276.6,318.865 276.6,317.315 C276.6,315.415 274.8,315.015 272.65,315.165 L272.65,313.765 C274.6,313.815 276.25,313.565 276.25,311.665 C276.25,310.315 275.4,309.515 273.95,309.515 C272.55,309.515 271.6,310.265 271.5,311.565 L269.9,311.415 C270.2,309.315 271.65,308.265 273.95,308.215 C276.35,308.165 277.9,309.265 277.9,311.465 C277.9,313.265 276.85,314.065 275.3,314.415" fill="#FFFFFF" id="ax"/>
        <path d="M284.05,308.215 C287.45,308.215 288.3,310.965 288.3,314.565 C288.3,318.165 287.3,320.965 284,320.965 C280.65,320.965 279.7,318.165 279.7,314.565 C279.7,310.915 280.55,308.215 284.05,308.215 z M284,319.665 C286.35,319.665 286.7,317.215 286.7,314.565 C286.7,311.915 286.5,309.465 284.05,309.465 C281.5,309.465 281.3,311.865 281.3,314.565 C281.3,317.215 281.55,319.665 284,319.665" fill="#FFFFFF" id="ay"/>
      </g>
      <g>
        <path d="M649,297.165 L349,297.165 L349,337.165 L649,337.165" fill="#FFFFFF"/>
        <path d="M649,297.165 L349,297.165 L349,337.165 L649,337.165" fill-opacity="0" stroke="#000000" stroke-width="2"/>
      </g>
      <g id="t">
        <path d="M492.2,320.765 C492.35,315.865 494.6,312.815 496.6,309.715 L489.9,309.715 L489.9,308.365 L498.1,308.365 L498.1,309.665 C496.15,312.915 493.9,315.715 493.85,320.765 L492.2,320.765" fill="#000000" id="az"/>
        <path d="M501.7,313.665 C504.1,311.915 508.55,313.265 508.25,316.715 C508.8,321.665 500.55,322.415 499.7,318.015 L501.3,317.815 C501.65,318.965 502.4,319.665 503.9,319.665 C505.65,319.615 506.45,318.565 506.6,316.765 C506.8,314.015 502.95,313.515 501.65,315.065 L500.1,315.065 L500.5,308.365 L507.55,308.365 L507.55,309.715 L501.95,309.715" fill="#000000" id="aA"/>
      </g>
      <g>
        <path d="M769,297.165 L589,297.165 L589,337.165 L769,337.165" fill="#FFFFFF"/>
        <path d="M769,297.165 L589,297.165 L589,337.165 L769,337.165" fill-opacity="0" stroke="#000000" stroke-width="2"/>
      </g>
      <g id="u">
        <path d="M709.55,312.315 C706.2,312.465 707.65,317.565 707.35,320.765 L705.8,320.765 L705.8,314.715 C705.8,313.265 705.55,312.215 704.05,312.315 C700.75,312.515 702.15,317.515 701.85,320.765 L700.3,320.765 L700.25,311.265 L701.75,311.265 C701.8,311.765 701.7,312.465 701.85,312.865 C702.35,310.665 706.8,310.365 707.2,312.865 C707.75,311.815 708.55,311.115 710.1,311.065 C714.35,310.965 712.45,317.015 712.85,320.765 L711.3,320.765 L711.3,314.715 C711.3,313.265 711.05,312.265 709.55,312.315" fill="#000000" id="aB"/>
        <path d="M721.05,318.965 C720.3,320.015 719.5,321.015 717.65,320.965 C715.85,320.915 714.75,319.915 714.75,318.115 C714.7,314.915 717.9,314.965 721,314.965 C721.15,313.215 720.55,312.265 718.95,312.265 C717.75,312.315 716.9,312.615 716.85,313.815 L715.2,313.665 C715.45,311.815 716.85,311.065 719,311.065 C721.25,311.065 722.6,312.065 722.6,314.265 L722.6,318.365 C722.55,319.365 722.95,319.965 724,319.715 L724,320.715 C722.45,321.165 720.95,320.615 721.05,318.965 z M716.4,318.115 C716.4,319.115 717,319.765 718,319.765 C720.05,319.615 721.15,318.315 721,316.065 C718.85,316.165 716.4,315.815 716.4,318.115" fill="#000000" id="aC"/>
        <path d="M731.05,320.765 L728.5,316.865 L725.9,320.765 L724.2,320.765 L727.6,315.865 L724.35,311.265 L726.1,311.265 L728.5,314.965 L730.85,311.265 L732.6,311.265 L729.4,315.865 L732.8,320.765 L731.05,320.765" fill="#000000" id="aD"/>
      </g>
      <path d="M69,277.165 L349,277.165 L349,357.165 L69,357.165 z" fill="#A3D977" fill-opacity="0.2"/>
      <path d="M249,205.165 L74.33,205.165 L74.33,277.165" fill-opacity="0" stroke="#498A44" stroke-width="2"/>
      <path d="M74.33,277.165 L69.7,262.895 L78.97,262.895 z" fill="#498A44"/>
      <path d="M75.38,277.165 L73.28,277.165 L68.32,261.895 L80.35,261.895 z M71.08,263.895 L74.33,273.925 L77.59,263.895 z" fill="#498A44"/>
      <path d="M543.67,207.165 L543.67,242.165 L346.33,242.165 L346.33,277.165" fill-opacity="0" stroke="#498A44" stroke-width="2"/>
      <path d="M346.33,277.165 L341.7,262.895 L350.97,262.895 z" fill="#498A44"/>
      <path d="M347.38,277.165 L345.28,277.165 L340.32,261.895 L352.35,261.895 z M343.08,263.895 L346.33,273.925 L349.59,263.895 z" fill="#498A44"/>
    </g>
  </g>
</svg>
