<?xml version="1.0" encoding="UTF-8"?>
<!DOCTYPE svg PUBLIC "-//W3C//DTD SVG 1.1//EN" "http://www.w3.org/Graphics/SVG/1.1/DTD/svg11.dtd">
<svg xmlns="http://www.w3.org/2000/svg" xmlns:xlink="http://www.w3.org/1999/xlink" version="1.1" class="" pagealignment="none" x="0px" y="0px" width="553px" height="397px" viewBox="0 0 553 397" enable-background="new 0 0 553 397" xml:space="preserve"><defs></defs><g type="LAYER" name="workspace" id="workspace" locked="true"></g><g type="LAYER" name="Layer 01" id="Layer 01"><path transform="matrix(1 0 0 1 39.16929133858267 118.99999999999991)" width="473.18999999999994" height="247.37007874015745" stroke-width="1.000001081620182" stroke-miterlimit="3" stroke="#05720D" fill="#FFFFFF" d="M0,2.842170943040401e-14 L473.18999999999994,2.842170943040401e-14 L473.18999999999994,247.37007874015748 L0,247.37007874015748 L0,2.842170943040401e-14 Z "></path><text type="textBox" transform="matrix(0.9999999999999998 0 0 1 226.64573161553753 131.18110236220463)" width="100.2598425196849" height="25" stroke-miterlimit="3" stroke="rgb(5, 114, 13)" fill="#000000" font-family="Arial" font-size="22" text-align="left" text-anchor="start"><tspan x="0" y="22">MongoDB</tspan></text><path transform="matrix(1 0 0 1 58.846456692913364 286.7244094488189)" width="434.7716535433071" height="57.15748031496065" stroke-miterlimit="3" stroke="none" fill="#CCCCCC" d="M0,0 L434.7716535433071,0 L434.7716535433071,57.15748031496065 L0,57.15748031496065 L0,0 Z "></path><text type="textBox" transform="matrix(0.9999999999999996 0 0 1 147.86220472440874 301.7372284688953)" width="260.4881889763788" height="25" stroke-miterlimit="3" stroke="none" fill="#000000" font-family="Arial" font-size="22" text-align="left" text-anchor="start"><tspan x="0" y="22">Database Storage Engine</tspan></text><path transform="matrix(1 0 0 1 121.6259842519685 26.23622047244094)" width="314.8346456692914" height="39.35433070866143" stroke-width="1.000001081620182" stroke-miterlimit="3" stroke="#000000" fill="#FFFFFF" d="M0,0 L314.8346456692914,0 L314.8346456692914,39.35433070866143 L0,39.35433070866143 L0,0 Z "></path><text type="textBox" transform="matrix(0.9999999999999998 0 0 1 121.62985174263545 32.79527559055118)" width="314.8307781786243" height="25" stroke-width="1.000001081620182" stroke-miterlimit="3" stroke="none" fill="#000000" font-family="Arial" font-size="22" text-align="center" text-anchor="middle"><tspan x="157.41538908931216" y="22">Client Application</tspan></text><path transform="matrix(1 0 0 1 62.12598425196893 174.28346456692913)" width="434.77165354330725" height="95.57480314960631" stroke-width="1.2931091011747555" stroke-miterlimit="3" stroke="none" fill="#CCCCCC" d="M0,2.842170943040401e-14 L434.77165354330725,2.842170943040401e-14 L434.77165354330725,95.57480314960634 L0,95.57480314960634 L0,2.842170943040401e-14 Z "></path><text type="textBox" transform="matrix(0.9999999999999998 0 0 1 77.58661417322833 196.77165354330708)" width="407.59842519685066" height="50" stroke-width="1.2931091011747555" stroke-miterlimit="3" stroke="none" fill="#000000" font-family="Arial" font-size="22" text-align="center" text-anchor="middle"><tspan x="203.79921259842533" y="22">Internal components: Security, Query</tspan><tspan x="203.79921259842533" y="47">Parser, etc.</tspan></text></g></svg>