<?xml version="1.0" encoding="UTF-8"?>
<!DOCTYPE svg PUBLIC "-//W3C//DTD SVG 1.1//EN" "http://www.w3.org/Graphics/SVG/1.1/DTD/svg11.dtd">
<svg version="1.1" xmlns="http://www.w3.org/2000/svg" xmlns:xlink="http://www.w3.org/1999/xlink" x="0" y="0" width="640" height="480" viewBox="0, 0, 640, 480">
  <g id="Layer_1">
    <g id="svg_3">
      <path d="M401,17 L629,17 L629,428 L401,428 z" fill="#FFFFFF"/>
      <path d="M401,17 L629,17 L629,428 L401,428 z" fill-opacity="0" stroke="#000000" stroke-width="1.5"/>
    </g>
    <path d="M417,209.5 L617.5,209.5 L617.5,262.25 L417,262.25 z" fill="#72B647" id="svg_29"/>
    <path d="M194,392 L343.528,392 L343.528,419 L194,419 z" fill="#2A86C0" id="svg_1"/>
    <path d="M16,171.5 L122,171.5 L122,256.5 L16,256.5 z" fill="#72B647" id="svg_8"/>
    <path d="M17,273.5 L123,273.5 L123,358.5 L17,358.5 z" fill="#72B647" id="svg_9"/>
    <path d="M15,71 L121,71 L121,156 L15,156 z" fill="#72B647" id="svg_6"/>
    <g id="svg_30">
      <path d="M125.145,239.769 L202.106,239.769 L212.752,224.385 L230.178,254 L249.539,224 L266.479,253.615 L284.873,224.385 L303.266,253.808 L313.429,239.385 L390.874,239.385 M118.725,238.049 L125.122,238.049 L125.122,241.299 L118.725,241.299 L118.725,238.049 z M390.88,237.827 L397.275,237.827 L397.275,241.078 L390.88,241.078 L390.88,237.827 z" fill="#000000"/>
      <path d="M125.145,239.769 L202.106,239.769 L212.752,224.385 L230.178,254 L249.539,224 L266.479,253.615 L284.873,224.385 L303.266,253.808 L313.429,239.385 L390.874,239.385 M118.725,238.049 L125.122,238.049 L125.122,241.299 L118.725,241.299 L118.725,238.049 z M390.88,237.827 L397.275,237.827 L397.275,241.078 L390.88,241.078 L390.88,237.827 z" fill-opacity="0" stroke="#000000" stroke-width="1.5"/>
    </g>
    <g id="svg_28">
      <path d="M123.81,137.801 L200.771,137.801 L211.418,122.417 L228.843,152.032 L248.205,122.032 L265.145,151.647 L283.538,122.417 L301.931,151.84 L312.094,137.417 L389.539,137.417 M117.39,136.081 L123.788,136.081 L123.788,139.331 L117.39,139.331 L117.39,136.081 z M389.545,135.859 L395.941,135.859 L395.941,139.11 L389.545,139.11 L389.545,135.859 z" fill="#000000"/>
      <path d="M123.81,137.801 L200.771,137.801 L211.418,122.417 L228.843,152.032 L248.205,122.032 L265.145,151.647 L283.538,122.417 L301.931,151.84 L312.094,137.417 L389.539,137.417 M117.39,136.081 L123.788,136.081 L123.788,139.331 L117.39,139.331 L117.39,136.081 z M389.545,135.859 L395.941,135.859 L395.941,139.11 L389.545,139.11 L389.545,135.859 z" fill-opacity="0" stroke="#000000" stroke-width="1.5"/>
    </g>
    <path d="M20,105 L116,105 L116,150.5 L20,150.5 z" fill="#FFFFFF" id="svg_17"/>
    <path d="M194,430.5 L343.528,430.5 L343.528,457.5 L194,457.5 z" fill="#2A86C0" id="svg_23"/>
    <g id="svg_31">
      <path d="M125.145,341.769 L202.106,341.769 L212.752,326.385 L230.178,356 L249.539,326 L266.479,355.615 L284.873,326.385 L303.266,355.808 L313.429,341.385 L390.874,341.385 M118.725,340.049 L125.122,340.049 L125.122,343.299 L118.725,343.299 L118.725,340.049 z M390.88,339.827 L397.275,339.827 L397.275,343.078 L390.88,343.078 L390.88,339.827 z" fill="#000000"/>
      <path d="M125.145,341.769 L202.106,341.769 L212.752,326.385 L230.178,356 L249.539,326 L266.479,355.615 L284.873,326.385 L303.266,355.808 L313.429,341.385 L390.874,341.385 M118.725,340.049 L125.122,340.049 L125.122,343.299 L118.725,343.299 L118.725,340.049 z M390.88,339.827 L397.275,339.827 L397.275,343.078 L390.88,343.078 L390.88,339.827 z" fill-opacity="0" stroke="#000000" stroke-width="1.5"/>
    </g>
    <g id="svg_19">
      <path d="M416.75,84.75 L617,84.75 L617,195.75 L416.75,195.75 z" fill="#FFFFFF"/>
      <path d="M416.75,84.75 L617,84.75 L617,195.75 L416.75,195.75 z" fill-opacity="0" stroke="#000000" stroke-width="1.5"/>
    </g>
    <path d="M416.25,276.625 L616.75,276.625 L616.75,329.375 L416.25,329.375 z" fill="#72B647" id="svg_32"/>
    <path d="M121.25,108.75 L191.75,405" fill-opacity="0" stroke="#000000" stroke-width="1.5" id="svg_39"/>
    <path d="M343.528,405 L399.5,403.5" fill-opacity="0" stroke="#000000" stroke-width="1.5" id="svg_40"/>
    <path d="M191.75,405.75 L122.75,208.5" fill-opacity="0" stroke="#000000" stroke-width="1.5" id="svg_41"/>
    <path d="M191.75,405.75 L124.25,307.5" fill-opacity="0" stroke="#000000" stroke-width="1.5" id="svg_42"/>
    <path d="M343.528,443.25 L400.25,404.25" fill-opacity="0" stroke="#000000" stroke-width="1.5" id="svg_43"/>
    <path d="M193.25,443.25 L71,360.75" fill-opacity="0" stroke="#000000" stroke-width="1.5" id="svg_44"/>
    <text transform="matrix(1, 0, 0, 1, 68, 127.75)">
      <tspan x="-45" y="-4.5" font-family="Inconsolata" font-size="18" fill="#000000">Automation</tspan>
      <tspan x="-22.5" y="15.5" font-family="Inconsolata" font-size="18" fill="#000000">Agent</tspan>
    </text>
    <g>
      <text transform="matrix(1, 0, 0, 1, 69, 91.5)">
        <tspan x="-9" y="7.5" font-family="Inconsolata" font-size="36" fill="#FFFFFF">P</tspan>
      </text>
      <path d="M62.113,76.569 L62.113,99 L64.722,99 L64.722,89.089 L69.134,89.089 C70.531,89.089 71.876,89.055 73.239,88.362 C75.313,87.308 76.404,85.159 76.404,82.885 C76.404,80.617 75.311,78.422 73.192,77.33 C71.786,76.606 70.394,76.569 68.948,76.569 z M64.722,78.93 L68.948,78.93 C69.885,78.93 70.786,78.953 71.701,79.412 C73.099,80.113 73.825,81.54 73.825,83 C73.825,84.431 73.131,85.767 71.832,86.425 C70.967,86.862 70.112,86.883 69.227,86.883 L64.691,86.883 z" fill-opacity="0" stroke="#FFFFFF" stroke-width="1"/>
    </g>
    <path d="M21,205.5 L117,205.5 L117,251 L21,251 z" fill="#FFFFFF" id="svg_17"/>
    <text transform="matrix(1, 0, 0, 1, 69, 228.25)">
      <tspan x="-45" y="-4.5" font-family="Inconsolata" font-size="18" fill="#000000">Automation</tspan>
      <tspan x="-22.5" y="15.5" font-family="Inconsolata" font-size="18" fill="#000000">Agent</tspan>
    </text>
    <g>
      <text transform="matrix(1, 0, 0, 1, 69, 192)">
        <tspan x="-9" y="7.5" font-family="Inconsolata" font-size="36" fill="#FFFFFF">S</tspan>
      </text>
      <path d="M75.658,179.741 C74.139,177.936 71.882,176.944 69.437,176.944 C65.386,176.944 62.604,179.624 62.604,182.692 C62.604,184 63.117,185.686 64.987,187.067 C67.065,188.601 70.303,189.378 71.998,190.44 C73.469,191.362 73.88,192.534 73.88,193.537 C73.88,195.489 72.238,197.606 68.982,197.606 C66.519,197.606 64.623,196.402 63.62,195.132 C63.507,194.989 63.517,194.898 63.519,194.75 C63.52,194.69 63.527,194.492 63.355,194.405 L61.864,196.983 C63.628,198.905 66.141,199.875 68.909,199.875 C74.368,199.875 76.385,196.216 76.385,193.393 C76.385,192.219 76.046,190.653 74.642,189.33 C72.691,187.493 69.531,186.856 67.478,185.655 C65.601,184.558 65.186,183.227 65.186,182.31 C65.186,180.59 66.669,179.022 69.237,179.022 C71.327,179.022 72.933,179.977 73.802,181.244 C73.898,181.383 73.879,181.458 73.884,181.59 C73.891,181.789 73.995,181.861 74.074,181.884 z" fill-opacity="0" stroke="#FFFFFF" stroke-width="1"/>
    </g>
    <path d="M22,307.5 L118,307.5 L118,353 L22,353 z" fill="#FFFFFF" id="svg_17"/>
    <text transform="matrix(1, 0, 0, 1, 70, 330.25)">
      <tspan x="-45" y="-4.5" font-family="Inconsolata" font-size="18" fill="#000000">Automation</tspan>
      <tspan x="-22.5" y="15.5" font-family="Inconsolata" font-size="18" fill="#000000">Agent</tspan>
    </text>
    <g>
      <text transform="matrix(1, 0, 0, 1, 69, 294)">
        <tspan x="-9" y="7.5" font-family="Inconsolata" font-size="36" fill="#FFFFFF">S</tspan>
      </text>
      <path d="M75.658,281.741 C74.139,279.936 71.882,278.944 69.437,278.944 C65.386,278.944 62.603,281.624 62.603,284.692 C62.603,286 63.117,287.686 64.987,289.067 C67.065,290.601 70.303,291.378 71.998,292.44 C73.469,293.362 73.88,294.534 73.88,295.537 C73.88,297.489 72.238,299.606 68.982,299.606 C66.519,299.606 64.623,298.402 63.62,297.132 C63.507,296.989 63.517,296.898 63.519,296.75 C63.52,296.69 63.527,296.492 63.355,296.405 L61.864,298.983 C63.628,300.905 66.14,301.875 68.909,301.875 C74.368,301.875 76.385,298.216 76.385,295.393 C76.385,294.219 76.046,292.653 74.642,291.33 C72.691,289.493 69.531,288.856 67.478,287.655 C65.601,286.558 65.186,285.227 65.186,284.31 C65.186,282.59 66.669,281.022 69.237,281.022 C71.327,281.022 72.933,281.977 73.802,283.244 C73.898,283.383 73.879,283.458 73.884,283.59 C73.891,283.789 73.995,283.861 74.074,283.884 z" fill-opacity="0" stroke="#FFFFFF" stroke-width="1"/>
    </g>
    <text transform="matrix(1, 0, 0, 1, 269, 405)">
      <tspan x="-72" y="5.5" font-family="Inconsolata" font-size="18" fill="#FFFFFF">Monitoring Agent</tspan>
    </text>
    <text transform="matrix(1, 0, 0, 1, 273.278, 444)">
      <tspan x="-54" y="5" font-family="Inconsolata" font-size="18" fill="#FFFFFF">Backup Agent</tspan>
    </text>
    <text transform="matrix(1, 0, 0, 1, 515, 46)">
      <tspan x="-99" y="11.5" font-family="Inconsolata" font-size="36" fill="#000000">Ops Manager</tspan>
    </text>
    <text transform="matrix(1, 0, 0, 1, 517.25, 138.75)">
      <tspan x="-48" y="7.5" font-family="Inconsolata" font-size="24" fill="#000000">Internal</tspan>
    </text>
    <g>
      <text transform="matrix(1, 0, 0, 1, 515, 235.875)">
        <tspan x="-84" y="7.5" font-family="Inconsolata" font-size="24" fill="#FFFFFF">Application DB</tspan>
      </text>
      <path d="M431.352,243.396 L433.009,243.396 L434.459,239.005 L439.202,239.005 L440.859,243.375 L442.599,243.375 L436.82,228.152 L436.634,228.152 z M438.829,237.7 L434.79,237.7 L436.717,232.004 z M444.429,232.418 L444.45,247.372 L446.21,247.372 L446.21,241.925 C446.942,243.009 448.169,243.668 449.501,243.668 C451.743,243.668 454.102,241.789 454.102,237.768 C454.102,233.899 451.81,232.17 449.653,232.17 C448.245,232.17 446.935,232.898 446.19,234.096 L446.19,232.418 z M449.019,233.642 C449.981,233.642 452.304,234.145 452.304,238.125 C452.304,241.583 450.035,242.136 449.008,242.136 C447.968,242.136 446.934,241.621 446.501,240.623 C446.18,239.884 446.187,238.98 446.187,237.392 C446.187,236.467 446.235,235.801 446.477,235.231 C446.894,234.246 447.914,233.642 449.019,233.642 z M456.429,232.418 L456.45,247.372 L458.21,247.372 L458.21,241.925 C458.942,243.009 460.169,243.668 461.501,243.668 C463.743,243.668 466.102,241.789 466.102,237.768 C466.102,233.899 463.81,232.17 461.653,232.17 C460.245,232.17 458.935,232.898 458.19,234.096 L458.19,232.418 z M461.019,233.642 C461.981,233.642 464.304,234.145 464.304,238.125 C464.304,241.583 462.035,242.136 461.008,242.136 C459.968,242.136 458.934,241.621 458.501,240.623 C458.18,239.884 458.187,238.98 458.187,237.392 C458.187,236.467 458.235,235.801 458.477,235.231 C458.894,234.246 459.914,233.642 461.019,233.642 z M469.03,227.427 L469.03,228.814 L472.137,228.814 L472.137,241.987 L468.885,241.987 L468.885,243.375 L477.107,243.375 L477.107,241.987 L473.876,241.987 L473.876,227.427 z M481.548,232.398 L481.548,233.806 L484.199,233.806 L484.199,241.987 L481.403,241.987 L481.403,243.375 L488.507,243.375 L488.507,241.987 L485.939,241.987 L485.939,232.398 z M485.11,227.634 C484.423,227.634 483.867,228.188 483.867,228.867 C483.867,229.545 484.423,230.099 485.11,230.099 C485.797,230.099 486.353,229.545 486.353,228.866 C486.353,228.187 485.797,227.634 485.11,227.634 z M501.957,234.22 C501.093,232.955 499.62,232.19 497.857,232.19 C494.634,232.19 492.346,234.606 492.346,237.896 C492.346,241.202 494.646,243.644 497.748,243.644 C499.278,243.644 500.745,243.032 501.791,241.904 L500.797,240.745 C500.055,241.585 498.991,242.071 497.892,242.071 C495.755,242.071 494.127,240.28 494.127,237.718 C494.127,235.219 495.733,233.66 497.748,233.66 C499.62,233.66 500.52,234.967 500.583,235.095 C500.675,235.281 500.545,235.506 500.735,235.649 z M505.175,233.702 L506.024,234.8 C506.922,233.86 508.156,233.578 509.169,233.578 C510.472,233.578 511.116,234.125 511.425,234.633 C511.79,235.233 511.782,235.938 511.782,236.519 L511.782,236.913 L511.43,236.913 C509.815,236.913 508.086,236.896 506.691,237.409 C504.962,238.044 504.177,239.326 504.177,240.541 C504.177,242.15 505.575,243.644 507.866,243.644 C509.212,243.644 510.606,243.154 511.803,242.174 L511.803,243.375 L513.439,243.375 L513.439,236.581 C513.439,235.683 513.407,234.834 512.901,233.99 C512.181,232.791 510.79,232.169 509.088,232.169 C507.609,232.169 506.199,232.644 505.175,233.702 z M511.844,238.238 L511.844,238.963 C511.844,239.531 511.839,240.242 511.1,241.029 C510.701,241.452 509.653,242.323 508.217,242.323 C506.763,242.323 505.914,241.405 505.914,240.424 C505.914,239.628 506.473,238.733 507.847,238.404 C508.843,238.167 510.311,238.238 511.45,238.238 z M519.515,229.477 L519.308,232.418 L516.698,232.418 L516.678,233.827 L519.246,233.827 C519.093,235.704 519.018,237.57 519.018,239.432 C519.018,240.416 519.027,241.518 519.665,242.417 C520.185,243.149 521.042,243.585 522.162,243.585 C523.467,243.585 524.739,243.039 525.667,242.36 L525.128,240.993 C524.198,241.685 523.347,241.994 522.672,241.994 C521.854,241.994 521.003,241.541 520.827,240.224 C520.815,240.128 520.757,239.706 520.757,238.117 C520.757,236.684 520.826,235.252 520.965,233.827 L524.569,233.827 L524.569,232.398 L520.986,232.398 C520.986,232.398 521.151,230.423 521.264,229.815 C521.312,229.558 521.484,229.41 521.4,229.167 z M529.548,232.398 L529.548,233.806 L532.199,233.806 L532.199,241.987 L529.403,241.987 L529.403,243.375 L536.507,243.375 L536.507,241.987 L533.939,241.987 L533.939,232.398 z M533.11,227.634 C532.423,227.634 531.867,228.188 531.867,228.867 C531.867,229.545 532.423,230.099 533.11,230.099 C533.797,230.099 534.353,229.545 534.353,228.866 C534.353,228.187 533.797,227.634 533.11,227.634 z M550.042,237.942 C550.042,234.156 547.652,232.17 545.161,232.17 C542.366,232.17 539.971,234.59 539.971,237.978 C539.971,241.313 542.346,243.665 545.109,243.665 C547.706,243.665 550.042,241.577 550.042,237.942 z M545.043,233.638 C546.625,233.638 548.303,235.003 548.303,238.014 C548.303,240.774 546.723,242.174 545.123,242.174 C543.375,242.174 541.796,240.533 541.796,237.828 C541.796,235.14 543.366,233.638 545.043,233.638 z M552.636,243.375 L554.397,243.375 L554.397,237.058 C554.397,236.319 554.486,235.783 554.942,235.175 C555.36,234.618 556.413,233.649 557.573,233.649 C558.123,233.649 558.665,233.873 559.059,234.343 C559.653,235.052 559.658,235.993 559.658,236.768 L559.658,243.375 L561.356,243.375 L561.356,236.726 C561.356,235.87 561.35,234.966 560.96,234.084 C560.414,232.851 559.291,232.149 558.041,232.149 C556.553,232.149 555.202,233.123 554.397,234.345 L554.397,232.418 L552.636,232.418 z M576.284,228.421 L576.284,243.396 L579.495,243.396 C580.683,243.396 581.675,243.337 582.73,242.796 C584.873,241.693 586.043,239.146 586.043,235.873 C586.043,232.994 585.19,230.474 583.266,229.223 C582.18,228.516 581.103,228.421 579.784,228.421 z M577.879,229.85 L579.681,229.85 C580.623,229.85 581.569,229.904 582.495,230.671 C583.884,231.823 584.348,233.951 584.348,236.098 C584.348,238.949 583.403,240.589 582.208,241.396 C581.27,242.028 580.352,242.07 579.412,242.07 L577.879,242.07 z M588.16,228.421 L588.16,243.375 L592.385,243.375 C593.402,243.375 594.432,243.363 595.465,242.924 C597.075,242.24 597.959,240.776 597.959,239.235 C597.959,237.493 596.836,235.924 595.161,235.359 C596.502,234.812 597.377,233.508 597.377,232.074 C597.377,230.731 596.605,229.449 595.199,228.838 C594.264,228.431 593.325,228.421 592.406,228.421 z M589.817,229.85 L592.178,229.85 C592.817,229.85 593.5,229.852 594.165,230.121 C595.156,230.521 595.682,231.369 595.682,232.229 C595.682,233.083 595.169,233.906 594.228,234.313 C593.539,234.611 592.823,234.614 592.157,234.614 L589.817,234.614 z M589.817,236.022 L592.261,236.022 C593.016,236.022 593.758,236.037 594.505,236.391 C595.615,236.918 596.203,237.985 596.203,239.067 C596.203,240.136 595.634,241.136 594.601,241.602 C593.955,241.893 593.321,241.904 592.675,241.904 L589.817,241.904 z" fill-opacity="0" stroke="#FFFFFF" stroke-width="1"/>
    </g>
    <g>
      <text transform="matrix(1, 0, 0, 1, 515, 303)">
        <tspan x="-78" y="7.5" font-family="Inconsolata" font-size="24" fill="#FFFFFF">Blockstore DB</tspan>
      </text>
      <path d="M438.16,295.546 L438.16,310.5 L442.385,310.5 C443.402,310.5 444.432,310.488 445.465,310.049 C447.075,309.365 447.959,307.901 447.959,306.36 C447.959,304.618 446.836,303.049 445.161,302.484 C446.502,301.937 447.377,300.633 447.377,299.199 C447.377,297.856 446.605,296.574 445.199,295.963 C444.264,295.556 443.325,295.546 442.406,295.546 z M439.817,296.975 L442.178,296.975 C442.817,296.975 443.5,296.977 444.165,297.246 C445.156,297.646 445.682,298.494 445.682,299.354 C445.682,300.208 445.169,301.031 444.228,301.438 C443.539,301.736 442.823,301.739 442.157,301.739 L439.817,301.739 z M439.817,303.147 L442.261,303.147 C443.016,303.147 443.758,303.162 444.505,303.516 C445.615,304.043 446.203,305.11 446.203,306.192 C446.203,307.261 445.634,308.261 444.601,308.727 C443.955,309.018 443.321,309.029 442.675,309.029 L439.817,309.029 z M451.03,294.552 L451.03,295.939 L454.137,295.939 L454.137,309.112 L450.885,309.112 L450.885,310.5 L459.107,310.5 L459.107,309.112 L455.876,309.112 L455.876,294.552 z M472.042,305.067 C472.042,301.281 469.652,299.295 467.161,299.295 C464.366,299.295 461.971,301.715 461.971,305.103 C461.971,308.438 464.346,310.79 467.109,310.79 C469.706,310.79 472.042,308.702 472.042,305.067 z M467.043,300.763 C468.625,300.763 470.303,302.128 470.303,305.139 C470.303,307.899 468.723,309.299 467.123,309.299 C465.375,309.299 463.796,307.658 463.796,304.953 C463.796,302.265 465.366,300.763 467.043,300.763 z M483.957,301.345 C483.093,300.08 481.62,299.315 479.857,299.315 C476.634,299.315 474.346,301.731 474.346,305.021 C474.346,308.327 476.646,310.769 479.748,310.769 C481.278,310.769 482.745,310.157 483.791,309.029 L482.797,307.87 C482.055,308.71 480.991,309.196 479.892,309.196 C477.755,309.196 476.127,307.405 476.127,304.843 C476.127,302.344 477.733,300.785 479.748,300.785 C481.62,300.785 482.52,302.092 482.583,302.22 C482.675,302.406 482.545,302.631 482.735,302.774 z M486.595,294.552 L486.595,310.521 L488.335,310.521 L488.335,306.358 L489.784,305.011 L494.258,310.604 C494.258,310.604 495.178,310.52 496.327,310.52 C496.383,310.52 496.439,310.52 496.495,310.521 L491.11,303.955 L495.729,299.605 L495.107,299.605 C494.687,299.605 494.249,299.586 493.823,299.481 L488.335,304.576 L488.335,295.173 C488.335,295.069 488.343,295.005 488.427,294.896 C488.483,294.824 488.589,294.714 488.562,294.552 z M507.377,300.993 C506.364,299.877 504.908,299.274 503.286,299.274 C500.74,299.274 499.071,300.697 499.071,302.335 C499.071,304.249 501.147,304.947 501.742,305.162 C502.67,305.497 503.88,305.788 504.689,306.167 C505.594,306.59 505.783,307.168 505.783,307.564 C505.783,308.591 504.531,309.299 502.964,309.299 C501.085,309.299 499.881,308.166 499.534,307.772 C499.452,307.679 499.463,307.611 499.467,307.515 C499.469,307.482 499.479,307.345 499.361,307.29 L498.367,309.009 C499.654,310.206 501.33,310.749 502.995,310.749 C505.992,310.749 507.557,308.98 507.557,307.325 C507.557,306.566 507.245,305.574 505.948,304.846 C504.708,304.15 502.943,303.903 501.918,303.408 C501.022,302.975 500.832,302.443 500.832,302.075 C500.832,301.192 501.902,300.577 503.142,300.577 C504.705,300.577 505.768,301.544 506.186,302.083 C506.253,302.17 506.237,302.228 506.237,302.312 C506.236,302.456 506.319,302.495 506.362,302.505 z M513.515,296.602 L513.308,299.543 L510.698,299.543 L510.678,300.952 L513.246,300.952 C513.093,302.829 513.018,304.695 513.018,306.557 C513.018,307.541 513.027,308.643 513.665,309.542 C514.185,310.274 515.042,310.71 516.162,310.71 C517.467,310.71 518.739,310.164 519.667,309.485 L519.128,308.118 C518.198,308.81 517.347,309.119 516.672,309.119 C515.854,309.119 515.003,308.666 514.827,307.349 C514.815,307.253 514.757,306.831 514.757,305.242 C514.757,303.809 514.826,302.377 514.965,300.952 L518.569,300.952 L518.569,299.523 L514.986,299.523 C514.986,299.523 515.151,297.548 515.264,296.94 C515.312,296.683 515.484,296.535 515.4,296.292 z M532.042,305.067 C532.042,301.281 529.652,299.295 527.161,299.295 C524.366,299.295 521.971,301.715 521.971,305.103 C521.971,308.438 524.346,310.79 527.109,310.79 C529.706,310.79 532.042,308.702 532.042,305.067 z M527.043,300.763 C528.625,300.763 530.303,302.128 530.303,305.139 C530.303,307.899 528.723,309.299 527.123,309.299 C525.375,309.299 523.796,307.658 523.796,304.953 C523.796,302.265 525.366,300.763 527.043,300.763 z M535.382,299.543 L535.382,310.521 L537.122,310.521 L537.122,305.177 C537.122,304.515 537.147,303.788 537.893,302.609 C538.889,301.034 540.198,300.761 540.973,300.761 C541.896,300.761 542.476,301.189 542.783,301.582 C542.927,301.766 543.006,301.956 543.19,302.132 L543.998,300.475 C543.308,299.769 542.299,299.278 541.067,299.278 C539.466,299.278 537.84,300.088 537.122,301.656 L537.184,299.543 z M551.207,299.268 C548.589,299.268 546.166,301.141 546.166,305.144 C546.166,308.797 548.453,310.751 551.431,310.751 C552.996,310.751 554.417,310.179 555.356,309.05 L554.403,308.118 C553.689,308.918 552.655,309.352 551.565,309.352 C550.098,309.352 547.974,308.543 547.844,305.26 L555.625,305.26 C555.692,304.507 555.657,303.802 555.549,303.166 C555.051,300.222 553.005,299.268 551.207,299.268 z M547.9,303.934 C548.241,301.348 549.91,300.596 551.087,300.596 C552.864,300.596 554.133,302.156 553.927,303.934 z M570.284,295.546 L570.284,310.521 L573.495,310.521 C574.683,310.521 575.675,310.462 576.73,309.921 C578.873,308.818 580.043,306.271 580.043,302.998 C580.043,300.119 579.19,297.599 577.266,296.348 C576.18,295.641 575.103,295.546 573.784,295.546 z M571.879,296.975 L573.681,296.975 C574.623,296.975 575.569,297.029 576.495,297.796 C577.884,298.948 578.348,301.076 578.348,303.223 C578.348,306.074 577.403,307.714 576.208,308.521 C575.27,309.153 574.352,309.195 573.412,309.195 L571.879,309.195 z M582.16,295.546 L582.16,310.5 L586.385,310.5 C587.402,310.5 588.432,310.488 589.465,310.049 C591.075,309.365 591.959,307.901 591.959,306.36 C591.959,304.618 590.836,303.049 589.161,302.484 C590.502,301.937 591.377,300.633 591.377,299.199 C591.377,297.856 590.605,296.574 589.199,295.963 C588.264,295.556 587.325,295.546 586.406,295.546 z M583.817,296.975 L586.178,296.975 C586.817,296.975 587.5,296.977 588.165,297.246 C589.156,297.646 589.682,298.494 589.682,299.354 C589.682,300.208 589.169,301.031 588.228,301.438 C587.539,301.736 586.823,301.739 586.157,301.739 L583.817,301.739 z M583.817,303.147 L586.261,303.147 C587.016,303.147 587.758,303.162 588.505,303.516 C589.615,304.043 590.203,305.11 590.203,306.192 C590.203,307.261 589.634,308.261 588.601,308.727 C587.955,309.018 587.321,309.029 586.675,309.029 L583.817,309.029 z" fill-opacity="0" stroke="#FFFFFF" stroke-width="1"/>
    </g>
  </g>
</svg>
