<?xml version="1.0" encoding="UTF-8"?>
<!DOCTYPE svg PUBLIC "-//W3C//DTD SVG 1.1//EN" "http://www.w3.org/Graphics/SVG/1.1/DTD/svg11.dtd">
<svg version="1.1" xmlns="http://www.w3.org/2000/svg" xmlns:xlink="http://www.w3.org/1999/xlink" x="0" y="0" width="640" height="480" viewBox="0, 0, 640, 480">
  <g id="Layer_1">
    <path d="M85,62 L191,62 L191,147 L85,147 z" fill="#5CA831" id="svg_6"/>
    <g id="svg_3">
      <path d="M373,35 L601,35 L601,446 L373,446 z" fill="#FFFFFF"/>
      <path d="M373,35 L601,35 L601,446 L373,446 z" fill-opacity="0" stroke="#000000" stroke-width="1.5"/>
    </g>
    <path d="M52,411 L244,411 L244,447 L52,447 z" fill="#2A86C0" id="svg_18"/>
    <text transform="matrix(1, 0, 0, 1, 138, 104.5)" id="svg_11">
      <tspan x="-9" y="11.5" font-family="Inconsolata" font-size="36" fill="#FFFFFF">P</tspan>
    </text>
    <text transform="matrix(1, 0, 0, 1, 138, 46)" id="svg_16">
      <tspan x="-90" y="-1" font-family="Inconsolata" font-size="24" fill="#000000">MongoDB Cluster</tspan>
    </text>
    <text transform="matrix(0.93, 0, 0, 1, 488, 57)" id="svg_20">
      <tspan x="-114" y="5" font-family="Inconsolata" font-size="24" fill="#000000">Cloud / Ops Manager</tspan>
    </text>
    <text transform="matrix(1, 0, 0, 1, 148.48, 431)" id="svg_4">
      <tspan x="-72" y="5" font-family="Inconsolata" font-size="24" fill="#FFFFFF">Backup Agent</tspan>
    </text>
    <path d="M86,162.5 L192,162.5 L192,247.5 L86,247.5 z" fill="#5CA831" id="svg_8"/>
    <path d="M87,264.5 L193,264.5 L193,349.5 L87,349.5 z" fill="#5CA831" id="svg_9"/>
    <text transform="matrix(1, 0, 0, 1, 138, 307)" id="svg_13">
      <tspan x="-9" y="11.5" font-family="Inconsolata" font-size="36" fill="#FFFFFF">S</tspan>
    </text>
    <path d="M142.437,403.286 L128.746,389.982 L135.495,389.886 L135.214,370.324 L128.465,370.42 L141.769,356.729 L155.462,370.033 L148.712,370.13 L148.993,389.692 L155.743,389.595 L142.437,403.286 z" fill-opacity="0" stroke="#000000" stroke-width="1.5" id="svg_15"/>
    <path d="M266.719,426.999 L290.945,413.5 L290.945,420.25 L326.055,420.25 L326.055,413.5 L350.281,426.999 L326.055,440.5 L326.055,433.749 L290.945,433.749 L290.945,440.5 L266.719,426.999 z" fill-opacity="0" stroke="#000000" stroke-width="1.5" id="svg_19"/>
    <text transform="matrix(1, 0, 0, 1, 138, 205)" id="svg_13">
      <tspan x="-9" y="11.5" font-family="Inconsolata" font-size="36" fill="#FFFFFF">S</tspan>
    </text>
  </g>
</svg>
