<?xml version="1.0" encoding="UTF-8"?>
<!DOCTYPE svg PUBLIC "-//W3C//DTD SVG 1.1//EN" "http://www.w3.org/Graphics/SVG/1.1/DTD/svg11.dtd">
<svg width="640" height="480" xmlns="http://www.w3.org/2000/svg" xmlns:svg="http://www.w3.org/2000/svg">
 <!-- Created with SVG-edit - http://svg-edit.googlecode.com/ -->
 <g>
  <title>Layer 1</title>
  <rect stroke="#000000" fill="#ffffff" stroke-width="5" stroke-dasharray="null" stroke-linejoin="null" stroke-linecap="null" x="401" y="17" width="228" height="411" id="svg_3"/>
  <rect fill="#43a001" stroke-width="5" stroke-dasharray="null" stroke-linejoin="null" stroke-linecap="null" x="417" y="209.5" width="200.50001" height="52.75" id="svg_29" stroke="#000000"/>
  <text fill="#000000" stroke="#000000" stroke-width="0" stroke-dasharray="null" stroke-linejoin="null" stroke-linecap="null" x="516.50003" y="242.25" id="svg_33" font-size="24" font-family="Helvetica" text-anchor="middle" xml:space="preserve" font-weight="bold">Application DB</text>
  <rect stroke="#000000" id="svg_1" fill="#ffffff" stroke-width="5" stroke-dasharray="null" stroke-linejoin="null" stroke-linecap="null" x="194" y="392" width="136" height="27"/>
  <rect id="svg_8" stroke="#000000" fill="#43a001" stroke-width="5" stroke-dasharray="null" stroke-linejoin="null" stroke-linecap="null" x="16" y="171.5" width="106" height="85"/>
  <rect id="svg_9" stroke="#000000" fill="#43a001" stroke-width="5" stroke-dasharray="null" stroke-linejoin="null" stroke-linecap="null" x="17" y="273.5" width="106" height="85"/>
  <rect stroke="#000000" id="svg_14" fill="#ffffff" stroke-width="5" stroke-dasharray="null" stroke-linejoin="null" stroke-linecap="null" x="25" y="332" width="90" height="19"/>
  <text stroke="#000000" transform="matrix(0.3553881347179413,0,0,0.3333333432674408,-38.93858548719436,212.99999682605267) " xml:space="preserve" text-anchor="middle" font-family="Helvetica" font-size="24" id="svg_15" y="395" x="305.1272" stroke-linecap="null" stroke-linejoin="null" stroke-dasharray="null" stroke-width="0" fill="#000000">Automation Agent</text>
  <rect stroke="#000000" fill="#43a001" stroke-width="5" stroke-dasharray="null" stroke-linejoin="null" stroke-linecap="null" x="15" y="71" width="106" height="85" id="svg_6"/>
  <text font-weight="bold" xml:space="preserve" text-anchor="middle" font-family="Helvetica" font-size="24" id="svg_11" y="106" x="68" stroke-linecap="null" stroke-linejoin="null" stroke-dasharray="null" stroke-width="0" stroke="#000000" fill="#000000">P</text>
  <rect fill="#43a001" stroke="#000000" stroke-width="5" stroke-dasharray="null" stroke-linejoin="null" stroke-linecap="null" x="35" y="78" width="25" height="0" id="svg_7"/>
  <text style="cursor: move;" fill="#000000" stroke="#000000" stroke-width="0" stroke-dasharray="null" stroke-linejoin="null" stroke-linecap="null" x="510" y="48" id="svg_20" font-size="24" text-anchor="middle" xml:space="preserve" font-weight="bold" font-family="Helvetica">Ops Manager</text>
  <text id="svg_12" font-weight="bold" xml:space="preserve" text-anchor="middle" font-family="Helvetica" font-size="24" y="209.5" x="68" stroke-linecap="null" stroke-linejoin="null" stroke-dasharray="null" stroke-width="0" stroke="#000000" fill="#000000">S</text>
  <text id="svg_13" font-weight="bold" xml:space="preserve" text-anchor="middle" font-family="Helvetica" font-size="24" y="311.5" x="70" stroke-linecap="null" stroke-linejoin="null" stroke-dasharray="null" stroke-width="0" stroke="#000000" fill="#000000">S</text>
  <text id="svg_10" font-weight="bold" stroke="#000000" transform="matrix(0.5378503337660212,0,0,0.7049352755959362,69.01489414521522,92.71630370377765) " xml:space="preserve" text-anchor="middle" font-family="Helvetica" font-size="24" y="450.85772" x="356.02417" stroke-linecap="null" stroke-linejoin="null" stroke-dasharray="null" stroke-width="0" fill="#000000">Monitoring Agent</text>
  <path id="svg_30" stroke="#000000" d="m125.14502,239.76889l76.96057,0l10.64661,-15.38406l17.42575,29.61517l19.36136,-30l16.93997,29.61517l18.39349,-29.23035l18.39304,29.4231l10.1629,-14.42319l77.44507,0m-272.14926,-1.33618l6.39771,0l0,3.2504l-6.39771,0l0,-3.2504zm272.15512,-0.22116l6.39581,0l0,3.25037l-6.39581,0l0,-3.25037z" stroke-linecap="null" stroke-linejoin="null" stroke-dasharray="null" stroke-width="5" fill="#000000"/>
  <rect id="svg_16" stroke="#000000" fill="#ffffff" stroke-width="5" stroke-dasharray="null" stroke-linejoin="null" stroke-linecap="null" x="25" y="229.5" width="90" height="19"/>
  <path stroke="#000000" id="svg_28" d="m123.8105,137.80098l76.96057,0l10.64659,-15.38408l17.42575,29.61519l19.36136,-30l16.93997,29.61519l18.39349,-29.23038l18.39304,29.42313l10.1629,-14.42322l77.44507,0m-272.14927,-1.33618l6.39771,0l0,3.2504l-6.39771,0l0,-3.2504zm272.1551,-0.22113l6.39587,0l0,3.25037l-6.39587,0l0,-3.25037z" stroke-linecap="null" stroke-linejoin="null" stroke-dasharray="null" stroke-width="5" fill="#000000"/>
  <rect id="svg_17" stroke="#000000" fill="#ffffff" stroke-width="5" stroke-dasharray="null" stroke-linejoin="null" stroke-linecap="null" x="23" y="127.5" width="90" height="19"/>
  <text id="svg_21" stroke="#000000" transform="matrix(0.3553881347179413,0,0,0.3333333432674408,-38.93858548719436,212.99999682605267) " xml:space="preserve" text-anchor="middle" font-family="Helvetica" font-size="24" y="87.53127" x="300.90869" stroke-linecap="null" stroke-linejoin="null" stroke-dasharray="null" stroke-width="0" fill="#000000">Automation Agent</text>
  <text id="svg_22" stroke="#000000" transform="matrix(0.3553881347179413,0,0,0.3333333432674408,-38.93858548719436,212.99999682605267) " xml:space="preserve" text-anchor="middle" font-family="Helvetica" font-size="24" y="-218.46872" x="300.90869" stroke-linecap="null" stroke-linejoin="null" stroke-dasharray="null" stroke-width="0" fill="#000000">Automation Agent</text>
  <rect id="svg_23" stroke="#000000" fill="#ffffff" stroke-width="5" stroke-dasharray="null" stroke-linejoin="null" stroke-linecap="null" x="194" y="430.5" width="136" height="27"/>
  <text id="svg_24" font-weight="bold" stroke="#000000" transform="matrix(0.5378503337660212,0,0,0.7049352755959362,69.01489414521522,92.71630370377765) " xml:space="preserve" text-anchor="middle" font-family="Helvetica" font-size="24" y="506.12323" x="356.9489" stroke-linecap="null" stroke-linejoin="null" stroke-dasharray="null" stroke-width="0" fill="#000000">Backup Agent</text>
  <path id="svg_31" stroke="#000000" d="m125.14502,341.76889l76.96057,0l10.64661,-15.38406l17.42575,29.61517l19.36136,-30l16.93997,29.61517l18.39349,-29.23035l18.39304,29.4231l10.1629,-14.42319l77.44507,0m-272.14926,-1.33618l6.39771,0l0,3.2504l-6.39771,0l0,-3.2504zm272.15512,-0.22116l6.39581,0l0,3.25037l-6.39581,0l0,-3.25037z" stroke-linecap="null" stroke-linejoin="null" stroke-dasharray="null" stroke-width="5" fill="#000000"/>
  <rect fill="#ffffff" stroke="#000000" stroke-width="5" stroke-dasharray="null" stroke-linejoin="null" stroke-linecap="null" x="416.75003" y="84.75" width="200.25" height="111" id="svg_19"/>
  <rect fill="#43a001" stroke-width="5" stroke-dasharray="null" stroke-linejoin="null" stroke-linecap="null" x="416.25" y="276.625" width="200.50001" height="52.75" stroke="#000000" id="svg_32"/>
  <text fill="#000000" stroke="#000000" stroke-width="0" stroke-dasharray="null" stroke-linejoin="null" stroke-linecap="null" x="517.25003" y="310.875" font-size="24" font-family="Helvetica" text-anchor="middle" xml:space="preserve" font-weight="bold" id="svg_34">Blockstore DB</text>
  <text style="cursor: move;" fill="#000000" stroke="#000000" stroke-width="0" stroke-dasharray="null" stroke-linejoin="null" stroke-linecap="null" x="518.00003" y="145.875" font-size="24" font-family="Helvetica" text-anchor="middle" xml:space="preserve" font-weight="bold" id="svg_35">Internals</text>
  <line fill="none" stroke="#000000" stroke-width="2" stroke-dasharray="null" stroke-linejoin="null" stroke-linecap="null" x1="121.25002" y1="108.75" x2="191.75002" y2="405" id="svg_39"/>
  <line fill="none" stroke="#000000" stroke-width="2" stroke-dasharray="null" stroke-linejoin="null" stroke-linecap="null" x1="332.00002" y1="403.5" x2="399.50002" y2="403.5" id="svg_40"/>
  <line fill="none" stroke="#000000" stroke-width="2" stroke-dasharray="null" stroke-linejoin="null" stroke-linecap="null" x1="191.75002" y1="405.75" x2="122.75002" y2="208.5" id="svg_41"/>
  <line fill="none" stroke="#000000" stroke-width="2" stroke-dasharray="null" stroke-linejoin="null" stroke-linecap="null" x1="191.75002" y1="405.75" x2="124.25002" y2="307.5" id="svg_42"/>
  <line fill="none" stroke="#000000" stroke-width="2" stroke-dasharray="null" stroke-linejoin="null" stroke-linecap="null" x1="330.50002" y1="441.75" x2="400.25002" y2="404.25" id="svg_43"/>
  <line fill="none" stroke="#000000" stroke-width="2" stroke-dasharray="null" stroke-linejoin="null" stroke-linecap="null" x1="193.25002" y1="443.25" x2="71.00002" y2="360.75" id="svg_44"/>
 </g>
</svg>