<?xml version="1.0" encoding="UTF-8"?>
<!DOCTYPE svg PUBLIC "-//W3C//DTD SVG 1.1//EN" "http://www.w3.org/Graphics/SVG/1.1/DTD/svg11.dtd">
<svg width="640" height="480" xmlns="http://www.w3.org/2000/svg" xmlns:svg="http://www.w3.org/2000/svg">
 <!-- Created with SVG-edit - http://svg-edit.googlecode.com/ -->
 <g>
  <title>Layer 1</title>
  <rect id="svg_3" height="411" width="228" y="17" x="401" stroke-linecap="null" stroke-linejoin="null" stroke-dasharray="null" stroke-width="5" fill="#ffffff" stroke="#000000"/>
  <rect stroke="#000000" id="svg_29" height="52.75" width="200.50001" y="209.5" x="417" stroke-linecap="null" stroke-linejoin="null" stroke-dasharray="null" stroke-width="5" fill="#43a001"/>
  <text font-weight="bold" xml:space="preserve" text-anchor="middle" font-family="Helvetica" font-size="24" id="svg_33" y="242.25" x="516.50003" stroke-linecap="null" stroke-linejoin="null" stroke-dasharray="null" stroke-width="0" stroke="#000000" fill="#000000">Monitoring DB</text>
  <rect height="27" width="136" y="392" x="194" stroke-linecap="null" stroke-linejoin="null" stroke-dasharray="null" stroke-width="5" fill="#ffffff" id="svg_1" stroke="#000000"/>
  <rect height="85" width="106" y="171.5" x="16" stroke-linecap="null" stroke-linejoin="null" stroke-dasharray="null" stroke-width="5" fill="#43a001" stroke="#000000" id="svg_8"/>
  <rect height="85" width="106" y="273.5" x="17" stroke-linecap="null" stroke-linejoin="null" stroke-dasharray="null" stroke-width="5" fill="#43a001" stroke="#000000" id="svg_9"/>
  <rect height="19" width="90" y="332" x="25" stroke-linecap="null" stroke-linejoin="null" stroke-dasharray="null" stroke-width="5" fill="#ffffff" id="svg_14" stroke="#000000"/>
  <text style="cursor: move;" fill="#000000" stroke-width="0" stroke-dasharray="null" stroke-linejoin="null" stroke-linecap="null" x="305.1272" y="395" id="svg_15" font-size="24" font-family="Helvetica" text-anchor="middle" xml:space="preserve" transform="matrix(0.3553881347179413,0,0,0.3333333432674408,-38.93858548719436,212.99999682605267) " stroke="#000000">Automation Agent</text>
  <rect id="svg_6" height="85" width="106" y="71" x="15" stroke-linecap="null" stroke-linejoin="null" stroke-dasharray="null" stroke-width="5" fill="#43a001" stroke="#000000"/>
  <text fill="#000000" stroke="#000000" stroke-width="0" stroke-dasharray="null" stroke-linejoin="null" stroke-linecap="null" x="68" y="106" id="svg_11" font-size="24" font-family="Helvetica" text-anchor="middle" xml:space="preserve" font-weight="bold">P</text>
  <rect id="svg_7" height="0" width="25" y="78" x="35" stroke-linecap="null" stroke-linejoin="null" stroke-dasharray="null" stroke-width="5" stroke="#000000" fill="#43a001"/>
  <text font-family="Helvetica" font-weight="bold" xml:space="preserve" text-anchor="middle" font-size="24" id="svg_20" y="48" x="510" stroke-linecap="null" stroke-linejoin="null" stroke-dasharray="null" stroke-width="0" stroke="#000000" fill="#000000">MMS</text>
  <text fill="#000000" stroke="#000000" stroke-width="0" stroke-dasharray="null" stroke-linejoin="null" stroke-linecap="null" x="68" y="209.5" font-size="24" font-family="Helvetica" text-anchor="middle" xml:space="preserve" font-weight="bold" id="svg_12">S</text>
  <text fill="#000000" stroke="#000000" stroke-width="0" stroke-dasharray="null" stroke-linejoin="null" stroke-linecap="null" x="70" y="311.5" font-size="24" font-family="Helvetica" text-anchor="middle" xml:space="preserve" font-weight="bold" id="svg_13">S</text>
  <text fill="#000000" stroke-width="0" stroke-dasharray="null" stroke-linejoin="null" stroke-linecap="null" x="356.02417" y="450.85772" font-size="24" font-family="Helvetica" text-anchor="middle" xml:space="preserve" transform="matrix(0.5378503337660212,0,0,0.7049352755959362,69.01489414521522,92.71630370377765) " stroke="#000000" font-weight="bold" id="svg_10">Monitoring Agent</text>
  <path fill="#000000" stroke-width="5" stroke-dasharray="null" stroke-linejoin="null" stroke-linecap="null" d="m125.14502,239.76889l76.96057,0l10.64661,-15.38406l17.42575,29.61517l19.36136,-30l16.93997,29.61517l18.39349,-29.23035l18.39304,29.4231l10.1629,-14.42319l77.44507,0m-272.14926,-1.33618l6.39771,0l0,3.2504l-6.39771,0l0,-3.2504zm272.15512,-0.22116l6.39581,0l0,3.25037l-6.39581,0l0,-3.25037z" stroke="#000000" id="svg_30"/>
  <rect height="19" width="90" y="229.5" x="25" stroke-linecap="null" stroke-linejoin="null" stroke-dasharray="null" stroke-width="5" fill="#ffffff" stroke="#000000" id="svg_16"/>
  <path fill="#000000" stroke-width="5" stroke-dasharray="null" stroke-linejoin="null" stroke-linecap="null" d="m123.8105,137.80098l76.96057,0l10.64659,-15.38408l17.42575,29.61519l19.36136,-30l16.93997,29.61519l18.39349,-29.23038l18.39304,29.42313l10.1629,-14.42322l77.44507,0m-272.14927,-1.33618l6.39771,0l0,3.2504l-6.39771,0l0,-3.2504zm272.1551,-0.22113l6.39587,0l0,3.25037l-6.39587,0l0,-3.25037z" id="svg_28" stroke="#000000"/>
  <rect height="19" width="90" y="127.5" x="23" stroke-linecap="null" stroke-linejoin="null" stroke-dasharray="null" stroke-width="5" fill="#ffffff" stroke="#000000" id="svg_17"/>
  <text fill="#000000" stroke-width="0" stroke-dasharray="null" stroke-linejoin="null" stroke-linecap="null" x="300.90869" y="87.53127" font-size="24" font-family="Helvetica" text-anchor="middle" xml:space="preserve" transform="matrix(0.3553881347179413,0,0,0.3333333432674408,-38.93858548719436,212.99999682605267) " stroke="#000000" id="svg_21">Automation Agent</text>
  <text fill="#000000" stroke-width="0" stroke-dasharray="null" stroke-linejoin="null" stroke-linecap="null" x="300.90869" y="-218.46872" font-size="24" font-family="Helvetica" text-anchor="middle" xml:space="preserve" transform="matrix(0.3553881347179413,0,0,0.3333333432674408,-38.93858548719436,212.99999682605267) " stroke="#000000" id="svg_22">Automation Agent</text>
  <rect height="27" width="136" y="430.5" x="194" stroke-linecap="null" stroke-linejoin="null" stroke-dasharray="null" stroke-width="5" fill="#ffffff" stroke="#000000" id="svg_23"/>
  <text fill="#000000" stroke-width="0" stroke-dasharray="null" stroke-linejoin="null" stroke-linecap="null" x="356.9489" y="506.12323" font-size="24" font-family="Helvetica" text-anchor="middle" xml:space="preserve" transform="matrix(0.5378503337660212,0,0,0.7049352755959362,69.01489414521522,92.71630370377765) " stroke="#000000" font-weight="bold" id="svg_24">Backup Agent</text>
  <path fill="#000000" stroke-width="5" stroke-dasharray="null" stroke-linejoin="null" stroke-linecap="null" d="m125.14502,341.76889l76.96057,0l10.64661,-15.38406l17.42575,29.61517l19.36136,-30l16.93997,29.61517l18.39349,-29.23035l18.39304,29.4231l10.1629,-14.42319l77.44507,0m-272.14926,-1.33618l6.39771,0l0,3.2504l-6.39771,0l0,-3.2504zm272.15512,-0.22116l6.39581,0l0,3.25037l-6.39581,0l0,-3.25037z" stroke="#000000" id="svg_31"/>
  <rect id="svg_19" height="111" width="200.25" y="84.75" x="416.75003" stroke-linecap="null" stroke-linejoin="null" stroke-dasharray="null" stroke-width="5" stroke="#000000" fill="#ffffff"/>
  <rect id="svg_32" stroke="#000000" height="52.75" width="200.50001" y="276.625" x="416.25" stroke-linecap="null" stroke-linejoin="null" stroke-dasharray="null" stroke-width="5" fill="#43a001"/>
  <text id="svg_34" font-weight="bold" xml:space="preserve" text-anchor="middle" font-family="Helvetica" font-size="24" y="310.875" x="517.25003" stroke-linecap="null" stroke-linejoin="null" stroke-dasharray="null" stroke-width="0" stroke="#000000" fill="#000000">Blockstore DB</text>
  <text id="svg_35" font-weight="bold" xml:space="preserve" text-anchor="middle" font-family="Helvetica" font-size="24" y="145.875" x="518.00003" stroke-linecap="null" stroke-linejoin="null" stroke-dasharray="null" stroke-width="0" stroke="#000000" fill="#000000">MMS Internals</text>
  <line id="svg_39" y2="405" x2="191.75002" y1="108.75" x1="121.25002" stroke-linecap="null" stroke-linejoin="null" stroke-dasharray="null" stroke-width="2" stroke="#000000" fill="none"/>
  <line id="svg_40" y2="403.5" x2="399.50002" y1="403.5" x1="332.00002" stroke-linecap="null" stroke-linejoin="null" stroke-dasharray="null" stroke-width="2" stroke="#000000" fill="none"/>
  <line id="svg_41" y2="208.5" x2="122.75002" y1="405.75" x1="191.75002" stroke-linecap="null" stroke-linejoin="null" stroke-dasharray="null" stroke-width="2" stroke="#000000" fill="none"/>
  <line id="svg_42" y2="307.5" x2="124.25002" y1="405.75" x1="191.75002" stroke-linecap="null" stroke-linejoin="null" stroke-dasharray="null" stroke-width="2" stroke="#000000" fill="none"/>
  <line id="svg_43" y2="404.25" x2="400.25002" y1="441.75" x1="330.50002" stroke-linecap="null" stroke-linejoin="null" stroke-dasharray="null" stroke-width="2" stroke="#000000" fill="none"/>
  <line id="svg_44" y2="360.75" x2="71.00002" y1="443.25" x1="193.25002" stroke-linecap="null" stroke-linejoin="null" stroke-dasharray="null" stroke-width="2" stroke="#000000" fill="none"/>
 </g>
</svg>