<svg xmlns="http://www.w3.org/2000/svg" xmlns:xlink="http://www.w3.org/1999/xlink" width="860" height="400"><g transform="translate(-180 -20)"><path d="M720 80c-22.1 0-40 17.9-40 40v240c0 22.1 17.9 40 40 40m260 0c22.1 0 40-17.9 40-40V120c0-22.1-17.9-40-40-40" stroke="#000" stroke-width="2" fill="none"/><path d="M250 40h240v60H250z" fill="none"/><use xlink:href="#a" transform="matrix(1,0,0,1,255,45) translate(29.259259259259252 30.333333333333336)"/><use xlink:href="#b" transform="matrix(1,0,0,1,255,45) translate(94.29629629629629 30.333333333333336)"/><use xlink:href="#c" transform="matrix(1,0,0,1,255,45) translate(185.92592592592592 30.333333333333336)"/><path d="M740 40h240v60H740z" fill="none"/><use xlink:href="#a" transform="matrix(1,0,0,1,745,45) translate(29.259259259259252 30.333333333333336)"/><use xlink:href="#b" transform="matrix(1,0,0,1,745,45) translate(94.29629629629629 30.333333333333336)"/><use xlink:href="#d" transform="matrix(1,0,0,1,745,45) translate(185.92592592592592 30.333333333333336)"/><path d="M240 80c-22.1 0-40 17.9-40 40v240c0 22.1 17.9 40 40 40m260 0c22.1 0 40-17.9 40-40V120c0-22.1-17.9-40-40-40" stroke="#000" stroke-width="2" fill="none"/><path d="M240 100h240v100H240z" stroke="#000" stroke-width="2" fill="#0c7cba"/><use xlink:href="#e" transform="matrix(1,0,0,1,245,105) translate(58.99088541666666 31.614583333333332)"/><use xlink:href="#f" transform="matrix(1,0,0,1,245,105) translate(115 55.67708333333333)"/><use xlink:href="#g" transform="matrix(1,0,0,1,245,105) translate(72.32638888888889 73.50694444444444)"/><use xlink:href="#h" transform="matrix(1,0,0,1,245,105) translate(147.00520833333334 73.50694444444444)"/><path d="M240 240h240v100H240z" stroke="#000" stroke-width="2" fill="#7ab648"/><use xlink:href="#i" transform="matrix(1,0,0,1,245,245) translate(42.98828125 31.614583333333332)"/><use xlink:href="#f" transform="matrix(1,0,0,1,245,245) translate(115 55.67708333333333)"/><use xlink:href="#g" transform="matrix(1,0,0,1,245,245) translate(72.32638888888889 73.50694444444444)"/><use xlink:href="#h" transform="matrix(1,0,0,1,245,245) translate(147.00520833333334 73.50694444444444)"/><path d="M730 100h240v100H730z" stroke="#000" stroke-width="2" fill="#7ab648"/><g><use xlink:href="#i" transform="matrix(1,0,0,1,735,105) translate(42.98828125 31.614583333333332)"/><use xlink:href="#f" transform="matrix(1,0,0,1,735,105) translate(115 55.67708333333333)"/><use xlink:href="#g" transform="matrix(1,0,0,1,735,105) translate(72.32638888888889 73.50694444444444)"/><use xlink:href="#h" transform="matrix(1,0,0,1,735,105) translate(147.00520833333334 73.50694444444444)"/></g><path d="M541 240h139" stroke="#000" stroke-width="6" fill="none"/><path d="M541 240l14.27-4.64v9.28zM680 240l-14.27 4.64v-9.28z" stroke="#000" stroke-width="6"/><path d="M570 200h80v80h-80z" fill="none"/><path d="M578 208l64 64m0-64l-64 64" stroke="#c92d39" stroke-width="8" fill="none"/><path d="M730 240h240v100H730z" stroke="#000" stroke-width="2" fill="#7ab648"/><g><use xlink:href="#i" transform="matrix(1,0,0,1,735,245) translate(42.98828125 31.614583333333332)"/><use xlink:href="#f" transform="matrix(1,0,0,1,735,245) translate(115 55.67708333333333)"/><use xlink:href="#g" transform="matrix(1,0,0,1,735,245) translate(72.32638888888889 73.50694444444444)"/><use xlink:href="#h" transform="matrix(1,0,0,1,735,245) translate(147.00520833333334 73.50694444444444)"/></g><defs><path d="M24-248c120-7 223 5 221 122C244-46 201 0 124 0H24v-248zM76-40c74 7 117-18 117-86 0-67-45-88-117-82v168" id="j"/><path d="M133-34C117-15 103 5 69 4 32 3 11-16 11-54c-1-60 55-63 116-61 1-26-3-47-28-47-18 1-26 9-28 27l-52-2c7-38 36-58 82-57s74 22 75 68l1 82c-1 14 12 18 25 15v27c-30 8-71 5-69-32zm-48 3c29 0 43-24 42-57-32 0-66-3-65 30 0 17 8 27 23 27" id="k"/><path d="M115-3C79 11 28 4 28-45v-112H4v-33h27l15-45h31v45h36v33H77v99c-1 23 16 31 38 25v30" id="l"/><g id="a"><use transform="matrix(0.07407407407407408,0,0,0.07407407407407408,0,0)" xlink:href="#j"/><use transform="matrix(0.07407407407407408,0,0,0.07407407407407408,19.185185185185187,0)" xlink:href="#k"/><use transform="matrix(0.07407407407407408,0,0,0.07407407407407408,34,0)" xlink:href="#l"/><use transform="matrix(0.07407407407407408,0,0,0.07407407407407408,42.814814814814824,0)" xlink:href="#k"/></g><path d="M67-125c0 53 21 87 73 88 37 1 54-22 65-47l45 17C233-25 199 4 140 4 58 4 20-42 15-125 8-235 124-281 211-232c18 10 29 29 36 50l-46 12c-8-25-30-41-62-41-52 0-71 34-72 86" id="m"/><path d="M185-48c-13 30-37 53-82 52C43 2 14-33 14-96s30-98 90-98c62 0 83 45 84 108H66c0 31 8 55 39 56 18 0 30-7 34-22zm-45-69c5-46-57-63-70-21-2 6-4 13-4 21h74" id="n"/><path d="M135-194c87-1 58 113 63 194h-50c-7-57 23-157-34-157-59 0-34 97-39 157H25l-1-190h47c2 12-1 28 3 38 12-26 28-41 61-42" id="o"/><path d="M135-150c-39-12-60 13-60 57V0H25l-1-190h47c2 13-1 29 3 40 6-28 27-53 61-41v41" id="p"/><g id="b"><use transform="matrix(0.07407407407407408,0,0,0.07407407407407408,0,0)" xlink:href="#m"/><use transform="matrix(0.07407407407407408,0,0,0.07407407407407408,19.185185185185187,0)" xlink:href="#n"/><use transform="matrix(0.07407407407407408,0,0,0.07407407407407408,34,0)" xlink:href="#o"/><use transform="matrix(0.07407407407407408,0,0,0.07407407407407408,50.22222222222223,0)" xlink:href="#l"/><use transform="matrix(0.07407407407407408,0,0,0.07407407407407408,59.037037037037045,0)" xlink:href="#n"/><use transform="matrix(0.07407407407407408,0,0,0.07407407407407408,73.85185185185186,0)" xlink:href="#p"/></g><path d="M23 0v-37h61v-169l-59 37v-38l62-41h46v211h57V0H23" id="q"/><use transform="matrix(0.07407407407407408,0,0,0.07407407407407408,0,0)" xlink:href="#q" id="c"/><path d="M182-182c0 78-84 86-111 141h115V0H12c-6-101 99-100 120-180 1-22-12-31-33-32-23 0-32 14-35 34l-49-3c5-45 32-70 84-70 51 0 83 22 83 69" id="r"/><use transform="matrix(0.07407407407407408,0,0,0.07407407407407408,0,0)" xlink:href="#r" id="d"/><path fill="#fff" d="M1061-1028c0 244-191 400-440 395H420V0H256v-1411h358c255-4 447 136 447 383zm-174 10c0-152-125-250-281-250H420v492h178c193 0 289-81 289-242" id="s"/><path fill="#fff" d="M793-909c-150 0-257 142-312 235V0H326v-1042h155v211c120-239 312-290 553-183l-63 150c-69-30-128-45-178-45" id="t"/><path fill="#fff" d="M578-1329c0-54 51-107 104-107 57 0 106 50 106 107 0 59-47 108-106 108-53 0-104-54-104-108zM758 0H602v-907H295v-135h463V0" id="u"/><path fill="#fff" d="M686-885c46-86 118-182 225-182 126 0 189 113 189 338V0H944v-684c6-255-92-321-196-162-38 57-56 88-56 94V0H537v-684c6-254-92-321-195-162-38 57-57 88-57 94V0H129v-1042h150v157c46-86 117-182 225-182 99 0 163 89 182 182" id="v"/><path fill="#fff" d="M612-932c-94 1-239 48-305 86l-41-112c142-73 274-109 396-109 237 0 356 126 356 377 0 231-19 498 26 690H889c-13-42-19-98-19-168C781-38 661 27 508 27c-204 0-368-226-262-431 92-179 357-192 616-210 12-205-66-321-250-318zm-59 809c139-4 242-91 309-186v-189c-233 28-302 11-426 97-40 28-57 71-57 122-2 94 78 159 174 156" id="w"/><path fill="#fff" d="M1065-1042L670 0c-57 153-115 259-170 321-98 111-236 107-383 56l26-125c111 35 209 39 274-41 36-43 72-114 109-213L135-1042h170l295 831 295-831h170" id="x"/><g id="e"><use transform="matrix(0.013020833333333334,0,0,0.013020833333333334,0,0)" xlink:href="#s"/><use transform="matrix(0.013020833333333334,0,0,0.013020833333333334,16.002604166666668,0)" xlink:href="#t"/><use transform="matrix(0.013020833333333334,0,0,0.013020833333333334,32.005208333333336,0)" xlink:href="#u"/><use transform="matrix(0.013020833333333334,0,0,0.013020833333333334,48.0078125,0)" xlink:href="#v"/><use transform="matrix(0.013020833333333334,0,0,0.013020833333333334,64.01041666666667,0)" xlink:href="#w"/><use transform="matrix(0.013020833333333334,0,0,0.013020833333333334,80.01302083333334,0)" xlink:href="#t"/><use transform="matrix(0.013020833333333334,0,0,0.013020833333333334,96.01562500000001,0)" xlink:href="#x"/></g><path fill="#ccc" d="M1065-1042L670 0H528L135-1042h170l295 829 295-829h170" id="y"/><path fill="#ccc" d="M145-522c0-307 172-545 469-545 296 0 469 239 469 545 0 308-172 549-469 549-298 0-469-240-469-549zm164 2c0 210 103 411 305 411 199 0 306-205 306-411 0-217-100-412-306-412-208 0-305 192-305 412" id="z"/><path fill="#ccc" d="M592-311c-2 114 51 200 156 200 85 0 170-19 253-57l27 121C923 1 820 25 719 25c-186 0-279-98-279-295v-637H240v-135h200v-285h152v285h354v135H592v596" id="A"/><path fill="#ccc" d="M627-1067c255 1 431 226 422 502v49H334c-8 217 149 407 354 407 95 0 192-17 293-51l27 125C916 6 809 27 686 27c-314 0-516-228-516-551 0-303 173-543 457-543zm252 424c8-145-114-289-246-289-166 0-282 128-289 289h535" id="B"/><path fill="#ccc" d="M233-774c0-203 206-293 431-293 84 0 177 14 280 43l-35 131c-87-29-170-43-247-43-138-1-275 41-275 156 0 30 9 58 34 78 98 81 345 103 453 176 76 51 130 115 130 231 0 215-214 322-443 322-128 0-234-19-317-58l30-135c87 41 181 62 281 62 144 0 293-52 293-177 0-36-13-69-40-97-28-49-299-119-369-144-108-39-206-109-206-252" id="C"/><path fill="#ccc" d="M487-938c0-65 54-119 119-119 66 0 121 54 121 119s-55 119-121 119c-65 0-119-54-119-119zm0 836c0-66 54-119 119-119 66 0 121 53 121 119 0 65-55 118-121 118-65 0-119-53-119-118" id="D"/><g id="g"><use transform="matrix(0.008680555555555556,0,0,0.008680555555555556,0,0)" xlink:href="#y"/><use transform="matrix(0.008680555555555556,0,0,0.008680555555555556,10.668402777777779,0)" xlink:href="#z"/><use transform="matrix(0.008680555555555556,0,0,0.008680555555555556,21.336805555555557,0)" xlink:href="#A"/><use transform="matrix(0.008680555555555556,0,0,0.008680555555555556,32.005208333333336,0)" xlink:href="#B"/><use transform="matrix(0.008680555555555556,0,0,0.008680555555555556,42.673611111111114,0)" xlink:href="#C"/><use transform="matrix(0.008680555555555556,0,0,0.008680555555555556,53.34201388888889,0)" xlink:href="#D"/></g><path fill="#ccc" d="M1018 0H276v-143h299v-1096l-282 141v-164l305-157h141v1276h279V0" id="E"/><use transform="matrix(0.008680555555555556,0,0,0.008680555555555556,0,0)" xlink:href="#E" id="h"/><path fill="#fff" d="M251-945c-104-289 136-493 421-493 94 0 187 14 280 43l-37 140c-210-82-526-60-528 182 0 85 71 158 211 225 177 85 201 79 309 177 65 59 115 146 115 265 0 265-215 434-465 433-121 0-228-24-319-72l34-141c107 49 201 73 281 73 177 0 311-99 309-272 0-63-18-115-55-159s-105-87-203-134c-169-81-188-73-285-166-30-29-54-63-68-101" id="F"/><path fill="#fff" d="M627-1067c255 1 431 226 422 502v49H334c-8 217 149 407 354 407 95 0 192-17 293-51l27 125C916 6 809 27 686 27c-314 0-516-228-516-551 0-303 173-543 457-543zm252 424c8-145-114-289-246-289-166 0-282 128-289 289h535" id="G"/><path fill="#fff" d="M340-520c0 222 153 411 375 411 88 0 179-17 272-51l27 125C923 6 824 27 715 27c-324 0-539-223-539-547 0-322 217-547 535-547 105 0 204 18 299 55l-41 129c-95-33-180-49-256-49-234-2-373 171-373 412" id="H"/><path fill="#fff" d="M145-522c0-307 172-545 469-545 296 0 469 239 469 545 0 308-172 549-469 549-298 0-469-240-469-549zm164 2c0 210 103 411 305 411 199 0 306-205 306-411 0-217-100-412-306-412-208 0-305 192-305 412" id="I"/><path fill="#fff" d="M862-668c-1-164-37-264-184-264-95 0-198 59-307 178V0H215v-1042h156v153c112-119 230-178 354-178 195 0 293 118 293 354V0H862v-668" id="J"/><path fill="#fff" d="M145-537c0-273 140-530 396-530 131 0 237 53 317 160v-504h156V0H858v-150C803-58 673 27 532 27c-119 0-214-53-283-159S145-374 145-537zm164 9c0 205 79 415 264 415 105 0 175-59 232-128 35-43 53-69 53-78v-433c-75-120-165-180-270-180-189 1-279 200-279 404" id="K"/><g id="i"><use transform="matrix(0.013020833333333334,0,0,0.013020833333333334,0,0)" xlink:href="#F"/><use transform="matrix(0.013020833333333334,0,0,0.013020833333333334,16.002604166666668,0)" xlink:href="#G"/><use transform="matrix(0.013020833333333334,0,0,0.013020833333333334,32.005208333333336,0)" xlink:href="#H"/><use transform="matrix(0.013020833333333334,0,0,0.013020833333333334,48.0078125,0)" xlink:href="#I"/><use transform="matrix(0.013020833333333334,0,0,0.013020833333333334,64.01041666666667,0)" xlink:href="#J"/><use transform="matrix(0.013020833333333334,0,0,0.013020833333333334,80.01302083333334,0)" xlink:href="#K"/><use transform="matrix(0.013020833333333334,0,0,0.013020833333333334,96.01562500000001,0)" xlink:href="#w"/><use transform="matrix(0.013020833333333334,0,0,0.013020833333333334,112.0182291666667,0)" xlink:href="#t"/><use transform="matrix(0.013020833333333334,0,0,0.013020833333333334,128.02083333333334,0)" xlink:href="#x"/></g></defs></g></svg>