<?xml version="1.0" encoding="UTF-8"?>
<!DOCTYPE svg PUBLIC "-//W3C//DTD SVG 1.1//EN" "http://www.w3.org/Graphics/SVG/1.1/DTD/svg11.dtd">
<svg version="1.1" xmlns="http://www.w3.org/2000/svg" xmlns:xlink="http://www.w3.org/1999/xlink" x="0" y="0" width="740" height="280" viewBox="0, 0, 740, 280">
  <g id="Layer_1">
    <text transform="matrix(1, 0, 0, 1, 85.01, 20.93)">
      <tspan x="-78.5" y="7.5" font-family="Inconsolata" font-size="24" fill="#311E13">Data Center 1</tspan>
    </text>
    <path d="M334.147,38.715 L555.853,38.715 L555.853,269.285 L334.147,269.285 z" fill-opacity="0" stroke="#301C11" stroke-width="4"/>
    <text transform="matrix(1, 0, 0, 1, 410.158, 22.215)">
      <tspan x="-78.5" y="7.5" font-family="Inconsolata" font-size="24" fill="#311E13">Data Center 2</tspan>
    </text>
    <path d="M8,38.43 L229.706,38.43 L229.706,269 L8,269 z" fill-opacity="0" stroke="#301C11" stroke-width="4"/>
    <g>
      <path d="M218,73.985 C218,72.819 215.094,71.875 211.504,71.875 L24.496,71.875 C20.91,71.875 18,72.819 18,73.985 L18,134.763 C18,135.929 20.91,136.875 24.496,136.875 L211.504,136.875 C215.094,136.875 218,135.929 218,134.763 L218,73.985" fill="#2A86C0"/>
      <text transform="matrix(1, 0, 0, 1, 117.143, 99.875)">
        <tspan x="-63.5" y="11.5" font-family="Inconsolata" font-size="36" fill="#FFFFFF">Primary</tspan>
      </text>
    </g>
    <g>
      <path d="M218,171.325 C218,170.16 215.094,169.215 211.504,169.215 L24.496,169.215 C20.91,169.215 18,170.16 18,171.325 L18,232.103 C18,233.269 20.91,234.215 24.496,234.215 L211.504,234.215 C215.094,234.215 218,233.269 218,232.103 L218,171.325" fill="#5CA831"/>
      <text transform="matrix(1, 0, 0, 1, 115.793, 199.5)">
        <tspan x="-81.5" y="11.5" font-family="Inconsolata" font-size="36" fill="#FFFFFE">Secondary</tspan>
      </text>
    </g>
    <g>
      <path d="M544.147,73.534 C544.147,72.369 541.241,71.424 537.651,71.424 L350.643,71.424 C347.057,71.424 344.147,72.369 344.147,73.534 L344.147,134.312 C344.147,135.478 347.057,136.424 350.643,136.424 L537.651,136.424 C541.241,136.424 544.147,135.478 544.147,134.312 L544.147,73.534" fill="#5CA831"/>
      <text transform="matrix(1, 0, 0, 1, 445.527, 101.875)">
        <tspan x="-81.5" y="11.5" font-family="Inconsolata" font-size="36" fill="#FFFFFE">Secondary</tspan>
      </text>
    </g>
    <text transform="matrix(1, 0, 0, 1, 444.56, 155.5)">
      <tspan x="-81.5" y="11.5" font-family="Inconsolata" font-size="36" fill="#FFFFFE">Secondary</tspan>
    </text>
    <path d="M258.893,13 C263.333,28.139 284.261,35.28 291.893,48 C297.775,57.804 268.142,89.252 264.893,99 C261.146,110.242 293.594,117.807 295.893,127 C299.335,140.771 271.894,168.994 269.893,181 C268.302,190.547 307.303,214.361 304.893,224 C301.621,237.088 277.239,252.96 271.893,269" fill-opacity="0" stroke="#301C11" stroke-width="4" stroke-linecap="round"/>
  </g>
</svg>
