<?xml version="1.0" encoding="UTF-8"?>
<!DOCTYPE svg PUBLIC "-//W3C//DTD SVG 1.1//EN" "http://www.w3.org/Graphics/SVG/1.1/DTD/svg11.dtd">
<svg version="1.1" xmlns="http://www.w3.org/2000/svg" xmlns:xlink="http://www.w3.org/1999/xlink" x="0" y="0" width="1142" height="368" viewBox="0, 0, 1142, 368">
  <g id="Background">
    <rect x="0" y="0" width="1142" height="368" fill="#000000" fill-opacity="0"/>
  </g>
  <g id="Layer_1">
    <g>
      <path d="M441,40 C418.9,40 401,57.9 401,80 L401,320 C401,342.1 418.9,360 441,360 M701,360 C723.1,360 741,342.1 741,320 L741,80 C741,57.9 723.1,40 701,40" fill-opacity="0" stroke="#000000" stroke-width="2"/>
      <g id="a">
        <path d="M87.037,16.963 C95.926,16.444 103.556,17.333 103.407,26 C103.333,31.926 100.148,35.333 94.444,35.333 L87.037,35.333 L87.037,16.963 z M90.889,32.37 C96.37,32.889 99.556,31.037 99.556,26 C99.556,21.037 96.222,19.481 90.889,19.926 L90.889,32.37" fill="#000000" id="k"/>
        <path d="M114.296,32.815 C113.111,34.222 112.074,35.704 109.556,35.63 C106.815,35.556 105.259,34.148 105.259,31.333 C105.185,26.889 109.333,26.667 113.852,26.815 C113.926,24.889 113.63,23.333 111.778,23.333 C110.444,23.407 109.852,24 109.704,25.333 L105.852,25.185 C106.37,22.37 108.519,20.889 111.926,20.963 C115.333,21.037 117.407,22.593 117.481,26 L117.556,32.074 C117.481,33.111 118.444,33.407 119.407,33.185 L119.407,35.185 C117.185,35.778 114.148,35.556 114.296,32.815 z M110.741,33.037 C112.889,33.037 113.926,31.259 113.852,28.815 C111.481,28.815 108.963,28.593 109.037,31.037 C109.037,32.296 109.63,33.037 110.741,33.037" fill="#000000" id="l"/>
        <path d="M127.778,35.111 C125.111,36.148 121.333,35.63 121.333,32 L121.333,23.704 L119.556,23.704 L119.556,21.259 L121.556,21.259 L122.667,17.926 L124.963,17.926 L124.963,21.259 L127.63,21.259 L127.63,23.704 L124.963,23.704 L124.963,31.037 C124.889,32.741 126.148,33.333 127.778,32.889 L127.778,35.111" fill="#000000" id="m"/>
        <path d="M137.926,32.815 C136.741,34.222 135.704,35.704 133.185,35.63 C130.444,35.556 128.889,34.148 128.889,31.333 C128.815,26.889 132.963,26.667 137.481,26.815 C137.556,24.889 137.259,23.333 135.407,23.333 C134.074,23.407 133.481,24 133.333,25.333 L129.481,25.185 C130,22.37 132.148,20.889 135.556,20.963 C138.963,21.037 141.037,22.593 141.111,26 L141.185,32.074 C141.111,33.111 142.074,33.407 143.037,33.185 L143.037,35.185 C140.815,35.778 137.778,35.556 137.926,32.815 z M134.37,33.037 C136.519,33.037 137.556,31.259 137.481,28.815 C135.111,28.815 132.593,28.593 132.667,31.037 C132.667,32.296 133.259,33.037 134.37,33.037" fill="#000000" id="l"/>
      </g>
      <g id="b">
        <path d="M155.259,26.074 C155.259,30 156.815,32.519 160.667,32.593 C163.407,32.667 164.667,30.963 165.481,29.111 L168.815,30.37 C167.556,33.481 165.037,35.63 160.667,35.63 C154.593,35.63 151.778,32.222 151.407,26.074 C150.889,17.926 159.481,14.519 165.926,18.148 C167.259,18.889 168.074,20.296 168.593,21.852 L165.185,22.741 C164.593,20.889 162.963,19.704 160.593,19.704 C156.741,19.704 155.333,22.222 155.259,26.074" fill="#000000" id="n"/>
        <path d="M183.185,31.778 C182.222,34 180.444,35.704 177.111,35.63 C172.667,35.481 170.519,32.889 170.519,28.222 C170.519,23.556 172.741,20.963 177.185,20.963 C181.778,20.963 183.333,24.296 183.407,28.963 L174.37,28.963 C174.37,31.259 174.963,33.037 177.259,33.111 C178.593,33.111 179.481,32.593 179.778,31.481 z M179.852,26.667 C180.222,23.259 175.63,22 174.667,25.111 C174.519,25.556 174.37,26.074 174.37,26.667 L179.852,26.667" fill="#000000" id="o"/>
        <path d="M194.296,20.963 C200.741,20.889 198.593,29.333 198.963,35.333 L195.259,35.333 C194.741,31.111 196.963,23.704 192.741,23.704 C188.37,23.704 190.222,30.889 189.852,35.333 L186.148,35.333 L186.074,21.259 L189.556,21.259 C189.704,22.148 189.481,23.333 189.778,24.074 C190.667,22.148 191.852,21.037 194.296,20.963" fill="#000000" id="p"/>
        <path d="M209.037,35.111 C206.37,36.148 202.593,35.63 202.593,32 L202.593,23.704 L200.815,23.704 L200.815,21.259 L202.815,21.259 L203.926,17.926 L206.222,17.926 L206.222,21.259 L208.889,21.259 L208.889,23.704 L206.222,23.704 L206.222,31.037 C206.148,32.741 207.407,33.333 209.037,32.889 L209.037,35.111" fill="#000000" id="m"/>
        <path d="M223.037,31.778 C222.074,34 220.296,35.704 216.963,35.63 C212.519,35.481 210.37,32.889 210.37,28.222 C210.37,23.556 212.593,20.963 217.037,20.963 C221.63,20.963 223.185,24.296 223.259,28.963 L214.222,28.963 C214.222,31.259 214.815,33.037 217.111,33.111 C218.444,33.111 219.333,32.593 219.63,31.481 z M219.704,26.667 C220.074,23.259 215.481,22 214.519,25.111 C214.37,25.556 214.222,26.074 214.222,26.667 L219.704,26.667" fill="#000000" id="o"/>
        <path d="M234.148,24.222 C231.259,23.333 229.704,25.185 229.704,28.444 L229.704,35.333 L226,35.333 L225.926,21.259 L229.407,21.259 C229.556,22.222 229.333,23.407 229.63,24.222 C230.074,22.148 231.63,20.296 234.148,21.185 L234.148,24.222" fill="#000000" id="q"/>
      </g>
      <path d="M243.63,35.333 L243.63,32.593 L248.148,32.593 L248.148,20.074 L243.778,22.815 L243.778,20 L248.37,16.963 L251.778,16.963 L251.778,32.593 L256,32.593 L256,35.333 L243.63,35.333" fill="#000000" id="r"/>
      <g id="a">
        <path d="M497.037,16.963 C505.926,16.444 513.556,17.333 513.407,26 C513.333,31.926 510.148,35.333 504.444,35.333 L497.037,35.333 L497.037,16.963 z M500.889,32.37 C506.37,32.889 509.556,31.037 509.556,26 C509.556,21.037 506.222,19.481 500.889,19.926 L500.889,32.37" fill="#000000" id="k"/>
        <path d="M524.296,32.815 C523.111,34.222 522.074,35.704 519.556,35.63 C516.815,35.556 515.259,34.148 515.259,31.333 C515.185,26.889 519.333,26.667 523.852,26.815 C523.926,24.889 523.63,23.333 521.778,23.333 C520.444,23.407 519.852,24 519.704,25.333 L515.852,25.185 C516.37,22.37 518.518,20.889 521.926,20.963 C525.333,21.037 527.407,22.593 527.481,26 L527.556,32.074 C527.481,33.111 528.444,33.407 529.407,33.185 L529.407,35.185 C527.185,35.778 524.148,35.556 524.296,32.815 z M520.741,33.037 C522.889,33.037 523.926,31.259 523.852,28.815 C521.481,28.815 518.963,28.593 519.037,31.037 C519.037,32.296 519.63,33.037 520.741,33.037" fill="#000000" id="l"/>
        <path d="M537.778,35.111 C535.111,36.148 531.333,35.63 531.333,32 L531.333,23.704 L529.556,23.704 L529.556,21.259 L531.556,21.259 L532.667,17.926 L534.963,17.926 L534.963,21.259 L537.63,21.259 L537.63,23.704 L534.963,23.704 L534.963,31.037 C534.889,32.741 536.148,33.333 537.778,32.889 L537.778,35.111" fill="#000000" id="m"/>
        <path d="M547.926,32.815 C546.741,34.222 545.704,35.704 543.185,35.63 C540.444,35.556 538.889,34.148 538.889,31.333 C538.815,26.889 542.963,26.667 547.482,26.815 C547.556,24.889 547.259,23.333 545.407,23.333 C544.074,23.407 543.482,24 543.333,25.333 L539.482,25.185 C540,22.37 542.148,20.889 545.556,20.963 C548.963,21.037 551.037,22.593 551.111,26 L551.185,32.074 C551.111,33.111 552.074,33.407 553.037,33.185 L553.037,35.185 C550.815,35.778 547.778,35.556 547.926,32.815 z M544.37,33.037 C546.519,33.037 547.556,31.259 547.482,28.815 C545.111,28.815 542.593,28.593 542.667,31.037 C542.667,32.296 543.259,33.037 544.37,33.037" fill="#000000" id="l"/>
      </g>
      <g id="b">
        <path d="M565.259,26.074 C565.259,30 566.815,32.519 570.667,32.593 C573.407,32.667 574.667,30.963 575.481,29.111 L578.815,30.37 C577.556,33.481 575.037,35.63 570.667,35.63 C564.593,35.63 561.778,32.222 561.407,26.074 C560.889,17.926 569.481,14.519 575.926,18.148 C577.259,18.889 578.074,20.296 578.593,21.852 L575.185,22.741 C574.593,20.889 572.963,19.704 570.593,19.704 C566.741,19.704 565.333,22.222 565.259,26.074" fill="#000000" id="n"/>
        <path d="M593.185,31.778 C592.222,34 590.444,35.704 587.111,35.63 C582.667,35.481 580.518,32.889 580.518,28.222 C580.518,23.556 582.741,20.963 587.185,20.963 C591.778,20.963 593.333,24.296 593.407,28.963 L584.37,28.963 C584.37,31.259 584.963,33.037 587.259,33.111 C588.593,33.111 589.482,32.593 589.778,31.481 z M589.852,26.667 C590.222,23.259 585.63,22 584.667,25.111 C584.518,25.556 584.37,26.074 584.37,26.667 L589.852,26.667" fill="#000000" id="o"/>
        <path d="M604.296,20.963 C610.741,20.889 608.593,29.333 608.963,35.333 L605.259,35.333 C604.741,31.111 606.963,23.704 602.741,23.704 C598.37,23.704 600.222,30.889 599.852,35.333 L596.148,35.333 L596.074,21.259 L599.556,21.259 C599.704,22.148 599.481,23.333 599.778,24.074 C600.667,22.148 601.852,21.037 604.296,20.963" fill="#000000" id="p"/>
        <path d="M619.037,35.111 C616.37,36.148 612.593,35.63 612.593,32 L612.593,23.704 L610.815,23.704 L610.815,21.259 L612.815,21.259 L613.926,17.926 L616.222,17.926 L616.222,21.259 L618.889,21.259 L618.889,23.704 L616.222,23.704 L616.222,31.037 C616.148,32.741 617.407,33.333 619.037,32.889 L619.037,35.111" fill="#000000" id="m"/>
        <path d="M633.037,31.778 C632.074,34 630.296,35.704 626.963,35.63 C622.518,35.481 620.37,32.889 620.37,28.222 C620.37,23.556 622.593,20.963 627.037,20.963 C631.63,20.963 633.185,24.296 633.259,28.963 L624.222,28.963 C624.222,31.259 624.815,33.037 627.111,33.111 C628.444,33.111 629.333,32.593 629.63,31.481 z M629.704,26.667 C630.074,23.259 625.481,22 624.518,25.111 C624.37,25.556 624.222,26.074 624.222,26.667 L629.704,26.667" fill="#000000" id="o"/>
        <path d="M644.148,24.222 C641.259,23.333 639.704,25.185 639.704,28.444 L639.704,35.333 L636,35.333 L635.926,21.259 L639.407,21.259 C639.556,22.222 639.333,23.407 639.63,24.222 C640.074,22.148 641.63,20.296 644.148,21.185 L644.148,24.222" fill="#000000" id="q"/>
      </g>
      <path d="M665.407,21.852 C665.407,27.63 659.185,28.222 657.185,32.296 L665.704,32.296 L665.704,35.333 L652.815,35.333 C652.37,27.852 660.148,27.926 661.704,22 C661.778,20.37 660.815,19.704 659.259,19.63 C657.556,19.63 656.889,20.667 656.667,22.148 L653.037,21.926 C653.407,18.593 655.407,16.741 659.259,16.741 C663.037,16.741 665.407,18.37 665.407,21.852" fill="#000000" id="s"/>
      <path d="M41,40 C18.9,40 1,57.9 1,80 L1,320 C1,342.1 18.9,360 41,360 M301,360 C323.1,360 341,342.1 341,320 L341,80 C341,57.9 323.1,40 301,40 M841,40 C818.9,40 801,57.9 801,80 L801,320 C801,342.1 818.9,360 841,360 M1101,360 C1123.1,360 1141,342.1 1141,320 L1141,80 C1141,57.9 1123.1,40 1101,40" fill-opacity="0" stroke="#000000" stroke-width="2"/>
      <g id="a">
        <path d="M897.037,16.963 C905.926,16.444 913.556,17.333 913.407,26 C913.333,31.926 910.148,35.333 904.444,35.333 L897.037,35.333 L897.037,16.963 z M900.889,32.37 C906.37,32.889 909.556,31.037 909.556,26 C909.556,21.037 906.222,19.481 900.889,19.926 L900.889,32.37" fill="#000000" id="k"/>
        <path d="M924.296,32.815 C923.111,34.222 922.074,35.704 919.556,35.63 C916.815,35.556 915.259,34.148 915.259,31.333 C915.185,26.889 919.333,26.667 923.852,26.815 C923.926,24.889 923.63,23.333 921.778,23.333 C920.444,23.407 919.852,24 919.704,25.333 L915.852,25.185 C916.37,22.37 918.518,20.889 921.926,20.963 C925.333,21.037 927.407,22.593 927.481,26 L927.556,32.074 C927.481,33.111 928.444,33.407 929.407,33.185 L929.407,35.185 C927.185,35.778 924.148,35.556 924.296,32.815 z M920.741,33.037 C922.889,33.037 923.926,31.259 923.852,28.815 C921.481,28.815 918.963,28.593 919.037,31.037 C919.037,32.296 919.63,33.037 920.741,33.037" fill="#000000" id="l"/>
        <path d="M937.778,35.111 C935.111,36.148 931.333,35.63 931.333,32 L931.333,23.704 L929.556,23.704 L929.556,21.259 L931.556,21.259 L932.667,17.926 L934.963,17.926 L934.963,21.259 L937.63,21.259 L937.63,23.704 L934.963,23.704 L934.963,31.037 C934.889,32.741 936.148,33.333 937.778,32.889 L937.778,35.111" fill="#000000" id="m"/>
        <path d="M947.926,32.815 C946.741,34.222 945.704,35.704 943.185,35.63 C940.444,35.556 938.889,34.148 938.889,31.333 C938.815,26.889 942.963,26.667 947.482,26.815 C947.556,24.889 947.259,23.333 945.407,23.333 C944.074,23.407 943.482,24 943.333,25.333 L939.482,25.185 C940,22.37 942.148,20.889 945.556,20.963 C948.963,21.037 951.037,22.593 951.111,26 L951.185,32.074 C951.111,33.111 952.074,33.407 953.037,33.185 L953.037,35.185 C950.815,35.778 947.778,35.556 947.926,32.815 z M944.37,33.037 C946.519,33.037 947.556,31.259 947.482,28.815 C945.111,28.815 942.593,28.593 942.667,31.037 C942.667,32.296 943.259,33.037 944.37,33.037" fill="#000000" id="l"/>
      </g>
      <g id="b">
        <path d="M965.259,26.074 C965.259,30 966.815,32.519 970.667,32.593 C973.407,32.667 974.667,30.963 975.481,29.111 L978.815,30.37 C977.556,33.481 975.037,35.63 970.667,35.63 C964.593,35.63 961.778,32.222 961.407,26.074 C960.889,17.926 969.481,14.519 975.926,18.148 C977.259,18.889 978.074,20.296 978.593,21.852 L975.185,22.741 C974.593,20.889 972.963,19.704 970.593,19.704 C966.741,19.704 965.333,22.222 965.259,26.074" fill="#000000" id="n"/>
        <path d="M993.185,31.778 C992.222,34 990.444,35.704 987.111,35.63 C982.667,35.481 980.519,32.889 980.519,28.222 C980.519,23.556 982.741,20.963 987.185,20.963 C991.778,20.963 993.333,24.296 993.407,28.963 L984.37,28.963 C984.37,31.259 984.963,33.037 987.259,33.111 C988.593,33.111 989.482,32.593 989.778,31.481 z M989.852,26.667 C990.222,23.259 985.63,22 984.667,25.111 C984.519,25.556 984.37,26.074 984.37,26.667 L989.852,26.667" fill="#000000" id="o"/>
        <path d="M1004.296,20.963 C1010.741,20.889 1008.593,29.333 1008.963,35.333 L1005.259,35.333 C1004.741,31.111 1006.963,23.704 1002.741,23.704 C998.37,23.704 1000.222,30.889 999.852,35.333 L996.148,35.333 L996.074,21.259 L999.556,21.259 C999.704,22.148 999.482,23.333 999.778,24.074 C1000.667,22.148 1001.852,21.037 1004.296,20.963" fill="#000000" id="p"/>
        <path d="M1019.037,35.111 C1016.37,36.148 1012.593,35.63 1012.593,32 L1012.593,23.704 L1010.815,23.704 L1010.815,21.259 L1012.815,21.259 L1013.926,17.926 L1016.222,17.926 L1016.222,21.259 L1018.889,21.259 L1018.889,23.704 L1016.222,23.704 L1016.222,31.037 C1016.148,32.741 1017.407,33.333 1019.037,32.889 L1019.037,35.111" fill="#000000" id="m"/>
        <path d="M1033.037,31.778 C1032.074,34 1030.296,35.704 1026.963,35.63 C1022.518,35.481 1020.37,32.889 1020.37,28.222 C1020.37,23.556 1022.593,20.963 1027.037,20.963 C1031.63,20.963 1033.185,24.296 1033.259,28.963 L1024.222,28.963 C1024.222,31.259 1024.815,33.037 1027.111,33.111 C1028.444,33.111 1029.333,32.593 1029.63,31.481 z M1029.704,26.667 C1030.074,23.259 1025.481,22 1024.518,25.111 C1024.37,25.556 1024.222,26.074 1024.222,26.667 L1029.704,26.667" fill="#000000" id="o"/>
        <path d="M1044.148,24.222 C1041.259,23.333 1039.704,25.185 1039.704,28.444 L1039.704,35.333 L1036,35.333 L1035.926,21.259 L1039.407,21.259 C1039.556,22.222 1039.333,23.407 1039.63,24.222 C1040.074,22.148 1041.63,20.296 1044.148,21.185 L1044.148,24.222" fill="#000000" id="q"/>
      </g>
      <path d="M1061.407,25.926 C1063.926,26.222 1065.556,27.481 1065.778,30.222 C1066.296,36.963 1054.815,37.185 1053.037,32.296 C1052.741,31.63 1052.593,31.037 1052.519,30.37 L1056.296,30 C1056.37,31.778 1057.481,32.593 1059.259,32.667 C1060.963,32.667 1062.148,31.778 1062.074,30 C1062,27.704 1059.778,27.333 1057.259,27.481 L1057.259,24.519 C1059.63,24.667 1061.63,24.296 1061.63,22.074 C1061.63,20.593 1060.667,19.63 1059.111,19.63 C1057.556,19.63 1056.667,20.593 1056.519,22 L1052.815,21.778 C1053.259,18.519 1055.556,16.741 1059.185,16.741 C1062.889,16.741 1065.333,18.222 1065.333,21.63 C1065.333,24.222 1063.704,25.481 1061.407,25.926" fill="#000000" id="t"/>
      <g>
        <path d="M41,60 L281,60 L281,160 L41,160 z" fill="#0C7CBA"/>
        <path d="M41,60 L281,60 L281,160 L41,160 z" fill-opacity="0" stroke="#000000" stroke-width="2"/>
      </g>
      <g id="f">
        <path d="M118.806,83.229 C118.806,86.406 116.319,88.438 113.077,88.372 L110.46,88.372 L110.46,96.615 L108.324,96.615 L108.324,78.242 L112.986,78.242 C116.306,78.19 118.806,80.013 118.806,83.229 z M116.54,83.359 C116.54,81.38 114.913,80.104 112.882,80.104 L110.46,80.104 L110.46,86.51 L112.777,86.51 C115.29,86.51 116.54,85.456 116.54,83.359" fill="#FFFFFF" id="u"/>
        <path d="M131.319,84.779 C129.366,84.779 127.973,86.628 127.257,87.839 L127.257,96.615 L125.238,96.615 L125.238,83.047 L127.257,83.047 L127.257,85.794 C128.819,82.682 131.319,82.018 134.457,83.411 L133.637,85.365 C132.738,84.974 131.97,84.779 131.319,84.779" fill="#FFFFFF" id="v"/>
        <path d="M144.522,79.31 C144.522,78.607 145.186,77.917 145.876,77.917 C146.618,77.917 147.257,78.568 147.257,79.31 C147.257,80.078 146.645,80.716 145.876,80.716 C145.186,80.716 144.522,80.013 144.522,79.31 z M146.866,96.615 L144.835,96.615 L144.835,84.805 L140.837,84.805 L140.837,83.047 L146.866,83.047 L146.866,96.615" fill="#FFFFFF" id="w"/>
        <path d="M161.931,85.091 C162.53,83.971 163.467,82.721 164.861,82.721 C166.501,82.721 167.322,84.193 167.322,87.122 L167.322,96.615 L165.29,96.615 L165.29,87.708 C165.368,84.388 164.092,83.529 162.738,85.599 C162.243,86.341 162.009,86.745 162.009,86.823 L162.009,96.615 L159.991,96.615 L159.991,87.708 C160.069,84.401 158.793,83.529 157.452,85.599 C156.957,86.341 156.71,86.745 156.71,86.823 L156.71,96.615 L154.678,96.615 L154.678,83.047 L156.632,83.047 L156.632,85.091 C157.23,83.971 158.155,82.721 159.561,82.721 C160.85,82.721 161.684,83.88 161.931,85.091" fill="#FFFFFF" id="x"/>
        <path d="M176.97,84.479 C175.746,84.492 173.858,85.104 172.999,85.599 L172.465,84.141 C174.314,83.19 176.033,82.721 177.621,82.721 C180.707,82.721 182.257,84.362 182.257,87.63 C182.257,90.638 182.009,94.115 182.595,96.615 L180.577,96.615 C180.408,96.068 180.329,95.339 180.329,94.427 C179.171,96.12 177.608,96.966 175.616,96.966 C172.96,96.966 170.824,94.023 172.204,91.354 C173.402,89.023 176.853,88.854 180.225,88.62 C180.382,85.951 179.366,84.44 176.97,84.479 z M176.202,95.013 C178.012,94.961 179.353,93.828 180.225,92.591 L180.225,90.13 C177.191,90.495 176.293,90.273 174.678,91.393 C174.158,91.758 173.936,92.318 173.936,92.982 C173.91,94.206 174.952,95.052 176.202,95.013" fill="#FFFFFF" id="y"/>
        <path d="M195.329,84.779 C193.376,84.779 191.983,86.628 191.267,87.839 L191.267,96.615 L189.249,96.615 L189.249,83.047 L191.267,83.047 L191.267,85.794 C192.829,82.682 195.329,82.018 198.467,83.411 L197.647,85.365 C196.749,84.974 195.98,84.779 195.329,84.779" fill="#FFFFFF" id="v"/>
        <path d="M214.874,83.047 L209.73,96.615 C208.988,98.607 208.233,99.987 207.517,100.794 C206.241,102.24 204.444,102.188 202.53,101.523 L202.868,99.896 C204.314,100.352 205.59,100.404 206.436,99.362 C206.905,98.802 207.374,97.878 207.855,96.589 L202.764,83.047 L204.978,83.047 L208.819,93.867 L212.66,83.047 L214.874,83.047" fill="#FFFFFF" id="z"/>
      </g>
      <g id="h">
        <path d="M127.571,129.462 L124.142,138.507 L122.91,138.507 L119.498,129.462 L120.974,129.462 L123.535,136.658 L126.095,129.462 L127.571,129.462" fill="#CCCCCC" id="A"/>
        <path d="M130.253,133.976 C130.253,131.311 131.747,129.245 134.325,129.245 C136.894,129.245 138.396,131.319 138.396,133.976 C138.396,136.649 136.903,138.741 134.325,138.741 C131.738,138.741 130.253,136.658 130.253,133.976 z M131.677,133.993 C131.677,135.816 132.571,137.561 134.325,137.561 C136.052,137.561 136.981,135.781 136.981,133.993 C136.981,132.109 136.113,130.417 134.325,130.417 C132.519,130.417 131.677,132.083 131.677,133.993" fill="#CCCCCC" id="B"/>
        <path d="M144.802,135.807 C144.785,136.797 145.245,137.543 146.156,137.543 C146.894,137.543 147.632,137.378 148.352,137.049 L148.587,138.099 C147.675,138.516 146.781,138.724 145.905,138.724 C144.29,138.724 143.483,137.873 143.483,136.163 L143.483,130.634 L141.747,130.634 L141.747,129.462 L143.483,129.462 L143.483,126.988 L144.802,126.988 L144.802,129.462 L147.875,129.462 L147.875,130.634 L144.802,130.634 L144.802,135.807" fill="#CCCCCC" id="C"/>
        <path d="M155.774,129.245 C157.988,129.253 159.516,131.207 159.438,133.602 L159.438,134.028 L153.231,134.028 C153.161,135.911 154.524,137.561 156.304,137.561 C157.128,137.561 157.97,137.413 158.847,137.118 L159.082,138.203 C158.283,138.559 157.354,138.741 156.286,138.741 C153.561,138.741 151.807,136.762 151.807,133.958 C151.807,131.328 153.309,129.245 155.774,129.245 z M157.962,132.925 C158.031,131.667 156.972,130.417 155.826,130.417 C154.385,130.417 153.378,131.528 153.318,132.925 L157.962,132.925" fill="#CCCCCC" id="D"/>
        <path d="M163.023,131.788 C163.023,130.026 164.811,129.245 166.764,129.245 C167.493,129.245 168.3,129.366 169.194,129.618 L168.891,130.755 C168.135,130.503 167.415,130.382 166.747,130.382 C165.549,130.373 164.359,130.738 164.359,131.736 C164.359,131.997 164.438,132.24 164.655,132.413 C165.505,133.116 167.649,133.307 168.587,133.941 C169.247,134.384 169.715,134.939 169.715,135.946 C169.715,137.812 167.858,138.741 165.87,138.741 C164.759,138.741 163.839,138.576 163.118,138.238 L163.378,137.066 C164.134,137.422 164.95,137.604 165.818,137.604 C167.068,137.604 168.361,137.153 168.361,136.068 C168.361,135.755 168.248,135.469 168.014,135.226 C167.771,134.8 165.418,134.193 164.811,133.976 C163.873,133.637 163.023,133.03 163.023,131.788" fill="#CCCCCC" id="E"/>
        <path d="M175.896,130.365 C175.896,129.8 176.365,129.332 176.929,129.332 C177.502,129.332 177.979,129.8 177.979,130.365 C177.979,130.929 177.502,131.398 176.929,131.398 C176.365,131.398 175.896,130.929 175.896,130.365 z M175.896,137.622 C175.896,137.049 176.365,136.589 176.929,136.589 C177.502,136.589 177.979,137.049 177.979,137.622 C177.979,138.186 177.502,138.646 176.929,138.646 C176.365,138.646 175.896,138.186 175.896,137.622" fill="#CCCCCC" id="F"/>
      </g>
      <path d="M201.842,138.507 L195.401,138.507 L195.401,137.266 L197.997,137.266 L197.997,127.752 L195.549,128.976 L195.549,127.552 L198.196,126.189 L199.42,126.189 L199.42,137.266 L201.842,137.266 L201.842,138.507" fill="#CCCCCC" id="G"/>
      <g>
        <path d="M41,200 L281,200 L281,300 L41,300 z" fill="#7AB648"/>
        <path d="M41,200 L281,200 L281,300 L41,300 z" fill-opacity="0" stroke="#000000" stroke-width="2"/>
      </g>
      <g>
        <g id="j">
          <path d="M92.257,224.31 C90.902,220.547 94.027,217.891 97.738,217.891 C98.962,217.891 100.173,218.073 101.384,218.451 L100.902,220.273 C98.168,219.206 94.053,219.492 94.027,222.643 C94.027,223.75 94.952,224.701 96.775,225.573 C99.079,226.68 99.392,226.602 100.798,227.878 C101.645,228.646 102.296,229.779 102.296,231.328 C102.296,234.779 99.496,236.979 96.241,236.966 C94.665,236.966 93.272,236.654 92.087,236.029 L92.53,234.193 C93.923,234.831 95.147,235.143 96.189,235.143 C98.493,235.143 100.238,233.854 100.212,231.602 C100.212,230.781 99.978,230.104 99.496,229.531 C99.014,228.958 98.129,228.398 96.853,227.786 C94.652,226.732 94.405,226.836 93.142,225.625 C92.751,225.247 92.439,224.805 92.257,224.31" fill="#FFFFFF" id="H"/>
          <path d="M113.155,222.721 C116.475,222.734 118.767,225.664 118.65,229.258 L118.65,229.896 L109.34,229.896 C109.236,232.721 111.28,235.195 113.949,235.195 C115.186,235.195 116.449,234.974 117.764,234.531 L118.116,236.159 C116.918,236.693 115.525,236.966 113.923,236.966 C109.835,236.966 107.204,233.997 107.204,229.792 C107.204,225.846 109.457,222.721 113.155,222.721 z M116.436,228.242 C116.54,226.354 114.952,224.479 113.233,224.479 C111.072,224.479 109.561,226.146 109.47,228.242 L116.436,228.242" fill="#FFFFFF" id="I"/>
          <path d="M125.421,229.844 C125.421,232.734 127.413,235.195 130.303,235.195 C131.449,235.195 132.634,234.974 133.845,234.531 L134.197,236.159 C133.012,236.693 131.723,236.966 130.303,236.966 C126.085,236.966 123.285,234.062 123.285,229.844 C123.285,225.651 126.111,222.721 130.251,222.721 C131.618,222.721 132.908,222.956 134.145,223.438 L133.611,225.117 C132.374,224.688 131.267,224.479 130.277,224.479 C127.23,224.453 125.421,226.706 125.421,229.844" fill="#FFFFFF" id="J"/>
          <path d="M138.884,229.818 C138.884,225.82 141.124,222.721 144.991,222.721 C148.845,222.721 151.098,225.833 151.098,229.818 C151.098,233.828 148.858,236.966 144.991,236.966 C141.111,236.966 138.884,233.841 138.884,229.818 z M141.02,229.844 C141.02,232.578 142.361,235.195 144.991,235.195 C147.582,235.195 148.975,232.526 148.975,229.844 C148.975,227.018 147.673,224.479 144.991,224.479 C142.283,224.479 141.02,226.979 141.02,229.844" fill="#FFFFFF" id="K"/>
          <path d="M164.223,227.917 C164.21,225.781 163.741,224.479 161.827,224.479 C160.59,224.479 159.249,225.247 157.829,226.797 L157.829,236.615 L155.798,236.615 L155.798,223.047 L157.829,223.047 L157.829,225.039 C159.288,223.49 160.824,222.721 162.439,222.721 C164.978,222.721 166.254,224.258 166.254,227.331 L166.254,236.615 L164.223,236.615 L164.223,227.917" fill="#FFFFFF" id="L"/>
          <path d="M170.889,229.622 C170.889,226.068 172.712,222.721 176.046,222.721 C177.751,222.721 179.132,223.411 180.173,224.805 L180.173,218.242 L182.204,218.242 L182.204,236.615 L180.173,236.615 L180.173,234.661 C179.457,235.859 177.764,236.966 175.928,236.966 C174.379,236.966 173.142,236.276 172.243,234.896 C171.345,233.516 170.889,231.745 170.889,229.622 z M173.025,229.74 C173.025,232.409 174.053,235.143 176.462,235.143 C177.829,235.143 178.741,234.375 179.483,233.477 C179.939,232.917 180.173,232.578 180.173,232.461 L180.173,226.823 C179.197,225.26 178.025,224.479 176.658,224.479 C174.197,224.492 173.025,227.083 173.025,229.74" fill="#FFFFFF" id="M"/>
          <path d="M192.973,224.479 C191.749,224.492 189.861,225.104 189.001,225.599 L188.467,224.141 C190.316,223.19 192.035,222.721 193.624,222.721 C196.71,222.721 198.259,224.362 198.259,227.63 C198.259,230.638 198.012,234.115 198.598,236.615 L196.579,236.615 C196.41,236.068 196.332,235.339 196.332,234.427 C195.173,236.12 193.611,236.966 191.618,236.966 C188.962,236.966 186.827,234.023 188.207,231.354 C189.405,229.023 192.855,228.854 196.228,228.62 C196.384,225.951 195.368,224.44 192.973,224.479 z M192.204,235.013 C194.014,234.961 195.355,233.828 196.228,232.591 L196.228,230.13 C193.194,230.495 192.296,230.273 190.681,231.393 C190.16,231.758 189.939,232.318 189.939,232.982 C189.913,234.206 190.954,235.052 192.204,235.013" fill="#FFFFFF" id="y"/>
          <path d="M211.332,224.779 C209.379,224.779 207.986,226.628 207.27,227.839 L207.27,236.615 L205.251,236.615 L205.251,223.047 L207.27,223.047 L207.27,225.794 C208.832,222.682 211.332,222.018 214.47,223.411 L213.65,225.365 C212.751,224.974 211.983,224.779 211.332,224.779" fill="#FFFFFF" id="v"/>
          <path d="M230.876,223.047 L225.733,236.615 C224.991,238.607 224.236,239.987 223.52,240.794 C222.243,242.24 220.447,242.188 218.533,241.523 L218.871,239.896 C220.316,240.352 221.592,240.404 222.439,239.362 C222.908,238.802 223.376,237.878 223.858,236.589 L218.767,223.047 L220.98,223.047 L224.822,233.867 L228.663,223.047 L230.876,223.047" fill="#FFFFFF" id="z"/>
        </g>
        <g id="h">
          <path d="M127.571,269.462 L124.142,278.507 L122.91,278.507 L119.498,269.462 L120.974,269.462 L123.535,276.658 L126.095,269.462 L127.571,269.462" fill="#CCCCCC" id="A"/>
          <path d="M130.253,273.976 C130.253,271.311 131.747,269.245 134.325,269.245 C136.894,269.245 138.396,271.319 138.396,273.976 C138.396,276.649 136.903,278.741 134.325,278.741 C131.738,278.741 130.253,276.658 130.253,273.976 z M131.677,273.993 C131.677,275.816 132.571,277.561 134.325,277.561 C136.052,277.561 136.981,275.781 136.981,273.993 C136.981,272.109 136.113,270.417 134.325,270.417 C132.519,270.417 131.677,272.083 131.677,273.993" fill="#CCCCCC" id="B"/>
          <path d="M144.802,275.807 C144.785,276.797 145.245,277.543 146.156,277.543 C146.894,277.543 147.632,277.378 148.352,277.049 L148.587,278.099 C147.675,278.516 146.781,278.724 145.905,278.724 C144.29,278.724 143.483,277.873 143.483,276.163 L143.483,270.634 L141.747,270.634 L141.747,269.462 L143.483,269.462 L143.483,266.988 L144.802,266.988 L144.802,269.462 L147.875,269.462 L147.875,270.634 L144.802,270.634 L144.802,275.807" fill="#CCCCCC" id="C"/>
          <path d="M155.774,269.245 C157.988,269.253 159.516,271.207 159.438,273.602 L159.438,274.028 L153.231,274.028 C153.161,275.911 154.524,277.561 156.304,277.561 C157.128,277.561 157.97,277.413 158.847,277.118 L159.082,278.203 C158.283,278.559 157.354,278.741 156.286,278.741 C153.561,278.741 151.807,276.762 151.807,273.958 C151.807,271.328 153.309,269.245 155.774,269.245 z M157.962,272.925 C158.031,271.667 156.972,270.417 155.826,270.417 C154.385,270.417 153.378,271.528 153.318,272.925 L157.962,272.925" fill="#CCCCCC" id="D"/>
          <path d="M163.023,271.788 C163.023,270.026 164.811,269.245 166.764,269.245 C167.493,269.245 168.3,269.366 169.194,269.618 L168.891,270.755 C168.135,270.503 167.415,270.382 166.747,270.382 C165.549,270.373 164.359,270.738 164.359,271.736 C164.359,271.997 164.438,272.24 164.655,272.413 C165.505,273.116 167.649,273.307 168.587,273.941 C169.247,274.384 169.715,274.939 169.715,275.946 C169.715,277.812 167.858,278.741 165.87,278.741 C164.759,278.741 163.839,278.576 163.118,278.238 L163.378,277.066 C164.134,277.422 164.95,277.604 165.818,277.604 C167.068,277.604 168.361,277.153 168.361,276.068 C168.361,275.755 168.248,275.469 168.014,275.226 C167.771,274.8 165.418,274.193 164.811,273.976 C163.873,273.637 163.023,273.03 163.023,271.788" fill="#CCCCCC" id="E"/>
          <path d="M175.896,270.365 C175.896,269.8 176.365,269.332 176.929,269.332 C177.502,269.332 177.979,269.8 177.979,270.365 C177.979,270.929 177.502,271.398 176.929,271.398 C176.365,271.398 175.896,270.929 175.896,270.365 z M175.896,277.622 C175.896,277.049 176.365,276.589 176.929,276.589 C177.502,276.589 177.979,277.049 177.979,277.622 C177.979,278.186 177.502,278.646 176.929,278.646 C176.365,278.646 175.896,278.186 175.896,277.622" fill="#CCCCCC" id="F"/>
        </g>
        <path d="M201.842,278.506 L195.401,278.506 L195.401,277.265 L197.997,277.265 L197.997,267.751 L195.549,268.975 L195.549,267.551 L198.196,266.188 L199.42,266.188 L199.42,277.265 L201.842,277.265 L201.842,278.506" fill="#CCCCCC" id="G"/>
      </g>
      <g>
        <path d="M451,60 L691,60 L691,160 L451,160 z" fill="#7AB648"/>
        <path d="M451,60 L691,60 L691,160 L451,160 z" fill-opacity="0" stroke="#000000" stroke-width="2"/>
      </g>
      <g>
        <g id="j">
          <path d="M502.257,84.31 C500.902,80.547 504.027,77.891 507.738,77.891 C508.962,77.891 510.173,78.073 511.384,78.451 L510.902,80.273 C508.168,79.206 504.053,79.492 504.027,82.643 C504.027,83.75 504.952,84.701 506.775,85.573 C509.079,86.68 509.392,86.602 510.798,87.878 C511.645,88.646 512.296,89.779 512.296,91.328 C512.296,94.779 509.496,96.979 506.241,96.966 C504.665,96.966 503.272,96.654 502.087,96.029 L502.53,94.193 C503.923,94.831 505.147,95.143 506.189,95.143 C508.493,95.143 510.238,93.854 510.212,91.602 C510.212,90.781 509.978,90.104 509.496,89.531 C509.014,88.958 508.129,88.398 506.853,87.786 C504.652,86.732 504.405,86.836 503.142,85.625 C502.751,85.247 502.439,84.805 502.257,84.31" fill="#FFFFFF" id="H"/>
          <path d="M523.155,82.721 C526.475,82.734 528.767,85.664 528.65,89.258 L528.65,89.896 L519.34,89.896 C519.236,92.721 521.28,95.195 523.949,95.195 C525.186,95.195 526.449,94.974 527.764,94.531 L528.116,96.159 C526.918,96.693 525.525,96.966 523.923,96.966 C519.835,96.966 517.204,93.997 517.204,89.792 C517.204,85.846 519.457,82.721 523.155,82.721 z M526.436,88.242 C526.54,86.354 524.952,84.479 523.233,84.479 C521.072,84.479 519.561,86.146 519.47,88.242 L526.436,88.242" fill="#FFFFFF" id="I"/>
          <path d="M535.421,89.844 C535.421,92.734 537.413,95.195 540.303,95.195 C541.449,95.195 542.634,94.974 543.845,94.531 L544.197,96.159 C543.012,96.693 541.723,96.966 540.303,96.966 C536.085,96.966 533.285,94.062 533.285,89.844 C533.285,85.651 536.111,82.721 540.251,82.721 C541.618,82.721 542.908,82.956 544.144,83.437 L543.611,85.117 C542.374,84.687 541.267,84.479 540.277,84.479 C537.23,84.453 535.421,86.706 535.421,89.844" fill="#FFFFFF" id="J"/>
          <path d="M548.884,89.818 C548.884,85.82 551.124,82.721 554.991,82.721 C558.845,82.721 561.098,85.833 561.098,89.818 C561.098,93.828 558.858,96.966 554.991,96.966 C551.111,96.966 548.884,93.841 548.884,89.818 z M551.019,89.844 C551.019,92.578 552.361,95.195 554.991,95.195 C557.582,95.195 558.975,92.526 558.975,89.844 C558.975,87.018 557.673,84.479 554.991,84.479 C552.283,84.479 551.019,86.979 551.019,89.844" fill="#FFFFFF" id="K"/>
          <path d="M574.223,87.917 C574.21,85.781 573.741,84.479 571.827,84.479 C570.59,84.479 569.249,85.247 567.829,86.797 L567.829,96.615 L565.798,96.615 L565.798,83.047 L567.829,83.047 L567.829,85.039 C569.288,83.49 570.824,82.721 572.439,82.721 C574.978,82.721 576.254,84.258 576.254,87.331 L576.254,96.615 L574.223,96.615 L574.223,87.917" fill="#FFFFFF" id="L"/>
          <path d="M580.889,89.622 C580.889,86.068 582.712,82.721 586.046,82.721 C587.751,82.721 589.131,83.411 590.173,84.805 L590.173,78.242 L592.204,78.242 L592.204,96.615 L590.173,96.615 L590.173,94.661 C589.457,95.859 587.764,96.966 585.928,96.966 C584.379,96.966 583.142,96.276 582.243,94.896 C581.345,93.516 580.889,91.745 580.889,89.622 z M583.025,89.74 C583.025,92.409 584.053,95.143 586.462,95.143 C587.829,95.143 588.741,94.375 589.483,93.477 C589.939,92.917 590.173,92.578 590.173,92.461 L590.173,86.823 C589.197,85.26 588.025,84.479 586.658,84.479 C584.197,84.492 583.025,87.083 583.025,89.74" fill="#FFFFFF" id="M"/>
          <path d="M602.973,84.479 C601.749,84.492 599.861,85.104 599.001,85.599 L598.467,84.141 C600.316,83.19 602.035,82.721 603.624,82.721 C606.71,82.721 608.259,84.362 608.259,87.63 C608.259,90.638 608.012,94.115 608.598,96.615 L606.579,96.615 C606.41,96.068 606.332,95.339 606.332,94.427 C605.173,96.12 603.611,96.966 601.618,96.966 C598.962,96.966 596.827,94.023 598.207,91.354 C599.405,89.023 602.855,88.854 606.228,88.62 C606.384,85.951 605.368,84.44 602.973,84.479 z M602.204,95.013 C604.014,94.961 605.355,93.828 606.228,92.591 L606.228,90.13 C603.194,90.495 602.296,90.273 600.681,91.393 C600.16,91.758 599.939,92.318 599.939,92.982 C599.913,94.206 600.954,95.052 602.204,95.013" fill="#FFFFFF" id="y"/>
          <path d="M621.332,84.779 C619.379,84.779 617.986,86.628 617.27,87.839 L617.27,96.615 L615.251,96.615 L615.251,83.047 L617.27,83.047 L617.27,85.794 C618.832,82.682 621.332,82.018 624.47,83.411 L623.65,85.365 C622.751,84.974 621.983,84.779 621.332,84.779" fill="#FFFFFF" id="v"/>
          <path d="M640.876,83.047 L635.733,96.615 C634.991,98.607 634.236,99.987 633.52,100.794 C632.243,102.24 630.447,102.188 628.533,101.523 L628.871,99.896 C630.316,100.352 631.592,100.404 632.439,99.362 C632.908,98.802 633.376,97.878 633.858,96.589 L628.767,83.047 L630.98,83.047 L634.822,93.867 L638.663,83.047 L640.876,83.047" fill="#FFFFFF" id="z"/>
        </g>
        <g id="h">
          <path d="M537.571,129.462 L534.142,138.507 L532.91,138.507 L529.498,129.462 L530.974,129.462 L533.535,136.658 L536.095,129.462 L537.571,129.462" fill="#CCCCCC" id="A"/>
          <path d="M540.253,133.976 C540.253,131.311 541.747,129.245 544.325,129.245 C546.894,129.245 548.396,131.319 548.396,133.976 C548.396,136.649 546.903,138.741 544.325,138.741 C541.738,138.741 540.253,136.658 540.253,133.976 z M541.677,133.993 C541.677,135.816 542.571,137.561 544.325,137.561 C546.052,137.561 546.981,135.781 546.981,133.993 C546.981,132.109 546.113,130.417 544.325,130.417 C542.519,130.417 541.677,132.083 541.677,133.993" fill="#CCCCCC" id="B"/>
          <path d="M554.802,135.807 C554.785,136.797 555.245,137.543 556.156,137.543 C556.894,137.543 557.632,137.378 558.352,137.049 L558.587,138.099 C557.675,138.516 556.781,138.724 555.904,138.724 C554.29,138.724 553.483,137.873 553.483,136.163 L553.483,130.634 L551.747,130.634 L551.747,129.462 L553.483,129.462 L553.483,126.988 L554.802,126.988 L554.802,129.462 L557.875,129.462 L557.875,130.634 L554.802,130.634 L554.802,135.807" fill="#CCCCCC" id="C"/>
          <path d="M565.774,129.245 C567.988,129.253 569.516,131.207 569.438,133.602 L569.438,134.028 L563.231,134.028 C563.161,135.911 564.524,137.561 566.304,137.561 C567.128,137.561 567.971,137.413 568.847,137.118 L569.082,138.203 C568.283,138.559 567.354,138.741 566.286,138.741 C563.561,138.741 561.807,136.762 561.807,133.958 C561.807,131.328 563.309,129.245 565.774,129.245 z M567.962,132.925 C568.031,131.667 566.972,130.417 565.826,130.417 C564.385,130.417 563.378,131.528 563.318,132.925 L567.962,132.925" fill="#CCCCCC" id="D"/>
          <path d="M573.023,131.788 C573.023,130.026 574.811,129.245 576.764,129.245 C577.493,129.245 578.3,129.366 579.194,129.618 L578.891,130.755 C578.135,130.503 577.415,130.382 576.747,130.382 C575.549,130.373 574.359,130.738 574.359,131.736 C574.359,131.997 574.438,132.24 574.655,132.413 C575.505,133.116 577.649,133.307 578.587,133.941 C579.247,134.384 579.715,134.939 579.715,135.946 C579.715,137.812 577.858,138.741 575.87,138.741 C574.759,138.741 573.839,138.576 573.118,138.238 L573.378,137.066 C574.134,137.422 574.95,137.604 575.818,137.604 C577.068,137.604 578.361,137.153 578.361,136.068 C578.361,135.755 578.248,135.469 578.014,135.226 C577.771,134.8 575.418,134.193 574.811,133.976 C573.873,133.637 573.023,133.03 573.023,131.788" fill="#CCCCCC" id="E"/>
          <path d="M585.896,130.365 C585.896,129.8 586.365,129.332 586.929,129.332 C587.502,129.332 587.979,129.8 587.979,130.365 C587.979,130.929 587.502,131.398 586.929,131.398 C586.365,131.398 585.896,130.929 585.896,130.365 z M585.896,137.622 C585.896,137.049 586.365,136.589 586.929,136.589 C587.502,136.589 587.979,137.049 587.979,137.622 C587.979,138.186 587.502,138.646 586.929,138.646 C586.365,138.646 585.896,138.186 585.896,137.622" fill="#CCCCCC" id="F"/>
        </g>
        <path d="M611.842,138.507 L605.401,138.507 L605.401,137.266 L607.997,137.266 L607.997,127.752 L605.549,128.976 L605.549,127.552 L608.196,126.189 L609.42,126.189 L609.42,137.266 L611.842,137.266 L611.842,138.507" fill="#CCCCCC" id="G"/>
      </g>
      <g>
        <path d="M451,200 L691,200 L691,300 L451,300 z" fill="#7AB648"/>
        <path d="M451,200 L691,200 L691,300 L451,300 z" fill-opacity="0" stroke="#000000" stroke-width="2"/>
      </g>
      <g>
        <g id="j">
          <path d="M502.257,224.31 C500.902,220.547 504.027,217.891 507.738,217.891 C508.962,217.891 510.173,218.073 511.384,218.451 L510.902,220.273 C508.168,219.206 504.053,219.492 504.027,222.643 C504.027,223.75 504.952,224.701 506.775,225.573 C509.079,226.68 509.392,226.602 510.798,227.878 C511.645,228.646 512.296,229.779 512.296,231.328 C512.296,234.779 509.496,236.979 506.241,236.966 C504.665,236.966 503.272,236.654 502.087,236.029 L502.53,234.193 C503.923,234.831 505.147,235.143 506.189,235.143 C508.493,235.143 510.238,233.854 510.212,231.602 C510.212,230.781 509.978,230.104 509.496,229.531 C509.014,228.958 508.129,228.398 506.853,227.786 C504.652,226.732 504.405,226.836 503.142,225.625 C502.751,225.247 502.439,224.805 502.257,224.31" fill="#FFFFFF" id="H"/>
          <path d="M523.155,222.721 C526.475,222.734 528.767,225.664 528.65,229.258 L528.65,229.896 L519.34,229.896 C519.236,232.721 521.28,235.195 523.949,235.195 C525.186,235.195 526.449,234.974 527.764,234.531 L528.116,236.159 C526.918,236.693 525.525,236.966 523.923,236.966 C519.835,236.966 517.204,233.997 517.204,229.792 C517.204,225.846 519.457,222.721 523.155,222.721 z M526.436,228.242 C526.54,226.354 524.952,224.479 523.233,224.479 C521.072,224.479 519.561,226.146 519.47,228.242 L526.436,228.242" fill="#FFFFFF" id="I"/>
          <path d="M535.421,229.844 C535.421,232.734 537.413,235.195 540.303,235.195 C541.449,235.195 542.634,234.974 543.845,234.531 L544.197,236.159 C543.012,236.693 541.723,236.966 540.303,236.966 C536.085,236.966 533.285,234.062 533.285,229.844 C533.285,225.651 536.111,222.721 540.251,222.721 C541.618,222.721 542.908,222.956 544.144,223.438 L543.611,225.117 C542.374,224.688 541.267,224.479 540.277,224.479 C537.23,224.453 535.421,226.706 535.421,229.844" fill="#FFFFFF" id="J"/>
          <path d="M548.884,229.818 C548.884,225.82 551.124,222.721 554.991,222.721 C558.845,222.721 561.098,225.833 561.098,229.818 C561.098,233.828 558.858,236.966 554.991,236.966 C551.111,236.966 548.884,233.841 548.884,229.818 z M551.019,229.844 C551.019,232.578 552.361,235.195 554.991,235.195 C557.582,235.195 558.975,232.526 558.975,229.844 C558.975,227.018 557.673,224.479 554.991,224.479 C552.283,224.479 551.019,226.979 551.019,229.844" fill="#FFFFFF" id="K"/>
          <path d="M574.223,227.917 C574.21,225.781 573.741,224.479 571.827,224.479 C570.59,224.479 569.249,225.247 567.829,226.797 L567.829,236.615 L565.798,236.615 L565.798,223.047 L567.829,223.047 L567.829,225.039 C569.288,223.49 570.824,222.721 572.439,222.721 C574.978,222.721 576.254,224.258 576.254,227.331 L576.254,236.615 L574.223,236.615 L574.223,227.917" fill="#FFFFFF" id="L"/>
          <path d="M580.889,229.622 C580.889,226.068 582.712,222.721 586.046,222.721 C587.751,222.721 589.131,223.411 590.173,224.805 L590.173,218.242 L592.204,218.242 L592.204,236.615 L590.173,236.615 L590.173,234.661 C589.457,235.859 587.764,236.966 585.928,236.966 C584.379,236.966 583.142,236.276 582.243,234.896 C581.345,233.516 580.889,231.745 580.889,229.622 z M583.025,229.74 C583.025,232.409 584.053,235.143 586.462,235.143 C587.829,235.143 588.741,234.375 589.483,233.477 C589.939,232.917 590.173,232.578 590.173,232.461 L590.173,226.823 C589.197,225.26 588.025,224.479 586.658,224.479 C584.197,224.492 583.025,227.083 583.025,229.74" fill="#FFFFFF" id="M"/>
          <path d="M602.973,224.479 C601.749,224.492 599.861,225.104 599.001,225.599 L598.467,224.141 C600.316,223.19 602.035,222.721 603.624,222.721 C606.71,222.721 608.259,224.362 608.259,227.63 C608.259,230.638 608.012,234.115 608.598,236.615 L606.579,236.615 C606.41,236.068 606.332,235.339 606.332,234.427 C605.173,236.12 603.611,236.966 601.618,236.966 C598.962,236.966 596.827,234.023 598.207,231.354 C599.405,229.023 602.855,228.854 606.228,228.62 C606.384,225.951 605.368,224.44 602.973,224.479 z M602.204,235.013 C604.014,234.961 605.355,233.828 606.228,232.591 L606.228,230.13 C603.194,230.495 602.296,230.273 600.681,231.393 C600.16,231.758 599.939,232.318 599.939,232.982 C599.913,234.206 600.954,235.052 602.204,235.013" fill="#FFFFFF" id="y"/>
          <path d="M621.332,224.779 C619.379,224.779 617.986,226.628 617.27,227.839 L617.27,236.615 L615.251,236.615 L615.251,223.047 L617.27,223.047 L617.27,225.794 C618.832,222.682 621.332,222.018 624.47,223.411 L623.65,225.365 C622.751,224.974 621.983,224.779 621.332,224.779" fill="#FFFFFF" id="v"/>
          <path d="M640.876,223.047 L635.733,236.615 C634.991,238.607 634.236,239.987 633.52,240.794 C632.243,242.24 630.447,242.188 628.533,241.523 L628.871,239.896 C630.316,240.352 631.592,240.404 632.439,239.362 C632.908,238.802 633.376,237.878 633.858,236.589 L628.767,223.047 L630.98,223.047 L634.822,233.867 L638.663,223.047 L640.876,223.047" fill="#FFFFFF" id="z"/>
        </g>
        <g id="h">
          <path d="M537.571,269.462 L534.142,278.507 L532.91,278.507 L529.498,269.462 L530.974,269.462 L533.535,276.658 L536.095,269.462 L537.571,269.462" fill="#CCCCCC" id="A"/>
          <path d="M540.253,273.976 C540.253,271.311 541.747,269.245 544.325,269.245 C546.894,269.245 548.396,271.319 548.396,273.976 C548.396,276.649 546.903,278.741 544.325,278.741 C541.738,278.741 540.253,276.658 540.253,273.976 z M541.677,273.993 C541.677,275.816 542.571,277.561 544.325,277.561 C546.052,277.561 546.981,275.781 546.981,273.993 C546.981,272.109 546.113,270.417 544.325,270.417 C542.519,270.417 541.677,272.083 541.677,273.993" fill="#CCCCCC" id="B"/>
          <path d="M554.802,275.807 C554.785,276.797 555.245,277.543 556.156,277.543 C556.894,277.543 557.632,277.378 558.352,277.049 L558.587,278.099 C557.675,278.516 556.781,278.724 555.904,278.724 C554.29,278.724 553.483,277.873 553.483,276.163 L553.483,270.634 L551.747,270.634 L551.747,269.462 L553.483,269.462 L553.483,266.988 L554.802,266.988 L554.802,269.462 L557.875,269.462 L557.875,270.634 L554.802,270.634 L554.802,275.807" fill="#CCCCCC" id="C"/>
          <path d="M565.774,269.245 C567.988,269.253 569.516,271.207 569.438,273.602 L569.438,274.028 L563.231,274.028 C563.161,275.911 564.524,277.561 566.304,277.561 C567.128,277.561 567.971,277.413 568.847,277.118 L569.082,278.203 C568.283,278.559 567.354,278.741 566.286,278.741 C563.561,278.741 561.807,276.762 561.807,273.958 C561.807,271.328 563.309,269.245 565.774,269.245 z M567.962,272.925 C568.031,271.667 566.972,270.417 565.826,270.417 C564.385,270.417 563.378,271.528 563.318,272.925 L567.962,272.925" fill="#CCCCCC" id="D"/>
          <path d="M573.023,271.788 C573.023,270.026 574.811,269.245 576.764,269.245 C577.493,269.245 578.3,269.366 579.194,269.618 L578.891,270.755 C578.135,270.503 577.415,270.382 576.747,270.382 C575.549,270.373 574.359,270.738 574.359,271.736 C574.359,271.997 574.438,272.24 574.655,272.413 C575.505,273.116 577.649,273.307 578.587,273.941 C579.247,274.384 579.715,274.939 579.715,275.946 C579.715,277.812 577.858,278.741 575.87,278.741 C574.759,278.741 573.839,278.576 573.118,278.238 L573.378,277.066 C574.134,277.422 574.95,277.604 575.818,277.604 C577.068,277.604 578.361,277.153 578.361,276.068 C578.361,275.755 578.248,275.469 578.014,275.226 C577.771,274.8 575.418,274.193 574.811,273.976 C573.873,273.637 573.023,273.03 573.023,271.788" fill="#CCCCCC" id="E"/>
          <path d="M585.896,270.365 C585.896,269.8 586.365,269.332 586.929,269.332 C587.502,269.332 587.979,269.8 587.979,270.365 C587.979,270.929 587.502,271.398 586.929,271.398 C586.365,271.398 585.896,270.929 585.896,270.365 z M585.896,277.622 C585.896,277.049 586.365,276.589 586.929,276.589 C587.502,276.589 587.979,277.049 587.979,277.622 C587.979,278.186 587.502,278.646 586.929,278.646 C586.365,278.646 585.896,278.186 585.896,277.622" fill="#CCCCCC" id="F"/>
        </g>
        <path d="M611.842,278.506 L605.401,278.506 L605.401,277.265 L607.997,277.265 L607.997,267.751 L605.549,268.975 L605.549,267.551 L608.196,266.188 L609.42,266.188 L609.42,277.265 L611.842,277.265 L611.842,278.506" fill="#CCCCCC" id="G"/>
      </g>
      <g>
        <path d="M861,60 L1101,60 L1101,160 L861,160 z" fill="#7AB648"/>
        <path d="M861,60 L1101,60 L1101,160 L861,160 z" fill-opacity="0" stroke="#000000" stroke-width="2"/>
      </g>
      <g>
        <g id="j">
          <path d="M912.257,84.31 C910.902,80.547 914.027,77.891 917.738,77.891 C918.962,77.891 920.173,78.073 921.384,78.451 L920.902,80.273 C918.168,79.206 914.053,79.492 914.027,82.643 C914.027,83.75 914.952,84.701 916.775,85.573 C919.079,86.68 919.392,86.602 920.798,87.878 C921.645,88.646 922.296,89.779 922.296,91.328 C922.296,94.779 919.496,96.979 916.241,96.966 C914.665,96.966 913.272,96.654 912.087,96.029 L912.53,94.193 C913.923,94.831 915.147,95.143 916.189,95.143 C918.494,95.143 920.238,93.854 920.212,91.602 C920.212,90.781 919.978,90.104 919.496,89.531 C919.014,88.958 918.129,88.398 916.853,87.786 C914.652,86.732 914.405,86.836 913.142,85.625 C912.751,85.247 912.439,84.805 912.257,84.31" fill="#FFFFFF" id="H"/>
          <path d="M933.155,82.721 C936.475,82.734 938.767,85.664 938.65,89.258 L938.65,89.896 L929.34,89.896 C929.236,92.721 931.28,95.195 933.949,95.195 C935.186,95.195 936.449,94.974 937.764,94.531 L938.116,96.159 C936.918,96.693 935.525,96.966 933.923,96.966 C929.835,96.966 927.204,93.997 927.204,89.792 C927.204,85.846 929.457,82.721 933.155,82.721 z M936.436,88.242 C936.54,86.354 934.952,84.479 933.233,84.479 C931.072,84.479 929.561,86.146 929.47,88.242 L936.436,88.242" fill="#FFFFFF" id="I"/>
          <path d="M945.421,89.844 C945.421,92.734 947.413,95.195 950.303,95.195 C951.449,95.195 952.634,94.974 953.845,94.531 L954.197,96.159 C953.012,96.693 951.723,96.966 950.303,96.966 C946.085,96.966 943.285,94.062 943.285,89.844 C943.285,85.651 946.111,82.721 950.251,82.721 C951.618,82.721 952.908,82.956 954.145,83.437 L953.611,85.117 C952.374,84.687 951.267,84.479 950.277,84.479 C947.23,84.453 945.421,86.706 945.421,89.844" fill="#FFFFFF" id="J"/>
          <path d="M958.884,89.818 C958.884,85.82 961.124,82.721 964.991,82.721 C968.845,82.721 971.098,85.833 971.098,89.818 C971.098,93.828 968.858,96.966 964.991,96.966 C961.111,96.966 958.884,93.841 958.884,89.818 z M961.02,89.844 C961.02,92.578 962.361,95.195 964.991,95.195 C967.582,95.195 968.975,92.526 968.975,89.844 C968.975,87.018 967.673,84.479 964.991,84.479 C962.283,84.479 961.02,86.979 961.02,89.844" fill="#FFFFFF" id="K"/>
          <path d="M984.223,87.917 C984.21,85.781 983.741,84.479 981.827,84.479 C980.59,84.479 979.249,85.247 977.829,86.797 L977.829,96.615 L975.798,96.615 L975.798,83.047 L977.829,83.047 L977.829,85.039 C979.288,83.49 980.824,82.721 982.439,82.721 C984.978,82.721 986.254,84.258 986.254,87.331 L986.254,96.615 L984.223,96.615 L984.223,87.917" fill="#FFFFFF" id="L"/>
          <path d="M990.889,89.622 C990.889,86.068 992.712,82.721 996.046,82.721 C997.751,82.721 999.132,83.411 1000.173,84.805 L1000.173,78.242 L1002.204,78.242 L1002.204,96.615 L1000.173,96.615 L1000.173,94.661 C999.457,95.859 997.764,96.966 995.928,96.966 C994.379,96.966 993.142,96.276 992.244,94.896 C991.345,93.516 990.889,91.745 990.889,89.622 z M993.025,89.74 C993.025,92.409 994.053,95.143 996.462,95.143 C997.829,95.143 998.741,94.375 999.483,93.477 C999.939,92.917 1000.173,92.578 1000.173,92.461 L1000.173,86.823 C999.197,85.26 998.025,84.479 996.658,84.479 C994.197,84.492 993.025,87.083 993.025,89.74" fill="#FFFFFF" id="M"/>
          <path d="M1012.973,84.479 C1011.749,84.492 1009.861,85.104 1009.001,85.599 L1008.467,84.141 C1010.316,83.19 1012.035,82.721 1013.624,82.721 C1016.71,82.721 1018.259,84.362 1018.259,87.63 C1018.259,90.638 1018.012,94.115 1018.598,96.615 L1016.579,96.615 C1016.41,96.068 1016.332,95.339 1016.332,94.427 C1015.173,96.12 1013.611,96.966 1011.619,96.966 C1008.962,96.966 1006.827,94.023 1008.207,91.354 C1009.405,89.023 1012.855,88.854 1016.228,88.62 C1016.384,85.951 1015.369,84.44 1012.973,84.479 z M1012.204,95.013 C1014.014,94.961 1015.355,93.828 1016.228,92.591 L1016.228,90.13 C1013.194,90.495 1012.296,90.273 1010.681,91.393 C1010.16,91.758 1009.939,92.318 1009.939,92.982 C1009.913,94.206 1010.954,95.052 1012.204,95.013" fill="#FFFFFF" id="y"/>
          <path d="M1031.332,84.779 C1029.379,84.779 1027.986,86.628 1027.27,87.839 L1027.27,96.615 L1025.251,96.615 L1025.251,83.047 L1027.27,83.047 L1027.27,85.794 C1028.832,82.682 1031.332,82.018 1034.47,83.411 L1033.65,85.365 C1032.751,84.974 1031.983,84.779 1031.332,84.779" fill="#FFFFFF" id="v"/>
          <path d="M1050.876,83.047 L1045.733,96.615 C1044.991,98.607 1044.236,99.987 1043.52,100.794 C1042.243,102.24 1040.447,102.188 1038.532,101.523 L1038.871,99.896 C1040.316,100.352 1041.592,100.404 1042.439,99.362 C1042.907,98.802 1043.376,97.878 1043.858,96.589 L1038.767,83.047 L1040.98,83.047 L1044.822,93.867 L1048.663,83.047 L1050.876,83.047" fill="#FFFFFF" id="z"/>
        </g>
        <g id="h">
          <path d="M947.571,129.462 L944.142,138.507 L942.91,138.507 L939.498,129.462 L940.974,129.462 L943.535,136.658 L946.095,129.462 L947.571,129.462" fill="#CCCCCC" id="A"/>
          <path d="M950.253,133.976 C950.253,131.311 951.747,129.245 954.325,129.245 C956.894,129.245 958.396,131.319 958.396,133.976 C958.396,136.649 956.903,138.741 954.325,138.741 C951.738,138.741 950.253,136.658 950.253,133.976 z M951.677,133.993 C951.677,135.816 952.571,137.561 954.325,137.561 C956.052,137.561 956.981,135.781 956.981,133.993 C956.981,132.109 956.113,130.417 954.325,130.417 C952.519,130.417 951.677,132.083 951.677,133.993" fill="#CCCCCC" id="B"/>
          <path d="M964.802,135.807 C964.785,136.797 965.245,137.543 966.156,137.543 C966.894,137.543 967.632,137.378 968.352,137.049 L968.587,138.099 C967.675,138.516 966.781,138.724 965.904,138.724 C964.29,138.724 963.483,137.873 963.483,136.163 L963.483,130.634 L961.747,130.634 L961.747,129.462 L963.483,129.462 L963.483,126.988 L964.802,126.988 L964.802,129.462 L967.875,129.462 L967.875,130.634 L964.802,130.634 L964.802,135.807" fill="#CCCCCC" id="C"/>
          <path d="M975.774,129.245 C977.988,129.253 979.516,131.207 979.438,133.602 L979.438,134.028 L973.231,134.028 C973.161,135.911 974.524,137.561 976.304,137.561 C977.128,137.561 977.971,137.413 978.847,137.118 L979.082,138.203 C978.283,138.559 977.354,138.741 976.286,138.741 C973.561,138.741 971.807,136.762 971.807,133.958 C971.807,131.328 973.309,129.245 975.774,129.245 z M977.962,132.925 C978.031,131.667 976.972,130.417 975.826,130.417 C974.385,130.417 973.378,131.528 973.318,132.925 L977.962,132.925" fill="#CCCCCC" id="D"/>
          <path d="M983.023,131.788 C983.023,130.026 984.811,129.245 986.764,129.245 C987.493,129.245 988.3,129.366 989.194,129.618 L988.891,130.755 C988.135,130.503 987.415,130.382 986.747,130.382 C985.549,130.373 984.359,130.738 984.359,131.736 C984.359,131.997 984.438,132.24 984.655,132.413 C985.505,133.116 987.649,133.307 988.587,133.941 C989.247,134.384 989.715,134.939 989.715,135.946 C989.715,137.812 987.858,138.741 985.87,138.741 C984.759,138.741 983.839,138.576 983.118,138.238 L983.378,137.066 C984.134,137.422 984.95,137.604 985.818,137.604 C987.068,137.604 988.361,137.153 988.361,136.068 C988.361,135.755 988.248,135.469 988.014,135.226 C987.771,134.8 985.418,134.193 984.811,133.976 C983.873,133.637 983.023,133.03 983.023,131.788" fill="#CCCCCC" id="E"/>
          <path d="M995.896,130.365 C995.896,129.8 996.365,129.332 996.929,129.332 C997.502,129.332 997.979,129.8 997.979,130.365 C997.979,130.929 997.502,131.398 996.929,131.398 C996.365,131.398 995.896,130.929 995.896,130.365 z M995.896,137.622 C995.896,137.049 996.365,136.589 996.929,136.589 C997.502,136.589 997.979,137.049 997.979,137.622 C997.979,138.186 997.502,138.646 996.929,138.646 C996.365,138.646 995.896,138.186 995.896,137.622" fill="#CCCCCC" id="F"/>
        </g>
        <path d="M1021.842,138.507 L1015.401,138.507 L1015.401,137.266 L1017.996,137.266 L1017.996,127.752 L1015.549,128.976 L1015.549,127.552 L1018.196,126.189 L1019.42,126.189 L1019.42,137.266 L1021.842,137.266 L1021.842,138.507" fill="#CCCCCC" id="G"/>
      </g>
    </g>
  </g>
</svg>
