<?xml version="1.0" encoding="UTF-8"?>
<!DOCTYPE svg PUBLIC "-//W3C//DTD SVG 1.1//EN" "http://www.w3.org/Graphics/SVG/1.1/DTD/svg11.dtd">
<svg version="1.1" xmlns="http://www.w3.org/2000/svg" xmlns:xlink="http://www.w3.org/1999/xlink" x="0" y="0" width="830" height="330" viewBox="0, 0, 830, 330">
  <g id="Layer_1">
    <g>
      <g>
        <path d="M335.1,202.654 C335.1,201.459 333.238,200.49 330.94,200.49 L211.16,200.49 C208.864,200.49 207,201.459 207,202.654 L207,265 C207,266.196 208.864,267.166 211.16,267.166 L330.94,267.166 C333.238,267.166 335.1,266.196 335.1,265 L335.1,202.654" fill="#72B647"/>
        <path d="M335.1,202.654 C335.1,201.459 333.238,200.49 330.94,200.49 L211.16,200.49 C208.864,200.49 207,201.459 207,202.654 L207,265 C207,266.196 208.864,267.166 211.16,267.166 L330.94,267.166 C333.238,267.166 335.1,266.196 335.1,265 L335.1,202.654" fill-opacity="0" stroke="#6CB340" stroke-width="1.5"/>
      </g>
      <g>
        <path d="M335.1,202.654 C335.1,201.459 333.238,200.49 330.94,200.49 L211.16,200.49 C208.864,200.49 207,201.459 207,202.654 L207,265 C207,266.196 208.864,267.166 211.16,267.166 L330.94,267.166 C333.238,267.166 335.1,266.196 335.1,265 L335.1,202.654" fill="#72B647"/>
        <path d="M335.1,202.654 C335.1,201.459 333.238,200.49 330.94,200.49 L211.16,200.49 C208.864,200.49 207,201.459 207,202.654 L207,265 C207,266.196 208.864,267.166 211.16,267.166 L330.94,267.166 C333.238,267.166 335.1,266.196 335.1,265 L335.1,202.654" fill-opacity="0" stroke="#6CB340" stroke-width="1.5"/>
      </g>
    </g>
    <text transform="matrix(1, 0, 0, 1, 271.05, 233.826)">
      <tspan x="-60" y="7.5" font-family="Inconsolata" font-size="24" fill="#FFFFFF">WiredTiger</tspan>
    </text>
    <g>
      <g>
        <path d="M191,202.654 C191,201.459 189.138,200.49 186.84,200.49 L67.06,200.49 C64.764,200.49 62.9,201.459 62.9,202.654 L62.9,265 C62.9,266.196 64.764,267.166 67.06,267.166 L186.84,267.166 C189.138,267.166 191,266.196 191,265 L191,202.654" fill="#72B647"/>
        <path d="M191,202.654 C191,201.459 189.138,200.49 186.84,200.49 L67.06,200.49 C64.764,200.49 62.9,201.459 62.9,202.654 L62.9,265 C62.9,266.196 64.764,267.166 67.06,267.166 L186.84,267.166 C189.138,267.166 191,266.196 191,265 L191,202.654" fill-opacity="0" stroke="#6CB340" stroke-width="1.5"/>
      </g>
      <g>
        <path d="M191,202.654 C191,201.459 189.138,200.49 186.84,200.49 L67.06,200.49 C64.764,200.49 62.9,201.459 62.9,202.654 L62.9,265 C62.9,266.196 64.764,267.166 67.06,267.166 L186.84,267.166 C189.138,267.166 191,266.196 191,265 L191,202.654" fill="#72B647"/>
        <path d="M191,202.654 C191,201.459 189.138,200.49 186.84,200.49 L67.06,200.49 C64.764,200.49 62.9,201.459 62.9,202.654 L62.9,265 C62.9,266.196 64.764,267.166 67.06,267.166 L186.84,267.166 C189.138,267.166 191,266.196 191,265 L191,202.654" fill-opacity="0" stroke="#6CB340" stroke-width="1.5"/>
      </g>
    </g>
    <text transform="matrix(1, 0, 0, 1, 126.95, 233.825)">
      <tspan x="-36" y="7.5" font-family="Inconsolata" font-size="24" fill="#FFFFFF">MMAPv1</tspan>
    </text>
    <g>
      <g>
        <path d="M479,202.654 C479,201.459 477.138,200.49 474.84,200.49 L355.06,200.49 C352.764,200.49 350.9,201.459 350.9,202.654 L350.9,265 C350.9,266.196 352.764,267.166 355.06,267.166 L474.84,267.166 C477.138,267.166 479,266.196 479,265 L479,202.654" fill="#72B647"/>
        <path d="M479,202.654 C479,201.459 477.138,200.49 474.84,200.49 L355.06,200.49 C352.764,200.49 350.9,201.459 350.9,202.654 L350.9,265 C350.9,266.196 352.764,267.166 355.06,267.166 L474.84,267.166 C477.138,267.166 479,266.196 479,265 L479,202.654" fill-opacity="0" stroke="#6CB340" stroke-width="1.5"/>
      </g>
      <g>
        <path d="M479,202.654 C479,201.459 477.138,200.49 474.84,200.49 L355.06,200.49 C352.764,200.49 350.9,201.459 350.9,202.654 L350.9,265 C350.9,266.196 352.764,267.166 355.06,267.166 L474.84,267.166 C477.138,267.166 479,266.196 479,265 L479,202.654" fill="#72B647"/>
        <path d="M479,202.654 C479,201.459 477.138,200.49 474.84,200.49 L355.06,200.49 C352.764,200.49 350.9,201.459 350.9,202.654 L350.9,265 C350.9,266.196 352.764,267.166 355.06,267.166 L474.84,267.166 C477.138,267.166 479,266.196 479,265 L479,202.654" fill-opacity="0" stroke="#6CB340" stroke-width="1.5"/>
      </g>
    </g>
    <text transform="matrix(1, 0, 0, 1, 414.949, 233.825)">
      <tspan x="-54" y="7.5" font-family="Inconsolata" font-size="24" fill="#FFFFFF">In-Memory</tspan>
    </text>
    <g>
      <g>
        <path d="M623,202.654 C623,201.459 621.138,200.49 618.84,200.49 L499.06,200.49 C496.764,200.49 494.9,201.459 494.9,202.654 L494.9,265 C494.9,266.196 496.764,267.166 499.06,267.166 L618.84,267.166 C621.138,267.166 623,266.196 623,265 L623,202.654" fill="#72B647"/>
        <path d="M623,202.654 C623,201.459 621.138,200.49 618.84,200.49 L499.06,200.49 C496.764,200.49 494.9,201.459 494.9,202.654 L494.9,265 C494.9,266.196 496.764,267.166 499.06,267.166 L618.84,267.166 C621.138,267.166 623,266.196 623,265 L623,202.654" fill-opacity="0" stroke="#6CB340" stroke-width="1.5"/>
      </g>
      <g>
        <path d="M623,202.654 C623,201.459 621.138,200.49 618.84,200.49 L499.06,200.49 C496.764,200.49 494.9,201.459 494.9,202.654 L494.9,265 C494.9,266.196 496.764,267.166 499.06,267.166 L618.84,267.166 C621.138,267.166 623,266.196 623,265 L623,202.654" fill="#72B647"/>
        <path d="M623,202.654 C623,201.459 621.138,200.49 618.84,200.49 L499.06,200.49 C496.764,200.49 494.9,201.459 494.9,202.654 L494.9,265 C494.9,266.196 496.764,267.166 499.06,267.166 L618.84,267.166 C621.138,267.166 623,266.196 623,265 L623,202.654" fill-opacity="0" stroke="#6CB340" stroke-width="1.5"/>
      </g>
    </g>
    <text transform="matrix(1, 0, 0, 1, 558.951, 233.825)">
      <tspan x="-6" y="7.5" font-family="Inconsolata" font-size="24" fill="#FFFFFF">?</tspan>
    </text>
    <g>
      <g>
        <path d="M766.297,202.653 C766.297,201.457 764.436,200.488 762.137,200.488 L642.358,200.488 C640.061,200.488 638.197,201.457 638.197,202.653 L638.197,264.998 C638.197,266.194 640.061,267.164 642.358,267.164 L762.137,267.164 C764.436,267.164 766.297,266.194 766.297,264.998 L766.297,202.653" fill="#72B647"/>
        <path d="M766.297,202.653 C766.297,201.457 764.436,200.488 762.137,200.488 L642.358,200.488 C640.061,200.488 638.197,201.457 638.197,202.653 L638.197,264.998 C638.197,266.194 640.061,267.164 642.358,267.164 L762.137,267.164 C764.436,267.164 766.297,266.194 766.297,264.998 L766.297,202.653" fill-opacity="0" stroke="#6CB340" stroke-width="1.5"/>
      </g>
      <g>
        <path d="M766.297,202.653 C766.297,201.457 764.436,200.488 762.137,200.488 L642.358,200.488 C640.061,200.488 638.197,201.457 638.197,202.653 L638.197,264.998 C638.197,266.194 640.061,267.164 642.358,267.164 L762.137,267.164 C764.436,267.164 766.297,266.194 766.297,264.998 L766.297,202.653" fill="#72B647"/>
        <path d="M766.297,202.653 C766.297,201.457 764.436,200.488 762.137,200.488 L642.358,200.488 C640.061,200.488 638.197,201.457 638.197,202.653 L638.197,264.998 C638.197,266.194 640.061,267.164 642.358,267.164 L762.137,267.164 C764.436,267.164 766.297,266.194 766.297,264.998 L766.297,202.653" fill-opacity="0" stroke="#6CB340" stroke-width="1.5"/>
      </g>
    </g>
    <text transform="matrix(1, 0, 0, 1, 702.249, 233.823)">
      <tspan x="-6" y="7.5" font-family="Inconsolata" font-size="24" fill="#FFFFFF">?</tspan>
    </text>
    <g>
      <path d="M766.297,145.476 C766.297,144.747 756.075,144.156 743.453,144.156 L85.744,144.156 C73.135,144.156 62.9,144.747 62.9,145.476 L62.9,183.51 C62.9,184.24 73.135,184.832 85.744,184.832 L743.453,184.832 C756.075,184.832 766.297,184.24 766.297,183.51 L766.297,145.476" fill-opacity="0" stroke="#6CB340" stroke-width="1.5"/>
      <path d="M766.297,145.476 C766.297,144.747 756.075,144.156 743.453,144.156 L85.744,144.156 C73.135,144.156 62.9,144.747 62.9,145.476 L62.9,183.51 C62.9,184.24 73.135,184.832 85.744,184.832 L743.453,184.832 C756.075,184.832 766.297,184.24 766.297,183.51 L766.297,145.476" fill-opacity="0" stroke="#6CB340" stroke-width="1.5"/>
    </g>
    <text transform="matrix(1, 0, 0, 1, 414.599, 164.494)">
      <tspan x="-162" y="7.5" font-family="Inconsolata" font-size="24" fill="#000000">MongoDB Document Data Model</tspan>
    </text>
    <g>
      <path d="M766.297,89.644 C766.297,88.915 756.076,88.324 743.453,88.324 L85.744,88.324 C73.135,88.324 62.9,88.915 62.9,89.644 L62.9,127.679 C62.9,128.408 73.135,129 85.744,129 L743.453,129 C756.076,129 766.297,128.408 766.297,127.679 L766.297,89.644" fill-opacity="0" stroke="#6CB340" stroke-width="1.5"/>
      <path d="M766.297,89.644 C766.297,88.915 756.076,88.324 743.453,88.324 L85.744,88.324 C73.135,88.324 62.9,88.915 62.9,89.644 L62.9,127.679 C62.9,128.408 73.135,129 85.744,129 L743.453,129 C756.076,129 766.297,128.408 766.297,127.679 L766.297,89.644" fill-opacity="0" stroke="#6CB340" stroke-width="1.5"/>
    </g>
    <text transform="matrix(1, 0, 0, 1, 414.599, 108.662)">
      <tspan x="-234" y="7.5" font-family="Inconsolata" font-size="24" fill="#000000">MongoDB Query Language + Native Drivers</tspan>
    </text>
    <path d="M75.198,7.321 L178.703,7.321 C185.494,7.321 191,12.162 191,18.133 L191,63.185 C191,69.156 185.494,73.997 178.703,73.997 L75.198,73.997 C68.406,73.997 62.9,69.156 62.9,63.185 L62.9,18.133 C62.9,12.162 68.406,7.321 75.198,7.321 z" fill-opacity="0" stroke="#000000" stroke-width="1.5"/>
    <text transform="matrix(1, 0, 0, 1, 126.95, 40.659)">
      <tspan x="-54" y="5.5" font-family="Inconsolata" font-size="18" fill="#000000">Content Repo</tspan>
    </text>
    <path d="M219.298,7.321 L322.802,7.321 C329.594,7.321 335.1,12.162 335.1,18.133 L335.1,63.185 C335.1,69.156 329.594,73.997 322.802,73.997 L219.298,73.997 C212.506,73.997 207,69.156 207,63.185 L207,18.133 C207,12.162 212.506,7.321 219.298,7.321 z" fill-opacity="0" stroke="#000000" stroke-width="1.5"/>
    <text transform="matrix(1, 0, 0, 1, 271.05, 40.659)">
      <tspan x="-45" y="-4.5" font-family="Inconsolata" font-size="18" fill="#000000">IoT Sensor</tspan>
      <tspan x="-31.5" y="15.5" font-family="Inconsolata" font-size="18" fill="#000000">Backend</tspan>
    </text>
    <path d="M507.198,7.321 L610.702,7.321 C617.494,7.321 623,12.162 623,18.133 L623,63.185 C623,69.156 617.494,73.997 610.702,73.997 L507.198,73.997 C500.406,73.997 494.9,69.156 494.9,63.185 L494.9,18.133 C494.9,12.162 500.406,7.321 507.198,7.321 z" fill-opacity="0" stroke="#000000" stroke-width="1.5"/>
    <text transform="matrix(1, 0, 0, 1, 558.95, 40.659)">
      <tspan x="-36" y="-4.5" font-family="Inconsolata" font-size="18" fill="#000000">Customer </tspan>
      <tspan x="-40.5" y="15.5" font-family="Inconsolata" font-size="18" fill="#000000">Analytics</tspan>
    </text>
    <path d="M363.197,7.321 L466.702,7.321 C473.493,7.321 478.999,12.162 478.999,18.133 L478.999,63.185 C478.999,69.156 473.493,73.997 466.702,73.997 L363.197,73.997 C356.405,73.997 350.899,69.156 350.899,63.185 L350.899,18.133 C350.899,12.162 356.405,7.321 363.197,7.321 z" fill-opacity="0" stroke="#000000" stroke-width="1.5"/>
    <text transform="matrix(1, 0, 0, 1, 414.949, 40.659)">
      <tspan x="-45" y="5.5" font-family="Inconsolata" font-size="18" fill="#000000">Ad Service</tspan>
    </text>
    <path d="M650.495,7.321 L754,7.321 C760.792,7.321 766.297,12.162 766.297,18.133 L766.297,63.185 C766.297,69.156 760.792,73.997 754,73.997 L650.495,73.997 C643.703,73.997 638.197,69.156 638.197,63.185 L638.197,18.133 C638.197,12.162 643.703,7.321 650.495,7.321 z" fill-opacity="0" stroke="#000000" stroke-width="1.5"/>
    <text transform="matrix(1, 0, 0, 1, 702.247, 40.659)">
      <tspan x="-31.5" y="5.5" font-family="Inconsolata" font-size="18" fill="#000000">Archive</tspan>
    </text>
    <path d="M494.9,282 L767.1,282" fill-opacity="0" stroke="#000000" stroke-width="2"/>
    <g>
      <path d="M62.9,282 L335.1,282" fill-opacity="0" stroke="#000000" stroke-width="2"/>
      <path d="M199,296.9 L199,281.9" fill-opacity="0" stroke="#000000" stroke-width="2"/>
    </g>
    <path d="M631,297 L631,282" fill-opacity="0" stroke="#000000" stroke-width="2"/>
    <text transform="matrix(1, 0, 0, 1, 199, 313)">
      <tspan x="-96" y="2" font-family="Inconsolata" font-size="16" fill="#000000">Supported in MongoDB 3.0</tspan>
    </text>
    <text transform="matrix(1, 0, 0, 1, 631, 313)">
      <tspan x="-124" y="2" font-family="Inconsolata" font-size="16" fill="#000000">Future possible storage engines</tspan>
    </text>
    <g>
      <path d="M352.149,282.1 L477.749,282.1" fill-opacity="0" stroke="#000000" stroke-width="2"/>
      <path d="M414.949,297 L414.949,282" fill-opacity="0" stroke="#000000" stroke-width="2"/>
    </g>
    <text transform="matrix(1, 0, 0, 1, 414.949, 313)">
      <tspan x="-48" y="2" font-family="Inconsolata" font-size="16" fill="#000000">Experimental</tspan>
    </text>
    <g>
      <path d="M8.284,88.324 C7.554,88.324 6.963,90.923 6.963,94.132 L6.963,261.356 C6.963,264.562 7.554,267.164 8.284,267.164 L46.318,267.164 C47.048,267.164 47.639,264.562 47.639,261.356 L47.639,94.132 C47.639,90.923 47.048,88.324 46.318,88.324 L8.284,88.324" fill-opacity="0" stroke="#6CB340" stroke-width="1.5"/>
      <path d="M8.284,88.324 C7.554,88.324 6.963,90.923 6.963,94.132 L6.963,261.356 C6.963,264.562 7.554,267.164 8.284,267.164 L46.318,267.164 C47.048,267.164 47.639,264.562 47.639,261.356 L47.639,94.132 C47.639,90.923 47.048,88.324 46.318,88.324 L8.284,88.324" fill-opacity="0" stroke="#6CB340" stroke-width="1.5"/>
    </g>
    <text transform="matrix(-0, -1, 1, -0, 27.301, 177.744)">
      <tspan x="-48" y="7.5" font-family="Inconsolata" font-size="24" fill="#000000">Security</tspan>
    </text>
    <g>
      <path d="M782.644,89.324 C781.915,89.324 781.324,91.923 781.324,95.132 L781.324,262.356 C781.324,265.562 781.915,268.164 782.644,268.164 L820.679,268.164 C821.408,268.164 822,265.562 822,262.356 L822,95.132 C822,91.923 821.408,89.324 820.679,89.324 L782.644,89.324" fill-opacity="0" stroke="#6CB340" stroke-width="1.5"/>
      <path d="M782.644,89.324 C781.915,89.324 781.324,91.923 781.324,95.132 L781.324,262.356 C781.324,265.562 781.915,268.164 782.644,268.164 L820.679,268.164 C821.408,268.164 822,265.562 822,262.356 L822,95.132 C822,91.923 821.408,89.324 820.679,89.324 L782.644,89.324" fill-opacity="0" stroke="#6CB340" stroke-width="1.5"/>
    </g>
    <text transform="matrix(-0, -1, 1, -0, 801.66, 178.744)">
      <tspan x="-60" y="7.5" font-family="Inconsolata" font-size="24" fill="#000000">Management</tspan>
    </text>
  </g>
</svg>
